<svg width="17" height="17" viewBox="0 0 17 17" fill="none" xmlns="http://www.w3.org/2000/svg">
<path d="M11.1232 2.35168C11.4155 2.35168 11.6464 2.3695 11.8159 2.40512C12.0146 2.45273 12.2337 2.52698 12.4732 2.62786C12.6546 2.71109 12.8532 2.82113 13.0692 2.95797C13.2561 3.08881 13.4256 3.22848 13.5778 3.37697C13.7473 3.56142 13.8905 3.73688 14.0074 3.90335C14.136 4.11144 14.2442 4.31653 14.3319 4.51863C14.4196 4.72671 14.4898 4.94379 14.5425 5.16986C14.5834 5.35996 14.6038 5.60068 14.6038 5.892V11.2252C14.6038 11.4929 14.5834 11.7278 14.5425 11.9299C14.4839 12.1676 14.4137 12.3905 14.3319 12.5986C14.2501 12.783 14.1419 12.9851 14.0074 13.2049C13.8964 13.3833 13.7532 13.5558 13.5778 13.7223C13.4142 13.9007 13.2446 14.0464 13.0692 14.1592C12.8529 14.2961 12.6542 14.4061 12.4732 14.4894C12.2687 14.5726 12.0496 14.644 11.8159 14.7036C11.6172 14.7452 11.3863 14.766 11.1232 14.766H5.88066C5.59429 14.766 5.35766 14.7452 5.17078 14.7036C4.94856 14.65 4.73517 14.5786 4.53062 14.4894C4.33196 14.4001 4.13036 14.2901 3.92581 14.1592C3.76806 14.0524 3.60147 13.9067 3.42605 13.7223C3.25063 13.5558 3.10744 13.3833 2.99649 13.2049C2.86198 12.9848 2.75381 12.7827 2.67199 12.5986C2.5725 12.3549 2.49952 12.132 2.45304 11.9299C2.41802 11.7574 2.40051 11.5225 2.40051 11.2252V5.892C2.40051 5.57704 2.41802 5.33633 2.45304 5.16986C2.49984 4.97375 2.57283 4.75668 2.67199 4.51863C2.7597 4.31653 2.86787 4.11144 2.99649 3.90335C3.10155 3.74287 3.24473 3.57341 3.42605 3.39495C3.60147 3.2105 3.76806 3.06484 3.92581 2.95797C4.13036 2.82712 4.33196 2.71709 4.53062 2.62786C4.77019 2.52664 4.98931 2.4524 5.18797 2.40512C5.3575 2.3695 5.58839 2.35168 5.88066 2.35168H11.1232ZM12 5.8925C12.1168 5.8925 12.225 5.87169 12.3245 5.83008C12.4181 5.78247 12.5088 5.71405 12.5965 5.62482C12.6842 5.53559 12.7514 5.44337 12.7982 5.34815C12.8391 5.26491 12.8596 5.14905 12.8596 5.00056C12.8596 4.85206 12.8391 4.7362 12.7982 4.65297C12.7514 4.55175 12.6901 4.45953 12.6141 4.37629C12.5264 4.30504 12.43 4.24262 12.325 4.18901C12.2255 4.1474 12.1173 4.12659 12.0005 4.12659C11.8545 4.12659 11.7406 4.1474 11.6588 4.18901C11.5593 4.23063 11.4687 4.29306 11.3868 4.37629C11.2991 4.46552 11.2319 4.55775 11.1851 4.65297C11.1442 4.7362 11.1237 4.85206 11.1237 5.00056C11.1237 5.14905 11.1442 5.26491 11.1851 5.34815C11.226 5.44936 11.2873 5.54158 11.3692 5.62482C11.4628 5.72004 11.5591 5.78846 11.6583 5.83008C11.7401 5.87169 11.854 5.8925 12 5.8925ZM8.50218 12.1172C8.7244 12.1172 8.95824 12.0904 9.2037 12.0367C9.45506 11.9891 9.67712 11.9237 9.86988 11.8405C10.0394 11.7692 10.2323 11.6592 10.4487 11.5104C10.6883 11.3319 10.8635 11.1863 10.9745 11.0734C11.1322 10.9189 11.2754 10.7406 11.404 10.5385C11.5444 10.3244 11.6496 10.1282 11.7197 9.94971C11.8133 9.72964 11.8805 9.50374 11.9214 9.27201C11.9741 9.02231 12.0005 8.78442 12.0005 8.55835C12.0005 8.33229 11.9741 8.0944 11.9214 7.8447C11.8805 7.61297 11.8133 7.38707 11.7197 7.167C11.6379 6.9649 11.5326 6.76281 11.404 6.56071C11.2813 6.37626 11.1381 6.2038 10.9745 6.04332C10.8226 5.88285 10.6473 5.73719 10.4487 5.60634C10.215 5.44586 10.0221 5.33583 9.86988 5.27623C9.67712 5.193 9.45506 5.12757 9.2037 5.07996C8.95824 5.02636 8.7244 4.99956 8.50218 4.99956C8.27439 4.99956 8.03777 5.02636 7.7923 5.07996C7.55273 5.12757 7.33362 5.193 7.13496 5.27623C6.9831 5.33583 6.79017 5.44586 6.55616 5.60634C6.3575 5.73719 6.18225 5.88285 6.03039 6.04332C5.86675 6.2038 5.72356 6.37626 5.60083 6.56071C5.45486 6.78678 5.3467 6.98887 5.27633 7.167C5.19451 7.3631 5.1302 7.589 5.0834 7.8447C5.03071 8.0944 5.00436 8.33229 5.00436 8.55835C5.00436 8.78442 5.03071 9.02231 5.0834 9.27201C5.1302 9.52771 5.19451 9.75361 5.27633 9.94971C5.33491 10.1042 5.44308 10.3005 5.60083 10.5385C5.72945 10.7406 5.87264 10.9189 6.03039 11.0734C6.14134 11.1863 6.31659 11.3319 6.55616 11.5104C6.7725 11.6589 6.96543 11.7689 7.13496 11.8405C7.33362 11.9237 7.55273 11.9891 7.7923 12.0367C8.03777 12.0904 8.27439 12.1172 8.50218 12.1172ZM8.50218 5.8925C8.8527 5.8925 9.18881 5.96092 9.51053 6.09776C9.8437 6.24059 10.1271 6.43087 10.3608 6.66859C10.6004 6.9123 10.7874 7.19763 10.9219 7.52458C11.0564 7.83388 11.1237 8.17864 11.1237 8.55885C11.1237 8.92143 11.0564 9.26618 10.9219 9.59313C10.7874 9.92008 10.6004 10.2054 10.3608 10.4491C10.1271 10.6868 9.8437 10.8771 9.51053 11.0199C9.18914 11.1568 8.85302 11.2252 8.50218 11.2252C8.14577 11.2252 7.80687 11.1568 7.48548 11.0199C7.16409 10.8831 6.88361 10.6928 6.64404 10.4491C6.39269 10.1934 6.2027 9.90809 6.07408 9.59313C5.94546 9.27817 5.88115 8.93341 5.88115 8.55885C5.88115 8.16632 5.94546 7.82156 6.07408 7.52458C6.2027 7.20961 6.39269 6.92428 6.64404 6.66859C6.88361 6.42487 7.16409 6.2346 7.48548 6.09776C7.80687 5.96092 8.14577 5.8925 8.50218 5.8925Z" fill="#C13584"/>
</svg>
