<svg width="12" height="21" viewBox="0 0 12 21" fill="none" xmlns="http://www.w3.org/2000/svg">
<path d="M10.4612 0.574707H2.01323C1.21913 0.574707 0.573242 1.23092 0.573242 2.03772V19.0867C0.573242 19.8935 1.21913 20.5497 2.01323 20.5497H10.4612C11.2553 20.5497 11.9012 19.8935 11.9012 19.0867V2.03772C11.9012 1.23092 11.2553 0.574707 10.4612 0.574707ZM11.3252 16.4533H3.16522C3.00625 16.4533 2.87723 16.5844 2.87723 16.7459C2.87723 16.9074 3.00625 17.0385 3.16522 17.0385H11.3252V19.0867C11.3252 19.5709 10.9377 19.9645 10.4612 19.9645H2.01323C1.53669 19.9645 1.14924 19.5709 1.14924 19.0867V17.0385H2.01323C2.17221 17.0385 2.30123 16.9074 2.30123 16.7459C2.30123 16.5844 2.17221 16.4533 2.01323 16.4533H1.14924V3.50074H11.3252V16.4533ZM11.3252 2.91553H1.14924V2.03772C1.14924 1.55356 1.53669 1.15991 2.01323 1.15991H10.4612C10.9377 1.15991 11.3252 1.55356 11.3252 2.03772V2.91553Z" fill="black"/>
<path d="M7.38732 1.74658H6.23532C6.07635 1.74658 5.94733 1.87783 5.94733 2.03955C5.94733 2.20127 6.07635 2.33252 6.23532 2.33252H7.38732C7.54629 2.33252 7.67531 2.20127 7.67531 2.03955C7.67531 1.87783 7.54629 1.74658 7.38732 1.74658Z" fill="black"/>
<path d="M6.23509 19.3799C6.71163 19.3799 7.09908 18.986 7.09908 18.5015C7.09908 18.0171 6.71163 17.6232 6.23509 17.6232C5.75855 17.6232 5.37109 18.0171 5.37109 18.5015C5.37109 18.986 5.75855 19.3799 6.23509 19.3799ZM6.23509 18.2087C6.39406 18.2087 6.52309 18.3399 6.52309 18.5015C6.52309 18.6631 6.39406 18.7943 6.23509 18.7943C6.07611 18.7943 5.94709 18.6631 5.94709 18.5015C5.94709 18.3399 6.07611 18.2087 6.23509 18.2087Z" fill="black"/>
<path d="M5.08452 2.33252C5.24392 2.33252 5.37314 2.20135 5.37314 2.03955C5.37314 1.87775 5.24392 1.74658 5.08452 1.74658C4.92512 1.74658 4.7959 1.87775 4.7959 2.03955C4.7959 2.20135 4.92512 2.33252 5.08452 2.33252Z" fill="black"/>
</svg>
