<svg width="18" height="18" viewBox="0 0 18 18" fill="none" xmlns="http://www.w3.org/2000/svg">
<path d="M12.3278 6.91638C11.0764 6.91638 10.2368 7.60305 9.8938 8.25409H9.85768V7.12435H7.38974V15.4095H9.95973V11.3069C9.95973 10.2266 10.1645 9.18218 11.5022 9.18218C12.8203 9.18218 12.84 10.4149 12.84 11.3762V15.41H15.4073V15.4095H15.4102V10.858C15.4102 8.63148 14.9308 6.91638 12.3278 6.91638Z" fill="#E60023"/>
<path d="M5.77761 7.12488H3.20471V15.41H5.77761V7.12488Z" fill="#E60023"/>
<path d="M4.49017 3C3.66752 3 3 3.66752 3 4.49017C3 5.31282 3.66752 5.9944 4.49017 5.9944C5.31282 5.9944 5.98034 5.31282 5.98034 4.49017C5.97985 3.66752 5.31233 3 4.49017 3Z" fill="#E60023"/>
</svg>
