<svg width="18" height="19" viewBox="0 0 18 19" fill="none" xmlns="http://www.w3.org/2000/svg">
<path d="M16.7854 4.99274C16.6868 5.03281 16.6244 5.05622 16.5982 5.06297C16.526 5.0963 16.4636 5.11971 16.411 5.1332C16.3123 5.16653 16.2302 5.19668 16.1647 5.22365C16.066 5.24388 16.0036 5.26055 15.9774 5.27365C15.7407 5.32722 15.596 5.36074 15.5433 5.37422C15.3791 5.40756 15.2247 5.43097 15.08 5.44445L15.0601 5.46468C15.218 5.37778 15.3692 5.27403 15.5135 5.15342C15.5857 5.08001 15.7074 4.94292 15.8786 4.74216C16.0365 4.50132 16.1286 4.35749 16.1547 4.31067C16.2269 4.18369 16.2992 4.01982 16.3718 3.81906L16.3917 3.77917C16.2208 3.86607 16.0697 3.94959 15.9382 4.02975C15.8661 4.06983 15.7083 4.13331 15.4649 4.22021C15.3861 4.25355 15.225 4.31048 14.9817 4.39101C14.9684 4.39101 14.9404 4.39775 14.8977 4.41124C14.855 4.42472 14.7926 4.44139 14.7105 4.46124C14.6284 4.48109 14.5446 4.50113 14.4592 4.52136C14.3211 4.3809 14.17 4.24381 14.0058 4.11009C13.9664 4.08987 13.9121 4.05971 13.8428 4.01964C13.7736 3.97956 13.7112 3.94285 13.6556 3.90952C13.6 3.87618 13.5457 3.84603 13.4927 3.81906C13.2493 3.71868 13.0553 3.65182 12.9106 3.61848C12.7464 3.58515 12.5326 3.56848 12.2694 3.56848C11.8552 3.56848 11.4706 3.63871 11.1157 3.77917C10.7541 3.93986 10.4253 4.16384 10.1293 4.45113C9.82036 4.76538 9.59687 5.09312 9.4588 5.43434C9.30747 5.7823 9.23181 6.16697 9.23181 6.58835C9.23181 6.6554 9.23843 6.71551 9.25169 6.7687V6.84904C9.25169 6.89586 9.255 6.92602 9.26163 6.9395C9.26163 6.96609 9.26826 7.02621 9.28151 7.11985C9.3014 7.15993 9.31447 7.21012 9.32073 7.27042C8.97242 7.27042 8.66663 7.24364 8.40338 7.19008C8.08121 7.14326 7.78205 7.0764 7.50591 6.9895C7.22977 6.91609 6.94055 6.82245 6.63827 6.70859C6.39489 6.61495 6.12538 6.49453 5.82972 6.34732C5.51418 6.18664 5.25442 6.03944 5.05044 5.90572C4.80044 5.72518 4.56369 5.54802 4.3402 5.37422C4.12997 5.21354 3.91292 5.02289 3.68906 4.80227C3.5311 4.65507 3.33394 4.43109 3.09756 4.13032L3.08762 4.11009C3.06147 4.1704 3.03515 4.22564 3.00864 4.27583C2.98213 4.32602 2.95912 4.36779 2.9396 4.40112C2.92009 4.43446 2.91015 4.4545 2.90978 4.46124C2.8899 4.5148 2.86689 4.58503 2.84074 4.67193C2.8146 4.75883 2.79822 4.81239 2.79159 4.83261C2.77834 4.87943 2.76029 4.94966 2.73747 5.0433C2.71464 5.13694 2.69991 5.20043 2.69328 5.23376C2.68003 5.34089 2.6734 5.47798 2.6734 5.64503C2.6734 5.91921 2.70304 6.17671 2.76232 6.41755C2.82823 6.67188 2.92359 6.89924 3.0484 7.09962C3.16033 7.30039 3.29841 7.49778 3.46262 7.6918C3.64009 7.87234 3.82418 8.02609 4.01491 8.15307C3.93611 8.15307 3.81774 8.13977 3.65979 8.11318C3.58099 8.09969 3.50202 8.08471 3.42285 8.06823C3.34369 8.05175 3.30098 8.04332 3.29472 8.04295C3.26195 8.02946 3.20765 8.00942 3.1318 7.98283C3.05595 7.95624 3.00164 7.9362 2.96887 7.92271L2.63364 7.76203L2.65352 7.78225V7.82214C2.65352 8.2233 2.71261 8.57444 2.8308 8.87559C2.92285 9.16325 3.09388 9.45428 3.34388 9.74868C3.54786 10.003 3.81406 10.2304 4.14248 10.4308C4.412 10.6045 4.72754 10.7216 5.0891 10.7819C5.01694 10.822 4.95453 10.842 4.90188 10.842L4.70471 10.8724H4.4976C4.4317 10.8858 4.35935 10.8926 4.28056 10.8926H4.14248C4.12923 10.8926 4.08321 10.8858 4.00441 10.8724C3.95176 10.8724 3.89911 10.8656 3.84646 10.8521C3.81369 10.8521 3.79068 10.8488 3.77742 10.842H3.70839C3.79381 11.1229 3.93851 11.4039 4.14248 11.6848C4.33321 11.9391 4.55026 12.1599 4.79363 12.3472C5.06977 12.5547 5.33929 12.7019 5.60218 12.7888C5.95049 12.8959 6.26271 12.9495 6.53886 12.9495C6.35476 13.0832 6.08193 13.2572 5.72037 13.4714C5.41808 13.6321 5.12224 13.7726 4.83284 13.8928C4.49079 13.9999 4.162 14.0834 3.84646 14.1434C3.53755 14.1969 3.18574 14.2237 2.79104 14.2237H2.40665C2.34737 14.217 2.28496 14.2136 2.21942 14.2136C2.21279 14.2136 2.15039 14.2069 2.0322 14.1934H2.07141C2.46574 14.4342 2.80761 14.6215 3.09701 14.7552C3.40592 14.9024 3.78074 15.0496 4.22146 15.1968C4.58965 15.3039 4.99393 15.3908 5.43428 15.4575C5.82862 15.5178 6.24283 15.548 6.67693 15.548H6.68687C7.42988 15.548 8.09391 15.4845 8.67897 15.3575C9.31667 15.2238 9.88535 15.0298 10.385 14.7754C10.9174 14.5211 11.4137 14.2202 11.8739 13.8726C12.3408 13.5246 12.742 13.1534 13.0774 12.759C13.4456 12.3376 13.7677 11.8962 14.0439 11.4348C14.3068 10.9868 14.5369 10.5019 14.7342 9.98016C14.9183 9.47863 15.0564 8.97035 15.1485 8.45533C15.2405 7.92683 15.2865 7.42193 15.2865 6.94062V6.55914C15.3127 6.54565 15.3751 6.49883 15.4738 6.41868C15.5791 6.33852 15.6612 6.26829 15.7201 6.20799C15.8581 6.08776 15.9896 5.96396 16.1144 5.83661C16.2131 5.73623 16.3281 5.60252 16.4596 5.43546C16.6043 5.24144 16.7063 5.10098 16.7656 5.01409L16.7854 4.99274Z" fill="#1DA1F2"/>
</svg>
