<svg width="19" height="19" viewBox="0 0 19 19" fill="none" xmlns="http://www.w3.org/2000/svg">
<path d="M8.03102 11.7651V6.97934L12.272 9.37726L8.03102 11.7651ZM17.3415 6.1467L17.2034 5.50452C17.1508 5.27716 17.0883 5.07659 17.0162 4.90279C16.9308 4.72226 16.8321 4.57506 16.7201 4.46119C16.5755 4.29414 16.4274 4.15368 16.2761 4.03981C16.1579 3.9664 16.0068 3.90291 15.8227 3.84935C15.7965 3.84935 15.6651 3.82594 15.4284 3.77912C15.3297 3.7589 15.2376 3.74878 15.1522 3.74878C14.6198 3.7087 14.3337 3.68867 14.294 3.68867C13.9784 3.65533 13.6662 3.63866 13.3573 3.63866C13.055 3.62518 12.7459 3.61507 12.43 3.60832C11.9038 3.59484 11.6211 3.5881 11.5817 3.5881C11.0953 3.57461 10.8422 3.56787 10.8223 3.56787H8.47506C8.45518 3.56787 8.20867 3.57461 7.73555 3.5881C7.6829 3.5881 7.39368 3.59484 6.86791 3.60832C6.55237 3.61507 6.24327 3.62518 5.94062 3.63866C5.62508 3.63866 5.31285 3.65533 5.00394 3.68867C4.96454 3.68867 4.67846 3.7087 4.14568 3.74878C4.07978 3.74878 3.98773 3.7589 3.86954 3.77912H3.84966C3.82978 3.78586 3.80511 3.79261 3.77565 3.79935C3.7462 3.80609 3.71821 3.81283 3.6917 3.81957L3.46471 3.84991C3.29387 3.89673 3.14586 3.96022 3.02068 4.04038C2.84984 4.16735 2.69869 4.30781 2.56725 4.46175C2.46195 4.56888 2.36658 4.71608 2.28116 4.90336C2.19574 5.11086 2.13002 5.31144 2.084 5.50508L1.94593 6.14726L1.87689 7.01024C1.84412 7.24434 1.82111 7.54193 1.80785 7.903C1.80123 8.04346 1.79791 8.37794 1.79791 8.90644V10.2105C1.79791 10.7255 1.80123 11.0532 1.80785 11.1937C1.82111 11.5682 1.84412 11.8726 1.87689 12.1067L1.94593 12.9595L2.084 13.6118C2.12339 13.7658 2.18912 13.9598 2.28116 14.1939C2.35996 14.3677 2.45532 14.5182 2.56725 14.6456C2.69869 14.7793 2.85646 14.9164 3.04056 15.0569C3.18526 15.1438 3.34965 15.2072 3.53375 15.2473C3.59966 15.2608 3.64568 15.2676 3.67182 15.2676L3.84911 15.2979C3.90176 15.2979 3.94115 15.3046 3.9673 15.3181L4.31247 15.3883L4.90397 15.4187C4.91723 15.4187 4.93858 15.4204 4.96804 15.4237C4.99749 15.4271 5.03855 15.4305 5.0912 15.4339C5.14385 15.4372 5.1965 15.4389 5.24915 15.4389C5.37397 15.4389 5.51536 15.4457 5.67331 15.4591C5.69945 15.4591 5.85059 15.4659 6.12674 15.4794C6.29095 15.4794 6.43896 15.4861 6.57078 15.4996H7.00487C7.24825 15.4996 7.39939 15.503 7.4583 15.5097H8.28673C8.62878 15.5363 8.86221 15.5496 8.98703 15.5496H10.8212C11.0185 15.5361 11.2717 15.5294 11.5806 15.5294C11.62 15.5294 11.74 15.5243 11.9407 15.5142C12.1413 15.5041 12.3041 15.4957 12.4289 15.4889C12.5997 15.4889 12.7542 15.4855 12.8922 15.4788H13.3556C13.6056 15.4788 13.9178 15.4588 14.2923 15.4187C14.5025 15.4119 14.7886 15.3953 15.1506 15.3687C15.2227 15.3485 15.3148 15.3318 15.4267 15.3187C15.6634 15.2719 15.7949 15.2484 15.821 15.2484C16.0051 15.1949 16.1563 15.1314 16.2745 15.058C16.3926 14.9778 16.5407 14.8407 16.7185 14.6467C16.8433 14.5063 16.942 14.3557 17.0145 14.195C17.0672 14.068 17.1296 13.874 17.2017 13.6129L17.3398 12.9607L17.4188 12.1078C17.4449 11.9606 17.4646 11.6563 17.4779 11.1948C17.4911 10.633 17.4978 10.3052 17.4978 10.2116V8.90756C17.4978 8.81392 17.4911 8.48619 17.4779 7.92435C17.4713 7.83745 17.463 7.68201 17.453 7.45803C17.4431 7.23404 17.4348 7.08515 17.4282 7.01137L17.3415 6.1467Z" fill="#FF0000"/>
</svg>
