<svg width="18" height="19" viewBox="0 0 18 19" fill="none" xmlns="http://www.w3.org/2000/svg">
<g clip-path="url(#clip0)">
<path d="M18 9.98886C18 5.0292 13.9624 0.993896 9 0.993896C4.03756 0.993896 0 5.0292 0 9.98886C0 12.6085 1.12713 14.9698 2.92124 16.615L2.91273 16.6226L3.20465 16.8685C3.22364 16.8846 3.24425 16.8976 3.26324 16.9134C3.41836 17.0419 3.57905 17.1639 3.74269 17.282C3.79571 17.3202 3.84873 17.3585 3.90273 17.3958C4.07749 17.5162 4.25684 17.6303 4.44011 17.7386C4.48004 17.7621 4.52029 17.785 4.56055 17.8079C4.76116 17.9221 4.96604 18.0297 5.17582 18.1285C5.1912 18.1357 5.20691 18.1422 5.22229 18.1494C5.90596 18.467 6.63578 18.7002 7.39898 18.8379C7.41894 18.8415 7.43891 18.8451 7.4592 18.8487C7.69615 18.8896 7.93571 18.9223 8.17822 18.9443C8.20767 18.9469 8.23713 18.9485 8.26691 18.9511C8.50844 18.9711 8.75258 18.9838 9 18.9838C9.24513 18.9838 9.48698 18.9711 9.7272 18.9518C9.75764 18.9492 9.78807 18.9475 9.81851 18.9449C10.0591 18.923 10.2967 18.8913 10.5313 18.851C10.5516 18.8474 10.5722 18.8438 10.5925 18.8399C11.3443 18.7051 12.0636 18.4772 12.7384 18.1677C12.7633 18.1563 12.7885 18.1455 12.8134 18.1337C13.0153 18.0389 13.2127 17.9365 13.4061 17.8276C13.4542 17.8004 13.502 17.7729 13.5497 17.7448C13.7258 17.6411 13.8989 17.5329 14.0672 17.4177C14.1277 17.3765 14.1869 17.333 14.2468 17.2898C14.3905 17.1865 14.5316 17.0798 14.6687 16.9683C14.6991 16.9438 14.7319 16.9225 14.7616 16.8973L15.0611 16.6474L15.0523 16.6399C16.8621 14.994 18 12.6219 18 9.98886ZM0.654545 9.98886C0.654545 5.38965 4.39822 1.64808 9 1.64808C13.6018 1.64808 17.3455 5.38965 17.3455 9.98886C17.3455 12.4672 16.2573 14.6954 14.5345 16.2242C14.4383 16.1578 14.3414 16.0982 14.2423 16.0485L11.4712 14.664C11.2225 14.5397 11.068 14.2898 11.068 14.0121V13.0449C11.1322 12.9657 11.1999 12.8761 11.27 12.7776C11.6287 12.2713 11.9163 11.708 12.1261 11.1019C12.5408 10.905 12.8085 10.4923 12.8085 10.0262V8.86662C12.8085 8.58303 12.7044 8.30795 12.5182 8.09174V6.56522C12.5352 6.39546 12.5954 5.43741 11.9019 4.64716C11.2988 3.95896 10.3225 3.61061 9 3.61061C7.67749 3.61061 6.70124 3.95896 6.09807 4.64683C5.40458 5.43708 5.4648 6.39513 5.48182 6.56489V8.09141C5.29593 8.30762 5.19153 8.5827 5.19153 8.86629V10.0258C5.19153 10.3859 5.3532 10.7219 5.63007 10.9485C5.89516 11.9864 6.44073 12.7721 6.64233 13.0383V13.9849C6.64233 14.2518 6.49669 14.4971 6.26204 14.6254L3.67429 16.0361C3.59182 16.0809 3.51 16.1332 3.42818 16.1918C1.72669 14.6636 0.654545 12.4492 0.654545 9.98886ZM13.8957 16.7374C13.7811 16.8205 13.6646 16.9009 13.5465 16.9778C13.4921 17.0131 13.4381 17.0484 13.3828 17.0828C13.2284 17.1783 13.0713 17.2692 12.9109 17.3543C12.8756 17.3729 12.8399 17.3906 12.8042 17.4089C12.4357 17.5976 12.0544 17.7599 11.6627 17.8917C11.6489 17.8963 11.6352 17.9012 11.6211 17.9057C11.4159 17.9738 11.2081 18.0343 10.998 18.0863C10.9973 18.0863 10.9967 18.0866 10.996 18.0866C10.784 18.139 10.5693 18.1825 10.3533 18.2181C10.3474 18.2191 10.3415 18.2204 10.3356 18.2214C10.1324 18.2544 9.92749 18.2783 9.72196 18.2963C9.68564 18.2996 9.64931 18.3018 9.61265 18.3045C9.40942 18.3198 9.2052 18.3296 9 18.3296C8.79251 18.3296 8.58567 18.3195 8.37982 18.3041C8.34414 18.3015 8.30847 18.2992 8.27313 18.296C8.06564 18.2776 7.85913 18.2531 7.65458 18.2197C7.64542 18.2181 7.63625 18.2165 7.62709 18.2148C7.19444 18.1426 6.76865 18.0362 6.354 17.8972C6.34124 17.893 6.32815 17.8884 6.31538 17.8842C6.10953 17.8142 5.90596 17.7366 5.706 17.6509C5.70469 17.6503 5.70305 17.6496 5.70175 17.649C5.51258 17.5675 5.32702 17.4773 5.14375 17.3821C5.11985 17.3696 5.09564 17.3579 5.07207 17.3451C4.90484 17.2558 4.7412 17.1593 4.57985 17.0586C4.53207 17.0285 4.48462 16.9981 4.43749 16.9673C4.28891 16.8702 4.14229 16.7691 3.9996 16.6621C3.98487 16.651 3.9708 16.6392 3.95607 16.6281C3.96655 16.6222 3.97702 16.6164 3.98749 16.6105L6.57524 15.1997C7.02033 14.957 7.29687 14.4916 7.29687 13.9849L7.29655 12.8067L7.22127 12.7158C7.21407 12.7076 6.50651 11.8474 6.23913 10.6826L6.20934 10.5531L6.09775 10.4808C5.94033 10.3791 5.84607 10.209 5.84607 10.0255V8.86596C5.84607 8.71387 5.91055 8.57224 6.02836 8.46593L6.13636 8.36846V6.54657L6.13342 6.50372C6.13244 6.49587 6.03589 5.70922 6.59029 5.07761C7.06353 4.53857 7.87451 4.26479 9 4.26479C10.1212 4.26479 10.9296 4.53628 11.4041 5.0714C11.9579 5.69646 11.8672 6.49783 11.8666 6.50438L11.8636 8.36911L11.9716 8.46659C12.0891 8.57256 12.1539 8.71452 12.1539 8.86662V10.0262C12.1539 10.2594 11.9952 10.471 11.7674 10.5413L11.6048 10.5914L11.5524 10.7533C11.3593 11.3528 11.0844 11.9066 10.7355 12.3992C10.6498 12.5202 10.5663 12.6275 10.4947 12.7096L10.4135 12.8022V14.0121C10.4135 14.5393 10.7067 15.0136 11.1787 15.2491L13.9497 16.6337C13.9673 16.6425 13.9847 16.6517 14.002 16.6608C13.967 16.6873 13.931 16.7119 13.8957 16.7374Z" fill="white"/>
</g>
<defs>
<clipPath id="clip0">
<rect width="18" height="17.9899" fill="white" transform="translate(0 0.993896)"/>
</clipPath>
</defs>
</svg>
