<svg width="18" height="19" viewBox="0 0 18 19" fill="none" xmlns="http://www.w3.org/2000/svg">
<g clip-path="url(#clip0)">
<path d="M16.125 17.4841H1.875C0.825 17.4841 0 16.6595 0 15.6101V6.61516C0 5.56575 0.825 4.74121 1.875 4.74121H16.125C17.175 4.74121 18 5.56575 18 6.61516V15.6101C18 16.6595 17.175 17.4841 16.125 17.4841ZM1.875 5.49079C1.275 5.49079 0.75 6.0155 0.75 6.61516V15.6101C0.75 16.2098 1.275 16.7345 1.875 16.7345H16.125C16.725 16.7345 17.25 16.2098 17.25 15.6101V6.61516C17.25 6.0155 16.725 5.49079 16.125 5.49079H1.875Z" fill="white"/>
<path d="M11.6251 5.49161C11.4001 5.49161 11.2501 5.34169 11.2501 5.11682V3.61766C11.2501 3.39278 11.1001 3.24287 10.8751 3.24287H7.12506C6.90006 3.24287 6.75006 3.39278 6.75006 3.61766V5.11682C6.75006 5.34169 6.60006 5.49161 6.37506 5.49161C6.15006 5.49161 6.00006 5.34169 6.00006 5.11682V3.61766C6.00006 3.01799 6.52506 2.49329 7.12506 2.49329H10.8751C11.4751 2.49329 12.0001 3.01799 12.0001 3.61766V5.11682C12.0001 5.34169 11.8501 5.49161 11.6251 5.49161Z" fill="white"/>
<path d="M8.99993 11.4874C8.92493 11.4874 8.92493 11.4874 8.84993 11.4874L0.224929 8.48912C0.0749294 8.41416 -0.0750706 8.18928 -7.0557e-05 7.96441C0.0749294 7.81449 0.299929 7.66458 0.524929 7.73954L8.99993 10.7379L17.4749 7.73954C17.6999 7.66458 17.8499 7.73954 17.9249 7.96441C17.9999 8.18928 17.9249 8.3392 17.6999 8.41416L9.07493 11.4125C9.07493 11.4874 9.07493 11.4874 8.99993 11.4874Z" fill="white"/>
</g>
<defs>
<clipPath id="clip0">
<rect width="18" height="17.9899" fill="white" transform="translate(0 0.993286)"/>
</clipPath>
</defs>
</svg>
