<svg width="62" height="53" viewBox="0 0 62 53" fill="none" xmlns="http://www.w3.org/2000/svg">
<path d="M18.1088 17.7622C17.7784 16.888 17.0726 16.1477 16.0979 15.6411L16.1327 15.4998C16.2432 15.0496 16.0427 14.597 15.5963 14.2889C15.1498 13.9808 14.5368 13.8724 13.957 13.9987L9.19616 15.0349C8.61614 15.1612 8.17234 15.4997 8.00899 15.9405C7.8455 16.3814 7.99174 16.8458 8.39985 17.183L8.52791 17.2888C8.05564 18.1108 7.97437 19.0233 8.30441 19.8962C8.68004 20.89 9.54304 21.7132 10.7345 22.2144C11.5017 22.537 12.3457 22.7012 13.1992 22.7012C13.6713 22.7012 14.1463 22.651 14.6127 22.5495C17.3157 21.9609 18.8841 19.8134 18.1088 17.7622ZM14.0794 15.555L13.2481 18.9389L10.1795 16.4039L14.0794 15.555ZM14.0598 21.0868C13.2654 21.2597 12.4295 21.1874 11.7064 20.8834C10.9834 20.5792 10.4597 20.0797 10.2317 19.4767C10.1235 19.1903 10.0904 18.8971 10.1261 18.6091L12.1457 20.2777C12.4794 20.5533 12.9387 20.7028 13.4143 20.7028C13.5742 20.7028 13.7359 20.6859 13.8952 20.6512C14.5286 20.5133 14.9971 20.1223 15.1178 19.6308L15.665 17.4036C15.8961 17.6333 16.0731 17.8949 16.1814 18.1815C16.6519 19.4265 15.7001 20.7297 14.0598 21.0868Z" fill="#115C07"/>
<path d="M61.1801 4.82747C60.8694 4.39038 60.3259 4.07441 59.6889 3.96039L49.865 2.2023C49.2281 2.08819 48.5557 2.18679 48.0204 2.47253C47.4851 2.75817 47.1357 3.2051 47.0618 3.69848L46.4203 7.97674L42.6062 4.39251C42.5054 4.29787 42.3941 4.21205 42.2739 4.13557C42.5113 3.86616 42.5025 3.50038 42.22 3.23492C41.8722 2.9081 41.2408 2.85697 40.8101 3.12101L32.732 8.07078C32.3011 8.33471 32.2339 8.81369 32.5819 9.14062C32.78 9.32676 33.0699 9.42342 33.3624 9.42342C33.4867 9.42342 33.6109 9.40395 33.7293 9.36845C33.8028 9.47434 33.8904 9.57568 33.9917 9.67093L35.7397 11.3137C35.9378 11.4998 36.2277 11.5965 36.5203 11.5965C36.7414 11.5965 36.9642 11.5412 37.1496 11.4276C37.5804 11.1637 37.6476 10.6848 37.2998 10.3577L35.5517 8.71489C35.4551 8.62411 35.4524 8.52703 35.4595 8.47723C35.4664 8.42753 35.4961 8.33289 35.6158 8.25955L40.4457 5.29985C40.5655 5.22641 40.6936 5.22398 40.7591 5.22986C40.8247 5.23514 40.9493 5.25755 41.0459 5.34844L46.1016 10.0994L45.8098 12.0441C45.8092 12.0476 45.8094 12.051 45.8088 12.0545L45.7313 12.5714L42.3854 14.6215C42.2659 14.6948 42.1379 14.697 42.0722 14.6915C42.0065 14.6862 41.882 14.6638 41.7853 14.5729L40.2519 13.1319C39.9041 12.8051 39.2727 12.7541 38.842 13.018C38.4112 13.282 38.344 13.7609 38.6919 14.0878L40.2253 15.5288C40.3261 15.6235 40.4375 15.7092 40.5576 15.7857C40.3202 16.0551 40.3289 16.4209 40.6115 16.6864C40.8096 16.8726 41.0996 16.9692 41.392 16.9692C41.6131 16.9692 41.8358 16.914 42.0214 16.8003L45.4086 14.7248L45.2827 15.5649L44.7532 17.2686C44.4631 18.2019 45.2277 19.1404 46.4577 19.3605L52.6339 20.4657C52.8101 20.4973 52.9878 20.5128 53.1643 20.5128C53.585 20.5128 53.9986 20.4243 54.3653 20.2523C54.886 20.0081 55.2501 19.6245 55.3906 19.1724L55.9201 17.4685L61.3156 6.24939C61.5402 5.78279 61.4908 5.26465 61.1801 4.82747ZM49.1739 3.71705C49.2132 3.69605 49.2958 3.66369 49.4046 3.68327L59.2287 5.44136C59.3378 5.46083 59.3924 5.51774 59.4153 5.54979C59.4382 5.58184 59.4708 5.64778 59.4323 5.72761L58.6142 7.42859L48.7843 5.66948L49.0541 3.87042C49.0666 3.78592 49.1346 3.73804 49.1739 3.71705ZM55.9424 12.9835L47.9034 11.5449L48.556 7.19194L57.9219 8.86796L55.9424 12.9835ZM54.3214 16.3544L47.3688 15.1102L47.6751 13.0674L55.2502 14.423L54.3214 16.3544ZM53.3109 18.9582C53.2647 18.9797 53.1895 19.0018 53.0942 18.9849L46.9178 17.8796C46.7639 17.8521 46.6684 17.7347 46.7046 17.6179L47.0177 16.6107L53.752 17.8158L53.4389 18.823C53.4166 18.8956 53.3568 18.9365 53.3109 18.9582Z" fill="#115C07"/>
<path d="M27.4586 38.0299C27.3969 37.3611 26.9958 36.7507 26.329 36.3108C25.6622 35.8709 24.8099 35.6535 23.9285 35.7013C23.0471 35.7481 22.2425 36.0524 21.6631 36.5584C21.0834 37.0643 20.7982 37.7113 20.8598 38.3801L21.5412 45.7734C21.6028 46.4422 22.0039 47.0527 22.6707 47.4926C23.2779 47.8931 24.0389 48.1083 24.8357 48.1083C24.9139 48.1083 24.9925 48.1062 25.0712 48.102H25.0714C26.8904 48.0055 28.267 46.8037 28.1399 45.4232L27.4586 38.0299ZM24.9312 46.5843C24.5844 46.6021 24.2485 46.5173 23.9861 46.3443C23.7235 46.1711 23.5655 45.9307 23.5413 45.6672L22.86 38.2739C22.8357 38.0106 22.9481 37.7559 23.1763 37.5567C23.4045 37.3575 23.7213 37.2376 24.0684 37.2192C24.0994 37.2176 24.1304 37.2168 24.1612 37.2168C24.4748 37.2168 24.7744 37.3016 25.0134 37.4593C25.2759 37.6325 25.4339 37.8729 25.4581 38.1363L26.1393 45.5296C26.1896 46.073 25.6475 46.5462 24.9312 46.5843Z" fill="#115C07"/>
<path d="M17.4256 37.8829C17.1717 36.5124 15.4964 35.5544 13.69 35.7467C11.8842 35.9393 10.6214 37.2111 10.8752 38.5815L12.2343 45.9208C12.3573 46.5846 12.8135 47.1725 13.5191 47.5759C14.0987 47.9074 14.7894 48.0818 15.5025 48.0818C15.6575 48.0818 15.8136 48.0735 15.9697 48.0569C16.8445 47.9635 17.6191 47.6173 18.1508 47.082C18.6825 46.5466 18.9075 45.8861 18.7845 45.2221L17.4256 37.8829ZM16.5496 46.1663C16.3403 46.3771 16.0352 46.5134 15.6909 46.5501C15.3463 46.5863 15.0038 46.5195 14.726 46.3607C14.4482 46.2019 14.2686 45.9704 14.2201 45.709L12.861 38.3697C12.761 37.8302 13.2583 37.3293 13.9693 37.2535C14.0305 37.247 14.0913 37.2437 14.1515 37.2437C14.7898 37.2437 15.3489 37.6013 15.4402 38.0946L16.7993 45.434C16.8476 45.6954 16.7589 45.9555 16.5496 46.1663Z" fill="#115C07"/>
<path d="M34.7938 35.7012C33.9128 35.654 33.0599 35.8709 32.3931 36.3106C31.7265 36.7505 31.3253 37.361 31.2636 38.0298L30.5824 45.4231C30.4551 46.8035 31.8317 48.0054 33.6509 48.102H33.651C33.7298 48.1062 33.8084 48.1083 33.8866 48.1083C34.6833 48.1083 35.4444 47.893 36.0516 47.4925C36.7183 47.0527 37.1195 46.4422 37.1811 45.7734L37.8623 38.3801C37.924 37.7113 37.6387 37.0643 37.0591 36.5584C36.4796 36.0523 35.675 35.7479 34.7938 35.7012ZM35.862 38.2738L35.1808 45.6671C35.1566 45.9305 34.9986 46.1709 34.7361 46.3441C34.4737 46.5173 34.1373 46.6013 33.791 46.5841C33.0746 46.5461 32.5326 46.0728 32.5827 45.5293L33.2639 38.136C33.2881 37.8726 33.4461 37.6322 33.7086 37.4591C33.971 37.2858 34.307 37.2015 34.6539 37.2191C35.0009 37.2375 35.3176 37.3573 35.5459 37.5566C35.7741 37.7558 35.8863 38.0105 35.862 38.2738Z" fill="#115C07"/>
<path d="M41.2963 37.8827L39.9371 45.2221C39.8142 45.886 40.0392 46.5465 40.571 47.0819C41.1026 47.6172 41.8771 47.9634 42.752 48.0568C42.9081 48.0734 43.0643 48.0817 43.2192 48.0817C43.9324 48.0817 44.6232 47.9073 45.2027 47.5758C45.9082 47.1723 46.3644 46.5845 46.4874 45.9207L47.8466 38.5815C48.1003 37.2109 46.8377 35.9392 45.0317 35.7467C44.1568 35.6531 43.2864 35.8242 42.581 36.2276C41.8755 36.631 41.4193 37.2189 41.2963 37.8827ZM43.7877 37.4428C44.0655 37.284 44.408 37.2167 44.7527 37.2534C45.4637 37.3293 45.961 37.8301 45.861 38.3697L44.5019 45.7089C44.402 46.2486 43.7415 46.6261 43.031 46.5501C42.32 46.4742 41.8227 45.9735 41.9227 45.4339L43.2818 38.0945C43.3303 37.8331 43.5099 37.6016 43.7877 37.4428Z" fill="#115C07"/>
<path d="M54.2757 25.4544H42.271L44.6612 22.2293C44.74 22.1228 44.8041 22.012 44.8534 21.8985C44.9222 21.9096 44.9916 21.9164 45.0607 21.9164C45.4112 21.9164 45.7514 21.7768 45.9355 21.5286C46.2069 21.1623 46.0358 20.6984 45.553 20.4925L36.5029 16.6305C36.0202 16.4247 35.4089 16.5545 35.1377 16.9206C34.9171 17.2183 34.9889 17.5805 35.2827 17.8162C35.1815 17.9061 35.0897 18.0042 35.0105 18.111L33.53 20.1089V12.5096C33.53 10.7407 31.6335 9.30178 29.3025 9.30178C26.9714 9.30178 25.0749 10.7408 25.0749 12.5096V17.3961C25.0749 17.8163 25.5238 18.1568 26.0775 18.1568C26.6312 18.1568 27.0801 17.8163 27.0801 17.3961V12.5096C27.0801 11.5798 28.077 10.8233 29.3025 10.8233C30.5279 10.8233 31.5248 11.5798 31.5248 12.5096V31.4302C31.5248 32.3601 30.5279 33.1166 29.3025 33.1166C28.077 33.1166 27.0801 32.3601 27.0801 31.4302V20.9864C27.0801 20.5661 26.6312 20.2256 26.0775 20.2256C25.5238 20.2256 25.0749 20.5661 25.0749 20.9864V25.4543H24.5683L20.0193 13.4191C19.9856 13.3301 19.945 13.2433 19.8997 13.1582L24.1387 7.4384C24.2176 7.33189 24.2816 7.22112 24.3309 7.10772C24.3998 7.11878 24.469 7.12567 24.5381 7.12567C24.8886 7.12567 25.2288 6.986 25.4129 6.73768C25.6842 6.3715 25.5131 5.90763 25.0304 5.70172L15.9803 1.83985C15.4976 1.63394 14.8863 1.76377 14.6151 2.13006C14.3945 2.42767 14.4663 2.7898 14.76 3.02553C14.6588 3.1153 14.5671 3.21339 14.4879 3.32031L12.6392 5.81482L12.1836 4.61006C12.2041 4.58501 12.226 4.56097 12.2449 4.535C12.5416 4.12875 12.6121 3.659 12.4432 3.21258L11.9807 1.98866C11.6322 1.06681 10.3608 0.532443 9.14571 0.796481L4.25838 1.86024C3.66994 1.98835 3.18243 2.28262 2.88566 2.68897C2.5889 3.09532 2.51846 3.56497 2.68729 4.01149L3.14994 5.23531C3.31877 5.68173 3.7067 6.05177 4.24207 6.27696C4.2767 6.29157 4.31199 6.30485 4.34728 6.31804L5.19652 8.56393C5.30426 8.84836 5.50424 9.10215 5.77079 9.30665L5.99377 10.122C6.3833 11.5484 5.94524 13.0335 4.79175 14.1971L4.43657 14.5559C3.76592 15.2324 3.5487 16.1227 3.85562 16.9381L7.0748 25.4545H4.3291C1.94205 25.4545 0 26.9281 0 28.7395C0 30.551 1.94205 32.0246 4.3291 32.0246H4.47788L7.4392 50.2786C7.6599 51.6386 9.18795 52.6641 10.9935 52.6641H47.6113C49.4169 52.6641 50.9449 51.6387 51.1656 50.2786L54.1269 32.0246H54.2757C56.6627 32.0246 58.6048 30.551 58.6048 28.7395C58.6048 26.9281 56.6627 25.4544 54.2757 25.4544ZM36.7582 18.8567C36.8735 18.701 37.1343 18.6455 37.3395 18.7332L42.7508 21.0425C42.8849 21.0997 42.9347 21.1891 42.9525 21.2373C42.9703 21.2856 42.9889 21.3817 42.9135 21.4835L39.9706 25.4544H33.5298V23.2129L36.7582 18.8567ZM16.2355 4.06606C16.3509 3.91046 16.6112 3.85498 16.8167 3.94251L22.2281 6.2517C22.4332 6.33924 22.5062 6.53704 22.3909 6.69275L18.5347 11.8959C18.3248 11.7914 18.1005 11.7024 17.8631 11.6331L17.3105 11.472C15.5214 10.9493 14.1132 9.86617 13.4471 8.50064L13.2494 8.0951L16.2355 4.06606ZM7.31074 8.29148C7.21984 8.26845 7.14993 8.21317 7.12373 8.14389L6.43744 6.32889L10.4198 5.46212L11.1062 7.27783C11.1248 7.32682 11.1184 7.37845 11.0914 7.4245C11.0898 7.42714 11.0886 7.42988 11.0871 7.43262C11.0772 7.44783 11.065 7.46244 11.0503 7.47593L9.67146 8.73911C9.59526 8.8089 9.47335 8.83558 9.36026 8.80718L7.31074 8.29148ZM4.63949 3.42641C4.66583 3.3905 4.71689 3.34333 4.81127 3.32274L9.69873 2.25908C9.7272 2.2529 9.75407 2.25036 9.77894 2.25036C9.83655 2.25036 9.88374 2.26406 9.91676 2.27785C9.96408 2.29783 10.0262 2.33658 10.0532 2.40809L10.5158 3.63202C10.5429 3.70353 10.5172 3.76145 10.4909 3.79746C10.4647 3.83337 10.4136 3.88044 10.3194 3.90103L10.3193 3.90113L5.43192 4.96489C5.33728 4.98507 5.26122 4.9659 5.2139 4.94602C5.16658 4.92604 5.10442 4.88729 5.07742 4.81567L4.61476 3.59185C4.58749 3.52034 4.61316 3.46242 4.63949 3.42641ZM5.78323 16.5192C5.64808 16.1603 5.74366 15.7681 6.03922 15.4699L6.39439 15.1112C7.82406 13.6691 8.40608 11.8467 8.01842 10.0726L8.72918 10.2514C8.96926 10.3119 9.21455 10.3412 9.45678 10.3412C10.1246 10.3411 10.7688 10.1183 11.215 9.71026L11.6946 9.27084C12.6047 10.9313 14.371 12.2434 16.5908 12.892L17.1437 13.0532C17.6017 13.1869 17.9563 13.4808 18.092 13.839L22.4823 25.4544H9.16068L5.78323 16.5192ZM2.00514 28.7394C2.00514 27.7671 3.04768 26.976 4.3291 26.976H25.0748V30.503H4.3291C3.04768 30.503 2.00514 29.7119 2.00514 28.7394ZM54.2757 30.503H44.7109C44.1572 30.503 43.7083 30.8435 43.7083 31.2638C43.7083 31.684 44.1572 32.0245 44.7109 32.0245H52.1066L49.1755 50.0927C49.0784 50.6911 48.406 51.1424 47.6113 51.1424H10.9935C10.1988 51.1424 9.52629 50.6912 9.42924 50.0927L6.49813 32.0245H25.1487C25.5171 33.5104 27.2389 34.6383 29.3023 34.6383C31.3657 34.6383 33.0875 33.5105 33.4559 32.0245H39.9794C40.5331 32.0245 40.982 31.684 40.982 31.2638C40.982 30.8435 40.5331 30.503 39.9794 30.503H33.5298V26.976H54.2757C55.5571 26.976 56.5996 27.7671 56.5996 28.7394C56.5996 29.7119 55.5571 30.503 54.2757 30.503Z" fill="#115C07"/>
</svg>
