<svg width="18" height="19" viewBox="0 0 18 19" fill="none" xmlns="http://www.w3.org/2000/svg">
<g clip-path="url(#clip0)">
<path d="M9 5.42114C8.80595 5.42114 8.64844 5.57866 8.64844 5.77271C8.64844 5.96675 8.80595 6.12427 9 6.12427C9.19405 6.12427 9.35156 5.96675 9.35156 5.77271C9.35156 5.57866 9.19405 5.42114 9 5.42114Z" fill="white"/>
<path d="M3.16406 11.7461C3.35811 11.7461 3.51562 11.5886 3.51562 11.3945C3.51562 11.2005 3.35811 11.043 3.16406 11.043C2.97002 11.043 2.8125 11.2005 2.8125 11.3945C2.8125 11.5886 2.97002 11.7461 3.16406 11.7461Z" fill="white"/>
<path d="M11.8125 1.90796C8.64748 1.90796 6.04976 4.0889 5.84885 6.836C2.83461 6.98712 0 9.15941 0 12.0976C0 13.3254 0.486145 14.5151 1.37109 15.4578C1.54619 16.1792 1.3336 16.9438 0.806122 17.471C0.705597 17.5715 0.675522 17.7226 0.729904 17.8539C0.784286 17.9851 0.912415 18.0708 1.05469 18.0708C2.05733 18.0708 3.02357 17.6778 3.74153 16.9854C4.44095 17.2237 5.3535 17.3681 6.1875 17.3681C9.35211 17.3681 11.9496 15.1877 12.151 12.4411C12.8871 12.4084 13.6527 12.2726 14.2585 12.0663C14.9764 12.7587 15.9427 13.1517 16.9453 13.1517C17.0876 13.1517 17.2157 13.066 17.2701 12.9348C17.3245 12.8035 17.2944 12.6523 17.1939 12.5519C16.6664 12.0247 16.4538 11.2601 16.6289 10.5387C17.5139 9.59601 18 8.40631 18 7.17845C18 4.12554 14.947 1.90796 11.8125 1.90796ZM6.1875 16.6653C5.35776 16.6653 4.41225 16.5025 3.77888 16.2507C3.6432 16.1966 3.48816 16.2322 3.38942 16.3399C2.96494 16.8037 2.41301 17.127 1.81165 17.2757C2.14302 16.6412 2.22762 15.8931 2.02602 15.1844C2.01009 15.1285 1.98056 15.0775 1.94005 15.0359C1.14244 14.2148 0.703125 13.1713 0.703125 12.0976C0.703125 9.62154 3.2146 7.52981 6.1875 7.52981C8.99478 7.52981 11.4609 9.48085 11.4609 12.0976C11.4609 14.6163 9.09531 16.6653 6.1875 16.6653ZM16.06 10.1167C16.0194 10.1585 15.9899 10.2095 15.974 10.2653C15.7724 10.974 15.857 11.722 16.1884 12.3566C15.587 12.2081 15.0351 11.8846 14.6106 11.4208C14.5118 11.3132 14.3568 11.2775 14.2211 11.3316C13.6722 11.5498 12.8892 11.7009 12.1499 11.7374C12.0472 10.4087 11.384 9.15982 10.2502 8.23254H14.8359C15.0301 8.23254 15.1875 8.07525 15.1875 7.88118C15.1875 7.6871 15.0301 7.52981 14.8359 7.52981H9.17015C8.37213 7.12382 7.47606 6.88706 6.55376 6.83737C6.75577 4.47746 9.03722 2.61069 11.8125 2.61069C14.7854 2.61069 17.2969 4.70242 17.2969 7.17845C17.2969 8.25217 16.8576 9.2957 16.06 10.1167Z" fill="white"/>
<path d="M9 11.043H4.57031C4.37613 11.043 4.21875 11.2003 4.21875 11.3945C4.21875 11.5887 4.37613 11.7461 4.57031 11.7461H9C9.19418 11.7461 9.35156 11.5887 9.35156 11.3945C9.35156 11.2003 9.19418 11.043 9 11.043Z" fill="white"/>
<path d="M9 13.1511H3.16406C2.96988 13.1511 2.8125 13.3085 2.8125 13.5027C2.8125 13.6969 2.96988 13.8542 3.16406 13.8542H9C9.19418 13.8542 9.35156 13.6969 9.35156 13.5027C9.35156 13.3085 9.19418 13.1511 9 13.1511Z" fill="white"/>
<path d="M14.8359 5.42114H10.4062C10.2121 5.42114 10.0547 5.57852 10.0547 5.77271C10.0547 5.96689 10.2121 6.12427 10.4062 6.12427H14.8359C15.0301 6.12427 15.1875 5.96689 15.1875 5.77271C15.1875 5.57852 15.0301 5.42114 14.8359 5.42114Z" fill="white"/>
</g>
<defs>
<clipPath id="clip0">
<rect width="18" height="17.9899" fill="white" transform="translate(0 0.993896)"/>
</clipPath>
</defs>
</svg>
