<svg width="89" height="62" viewBox="0 0 89 62" fill="none" xmlns="http://www.w3.org/2000/svg">
<path d="M88.6497 37.7713L84.1499 30.8969C82.1636 27.8581 78.7882 26.0456 75.1194 26.0456H63.4845V19.357C63.4845 15.2737 60.1608 11.9542 56.0724 11.9542H34.2929C33.0692 5.57939 27.4512 0.742554 20.7171 0.742554C13.0921 0.742554 6.88916 6.93775 6.88916 14.5532C6.88916 19.3405 9.34471 23.5663 13.0611 26.0435H1.41173C0.632488 26.0435 0 26.6732 0 27.4535C0 28.2318 0.630421 28.8635 1.41173 28.8635H15.5187V31.6813H9.87591C9.09667 31.6813 8.46625 32.311 8.46625 33.0913C8.46625 33.8696 9.09667 34.4992 9.87591 34.4992H15.5187V37.3171H1.41173C0.632488 37.3171 0 37.9467 0 38.7271C0 39.5053 0.630421 40.137 1.41173 40.137H15.5187V46.3776C13.0322 47.4738 11.2856 49.9511 11.2856 52.8371V54.2285C11.2856 55.0067 11.9181 55.6384 12.6973 55.6384H25.2107C26.0126 59.0859 29.1089 61.6664 32.8005 61.6664C36.4942 61.6664 39.5884 59.0859 40.3904 55.6384H67.5336C68.3377 59.0859 71.4319 61.6664 75.1235 61.6664C78.8151 61.6664 81.9114 59.0859 82.7134 55.6384H87.4674C88.2466 55.6384 88.877 55.0088 88.877 54.2285V38.5413C88.8791 38.2667 88.7985 37.9983 88.6497 37.7713ZM9.71056 14.5532C9.71056 8.49222 14.6485 3.56043 20.7171 3.56043C26.7877 3.56043 31.7236 8.49222 31.7236 14.5532C31.7236 20.6142 26.7857 25.546 20.7171 25.546C14.6485 25.546 9.71056 20.6142 9.71056 14.5532ZM25.0825 52.8164H14.107C14.1173 50.4857 16.021 48.5886 18.3566 48.5886H27.0854C26.025 49.7343 25.3037 51.1959 25.0825 52.8164ZM32.8005 58.8444C30.0577 58.8444 27.8233 56.6149 27.8233 53.8734C27.8233 51.134 30.0577 48.9024 32.8005 48.9024C35.5454 48.9024 37.7778 51.134 37.7778 53.8734C37.7778 56.6128 35.5454 58.8444 32.8005 58.8444ZM60.6631 52.8164H40.5185C40.2974 51.1959 39.576 49.7343 38.5136 48.5886H60.6631V52.8164ZM60.6631 45.7707H18.3587C18.3525 45.7707 18.3484 45.7728 18.3401 45.7728V40.135H21.1615C21.9407 40.135 22.5732 39.5053 22.5732 38.725C22.5732 37.9467 21.9428 37.315 21.1615 37.315H18.3401V34.4972H28.216C28.9953 34.4972 29.6257 33.8675 29.6257 33.0893C29.6257 32.311 28.9953 31.6793 28.216 31.6793H18.3401V28.8614H36.6802C37.4594 28.8614 38.0919 28.2318 38.0919 27.4514C38.0919 26.6732 37.4594 26.0415 36.6802 26.0415H28.3752C32.0337 23.6014 34.4624 19.4664 34.5368 14.77H56.0744C58.6044 14.77 60.6651 16.8282 60.6651 19.355V45.7707H60.6631ZM75.1235 58.8444C72.3807 58.8444 70.1463 56.6149 70.1463 53.8734C70.1463 51.134 72.3807 48.9024 75.1235 48.9024C77.8684 48.9024 80.1007 51.134 80.1007 53.8734C80.1007 56.6128 77.8684 58.8444 75.1235 58.8444ZM86.0577 52.8164H82.8436C82.3248 49.0221 79.0652 46.0845 75.1256 46.0845C71.186 46.0845 67.9264 49.0221 67.4076 52.8164H63.4865V28.8635H75.1214C77.8333 28.8635 80.326 30.1991 81.7915 32.4369L86.0598 38.9603V52.8164H86.0577Z" fill="#115C07"/>
<path d="M75.1232 56.1798C76.3984 56.1798 77.432 55.1473 77.432 53.8737C77.432 52.6001 76.3984 51.5676 75.1232 51.5676C73.8481 51.5676 72.8145 52.6001 72.8145 53.8737C72.8145 55.1473 73.8481 56.1798 75.1232 56.1798Z" fill="#115C07"/>
<path d="M32.8009 51.5676C31.5276 51.5676 30.4941 52.5999 30.4941 53.8737C30.4941 55.1475 31.5276 56.1798 32.8009 56.1798C34.0762 56.1798 35.1097 55.1475 35.1097 53.8737C35.1097 52.5999 34.0762 51.5676 32.8009 51.5676Z" fill="#115C07"/>
<path d="M22.573 14.5542V8.38957C22.573 7.61125 21.9426 6.98157 21.1613 6.98157C20.382 6.98157 19.7516 7.61125 19.7516 8.38957V14.0959L16.8724 18.0412C16.4135 18.6709 16.552 19.5504 17.1803 20.0087C17.4325 20.1924 17.7219 20.2812 18.0112 20.2812C18.4474 20.2812 18.8752 20.0809 19.1522 19.7011L22.3022 15.3862C22.4779 15.1447 22.573 14.8536 22.573 14.5542Z" fill="#115C07"/>
<path d="M74.6482 30.2717H71.9508C71.1716 30.2717 70.5391 30.9014 70.5391 31.6818V41.5461C70.5391 42.3244 71.1695 42.9561 71.9508 42.9561H81.4464C82.331 42.9561 83.1227 42.4999 83.5671 41.736C84.0115 40.9721 84.0115 40.0575 83.5754 39.2957L80.2806 33.5357C79.1273 31.5228 76.9694 30.2717 74.6482 30.2717ZM73.3605 40.136V33.0898H74.6482C75.9607 33.0898 77.1781 33.7959 77.8272 34.9313L80.8036 40.1339H73.3605V40.136Z" fill="#115C07"/>
</svg>
