<svg width="24" height="21" viewBox="0 0 24 21" fill="none" xmlns="http://www.w3.org/2000/svg">
<path d="M22.6728 10.5428H20.6552V4.71792C20.6552 3.94284 20.0651 3.31231 19.3397 3.31231H16.3036V1.91583C16.3036 1.16439 15.7314 0.553101 15.0282 0.553101H1.27538C0.572156 0.553101 0 1.16439 0 1.91583V2.51671C0 2.72421 0.157406 2.89235 0.351563 2.89235C0.545719 2.89235 0.703125 2.72421 0.703125 2.51671V1.91583C0.703125 1.5787 0.959859 1.30438 1.27538 1.30438H15.0282C15.3437 1.30438 15.6004 1.5787 15.6004 1.91583V13.7467H0.703125V4.27796C0.703125 4.07046 0.545719 3.90232 0.351563 3.90232C0.157406 3.90232 0 4.07046 0 4.27796V17.0112C0 17.7626 0.572156 18.3739 1.27538 18.3739H2.08331C2.26008 19.4037 3.10617 20.1865 4.12022 20.1865C5.13427 20.1865 5.98036 19.4037 6.15713 18.3739H11.7496C11.9438 18.3739 12.1012 18.2058 12.1012 17.9983C12.1012 17.7908 11.9438 17.6227 11.7496 17.6227H6.16495C6.00703 16.5689 5.15025 15.7611 4.12017 15.7611C3.09009 15.7611 2.23336 16.5689 2.07544 17.6227H1.27538C0.959859 17.6227 0.703125 17.3484 0.703125 17.0113V14.498H15.6004V17.6227H13.3622C13.168 17.6227 13.0106 17.7908 13.0106 17.9984C13.0106 18.2059 13.168 18.374 13.3622 18.374H17.9215C18.0983 19.4038 18.9444 20.1865 19.9584 20.1865C20.9724 20.1865 21.8185 19.4038 21.9953 18.374H22.6845C23.4098 18.374 24 17.7434 24 16.9684V11.9609C24 11.179 23.4046 10.5428 22.6728 10.5428ZM4.12017 16.5125C4.87434 16.5125 5.48789 17.168 5.48789 17.9739C5.48789 18.7797 4.87434 19.4353 4.12017 19.4353C3.366 19.4353 2.75245 18.7797 2.75245 17.9739C2.75245 17.168 3.36605 16.5125 4.12017 16.5125ZM19.9584 19.4353C19.2043 19.4353 18.5907 18.7796 18.5907 17.9738C18.5907 17.168 19.2043 16.5124 19.9584 16.5124C20.7126 16.5124 21.3262 17.168 21.3262 17.9738C21.3262 18.7796 20.7126 19.4353 19.9584 19.4353ZM23.2969 13.9976H22.3613C22.1675 13.9976 22.0097 13.8291 22.0097 13.622C22.0097 13.4148 22.1674 13.2463 22.3613 13.2463H23.2969V13.9976ZM23.2969 12.4951H22.3613C21.7798 12.4951 21.3066 13.0006 21.3066 13.622C21.3066 14.2433 21.7797 14.7489 22.3613 14.7489H23.2969V16.9683C23.2969 17.3292 23.0221 17.6227 22.6845 17.6227H22.0032C21.8453 16.5689 20.9885 15.7611 19.9584 15.7611C18.9284 15.7611 18.0716 16.5689 17.9137 17.6227H16.3035V4.0636H19.3397C19.6774 4.0636 19.9521 4.3571 19.9521 4.71792V4.80541H17.5983C17.4042 4.80541 17.2468 4.97355 17.2468 5.18106V10.9185C17.2468 11.126 17.4042 11.2941 17.5983 11.2941H22.6728C23.0169 11.2941 23.2968 11.5933 23.2968 11.9609V12.4951H23.2969ZM19.9521 5.5567V10.5428H17.9499V5.5567H19.9521Z" fill="white"/>
<path d="M18.4114 12.495H17.5986C17.4045 12.495 17.2471 12.6632 17.2471 12.8708C17.2471 13.0785 17.4045 13.2467 17.5986 13.2467H18.4114C18.6056 13.2467 18.763 13.0785 18.763 12.8708C18.763 12.6632 18.6056 12.495 18.4114 12.495Z" fill="white"/>
<path d="M10.214 6.68549C10.4081 6.68549 10.5656 6.51735 10.5656 6.30985C10.5656 6.10234 10.4081 5.9342 10.214 5.9342H8.80859C8.61444 5.9342 8.45703 6.10234 8.45703 6.30985V9.31413C8.45703 9.52163 8.61444 9.68977 8.80859 9.68977H10.214C10.4081 9.68977 10.5656 9.52163 10.5656 9.31413C10.5656 9.10662 10.4081 8.93849 10.214 8.93849H9.16015V8.18765H10.214C10.4081 8.18765 10.5656 8.01952 10.5656 7.81201C10.5656 7.60451 10.4081 7.43637 10.214 7.43637H9.16015V6.68549H10.214Z" fill="white"/>
<path d="M12.9786 6.68549C13.1728 6.68549 13.3302 6.51735 13.3302 6.30985C13.3302 6.10234 13.1728 5.9342 12.9786 5.9342H11.5732C11.3791 5.9342 11.2217 6.10234 11.2217 6.30985V9.31413C11.2217 9.52163 11.3791 9.68977 11.5732 9.68977H12.9786C13.1728 9.68977 13.3302 9.52163 13.3302 9.31413C13.3302 9.10663 13.1728 8.93849 12.9786 8.93849H11.9248V8.18765H12.9786C13.1728 8.18765 13.3302 8.01952 13.3302 7.81201C13.3302 7.60451 13.1728 7.43637 12.9786 7.43637H11.9248V6.68549H12.9786Z" fill="white"/>
<path d="M4.73061 6.68549C4.92476 6.68549 5.08217 6.51735 5.08217 6.30985C5.08217 6.10234 4.92476 5.9342 4.73061 5.9342H3.3252C3.13104 5.9342 2.97363 6.10234 2.97363 6.30985V9.31413C2.97363 9.52163 3.13104 9.68977 3.3252 9.68977C3.51935 9.68977 3.67676 9.52163 3.67676 9.31413V8.18765H4.73061C4.92476 8.18765 5.08217 8.01952 5.08217 7.81201C5.08217 7.60451 4.92476 7.43637 4.73061 7.43637H3.67676V6.68549H4.73061Z" fill="white"/>
<path d="M7.80093 7.81201V6.30985C7.80093 6.10234 7.64352 5.9342 7.44936 5.9342H6.04395C5.84979 5.9342 5.69238 6.10234 5.69238 6.30985V9.31413C5.69238 9.52163 5.84979 9.68977 6.04395 9.68977C6.2381 9.68977 6.39551 9.52163 6.39551 9.31413V8.30265L7.15686 9.52253C7.2246 9.63112 7.33606 9.68982 7.44969 9.68982C7.51672 9.68982 7.58446 9.66938 7.64441 9.62666C7.80594 9.51152 7.84958 9.27832 7.74186 9.10572L7.16886 8.18765H7.44936C7.64352 8.18765 7.80093 8.01947 7.80093 7.81201ZM7.0978 7.43637H6.39551V6.68549H7.0978V7.43637Z" fill="white"/>
</svg>
