<svg width="64" height="44" viewBox="0 0 64 44" fill="none" xmlns="http://www.w3.org/2000/svg">
<path d="M63.0643 8.3231C63.0384 8.31125 63.0125 8.32547 62.9892 8.31362C62.7768 7.99366 62.4427 7.74244 62.0127 7.6666L23.3396 0.753152C23.0547 0.698641 22.7879 0.722341 22.5289 0.814773L1.61106 7.86331C1.39867 7.93441 1.30283 8.11216 1.1552 8.24726C0.945395 8.29703 0.720054 8.26385 0.551696 8.38946C0.196849 8.65254 0 9.04596 0 9.45598V34.9198C0 35.5811 0.512844 36.1523 1.22254 36.2755L40.5277 43.1795C40.6183 43.1984 40.7142 43.2079 40.81 43.2079C40.8385 43.2079 40.8618 43.1866 40.8825 43.1866C40.9162 43.1866 40.9421 43.2079 40.9706 43.2079C41.1415 43.2079 41.3125 43.1795 41.4834 43.1273L62.7095 36.2234C63.3104 36.0314 63.7093 35.5029 63.7093 34.9222V9.45835C63.7015 9.00567 63.4606 8.58617 63.0643 8.3231ZM23.1687 3.5427L57.1822 9.62189L52.1107 11.2691C52.0149 11.2312 51.9734 11.1364 51.8698 11.1198L18.4158 5.14249L23.1687 3.5427ZM39.2948 40.1482L3.01231 33.7798V11.1245L39.2948 17.4976V40.1482ZM40.7893 14.9498L6.94412 9.00567L12.961 6.97928L46.7362 13.0158L40.7893 14.9498ZM60.6866 33.9457L42.4806 39.8709V17.3364L60.6866 11.4136V33.9457Z" fill="#115C07"/>
</svg>
