<svg width="25" height="20" viewBox="0 0 25 20" fill="none" xmlns="http://www.w3.org/2000/svg">
<path d="M22.8027 0.700928H2.19727C0.985693 0.700928 0 1.77941 0 3.10503V17.5297C0 18.8553 0.985693 19.9338 2.19727 19.9338H22.8027C24.0143 19.9338 25 18.8553 25 17.5297V3.10503C25 1.77941 24.0143 0.700928 22.8027 0.700928ZM7.32422 18.331H2.19727C1.79341 18.331 1.46484 17.9716 1.46484 17.5297V8.71462H3.04956C3.41499 9.90844 4.5353 10.6275 5.67085 10.3841L4.51753 12.277C4.29316 12.6452 4.38413 13.1428 4.7207 13.3883C5.05723 13.6337 5.51201 13.5342 5.73638 13.166L7.32422 10.56V18.331ZM4.39453 7.91213C4.39453 7.18256 5.13613 6.74598 5.69263 7.152L6.73623 7.91325L5.69263 8.6745C5.13804 9.07903 4.39453 8.6472 4.39453 7.91213ZM7.32422 6.41586L6.50518 5.81842C5.24067 4.89604 3.52847 5.54777 3.0498 7.11183H1.46484V3.10498C1.46484 2.66316 1.79341 2.30367 2.19727 2.30367H7.32422V6.41586ZM23.5352 17.5297C23.5352 17.9716 23.2066 18.331 22.8027 18.331H8.78906V10.56L10.3769 13.166C10.6016 13.5347 11.0564 13.6335 11.3926 13.3883C11.7292 13.1428 11.8201 12.6452 11.5958 12.277L10.4424 10.3842C11.5728 10.6264 12.6964 9.91416 13.0635 8.71467H23.5352V17.5297ZM9.37705 7.91325L10.4207 7.152C10.9753 6.74742 11.7188 7.1793 11.7188 7.91432C11.7188 8.64511 10.9761 9.07972 10.4207 8.67444L9.37705 7.91325ZM23.5352 7.11188H13.0637C12.585 5.54798 10.8728 4.89599 9.60811 5.81847L8.78906 6.41586V2.30367H22.8027C23.2066 2.30367 23.5352 2.66316 23.5352 3.10503V7.11188Z" fill="#444444"/>
</svg>
