<svg width="25" height="19" viewBox="0 0 25 19" fill="none" xmlns="http://www.w3.org/2000/svg">
<path d="M22.2656 0.602905H2.73438C1.22666 0.602905 0 1.89928 0 3.49269V15.8775C0 17.4709 1.22666 18.7673 2.73438 18.7673H22.2656C23.7733 18.7673 25 17.4709 25 15.8775V3.49269C25 1.89928 23.7733 0.602905 22.2656 0.602905ZM2.73438 2.25421H22.2656C22.9118 2.25421 23.4375 2.80982 23.4375 3.49269V5.144H1.5625V3.49269C1.5625 2.80982 2.08823 2.25421 2.73438 2.25421ZM22.2656 17.116H2.73438C2.08823 17.116 1.5625 16.5603 1.5625 15.8775V6.7953H23.4375V15.8775C23.4375 16.5603 22.9118 17.116 22.2656 17.116Z" fill="#444444"/>
</svg>
