<svg width="16" height="17" viewBox="0 0 16 17" fill="none" xmlns="http://www.w3.org/2000/svg">
<path d="M14.5326 4.37855C14.4112 4.20795 14.2831 4.03734 14.1485 3.87658C12.6779 2.11474 10.4686 0.992676 8 0.992676C7.99672 0.992676 7.99343 0.992676 7.98687 0.992676C7.98359 0.992676 7.98359 0.992676 7.9803 0.992676C7.97046 0.992676 7.96061 0.992676 7.95404 0.992676C5.50513 1.00908 3.31555 2.12786 1.85474 3.87658C1.72015 4.03734 1.59212 4.20467 1.47066 4.37855C0.544932 5.68435 0 7.2723 0 8.9882C0 10.7041 0.544932 12.2953 1.47066 13.5978C1.59212 13.7685 1.72015 13.9358 1.85474 14.0998C3.31555 15.8485 5.50513 16.9706 7.95404 16.9837C7.96389 16.9837 7.97374 16.9837 7.9803 16.9837C7.98359 16.9837 7.98359 16.9837 7.98687 16.9837C7.99015 16.9837 7.99343 16.9837 8 16.9837C10.4686 16.9837 12.6779 15.8617 14.1453 14.0998C14.2799 13.9391 14.4079 13.7717 14.5293 13.5978C15.4551 12.2953 16 10.7041 16 8.98492C16.0033 7.2723 15.4551 5.68435 14.5326 4.37855ZM5.6627 2.03272C4.92737 2.74139 4.31678 3.77815 3.89331 5.02161C3.32868 4.81163 2.81986 4.559 2.38326 4.27028C3.24333 3.25321 4.37259 2.46579 5.6627 2.03272ZM1.99918 4.77226C2.49815 5.10363 3.07263 5.39563 3.7062 5.63513C3.43045 6.6358 3.27288 7.74802 3.26959 8.92258H0.656545C0.672959 7.37728 1.16865 5.9501 1.99918 4.77226ZM0.682807 9.57876H3.28272C3.3254 10.5597 3.47312 11.4915 3.7062 12.3445C3.06935 12.5841 2.49487 12.8728 1.99918 13.2074C1.26385 12.1641 0.787854 10.9239 0.682807 9.57876ZM2.38654 13.7061C2.82314 13.4207 3.33197 13.1681 3.89331 12.9581C4.3135 14.2015 4.92737 15.2383 5.6627 15.947C4.37259 15.5106 3.24661 14.7265 2.38654 13.7061ZM7.67173 16.3079C6.32581 16.1241 5.16044 14.7429 4.5039 12.7547C5.45261 12.4692 6.52934 12.2986 7.67173 12.2691V16.3079ZM7.67173 11.6129C6.46697 11.6424 5.33114 11.8262 4.31678 12.1379C4.10997 11.3504 3.97866 10.4908 3.93599 9.57876H7.66845V11.6129H7.67173ZM7.67173 8.92258H3.92614C3.9327 7.8202 4.07386 6.78016 4.32335 5.84511C5.33443 6.15351 6.47025 6.34052 7.67501 6.37005L7.67173 8.92258ZM7.67173 5.71059C6.52934 5.68107 5.45261 5.51046 4.5039 5.22502C5.16373 3.2368 6.32581 1.85555 7.67173 1.66854V5.71059ZM15.3435 8.92258H12.6943C12.6877 7.75459 12.5334 6.64565 12.261 5.64826C12.911 5.40547 13.4986 5.11019 14.0041 4.77554C14.8313 5.9501 15.3303 7.37728 15.3435 8.92258ZM13.6167 4.27028C13.1703 4.56228 12.6516 4.82147 12.0739 5.03145C11.6504 3.77159 11.03 2.7217 10.2815 2.00975C11.5946 2.44283 12.7468 3.2368 13.6167 4.27028ZM8.32827 1.67838C9.66106 1.88508 10.81 3.26305 11.46 5.23814C10.5178 5.51702 9.45753 5.68435 8.32827 5.71387V1.67838ZM8.32827 6.36677C9.5199 6.33724 10.6393 6.15679 11.6438 5.85167C11.89 6.78344 12.0312 7.8202 12.0378 8.9193H8.32827V6.36677ZM8.32827 9.57876H12.0213C11.9819 10.4843 11.8506 11.3439 11.6438 12.128C10.6393 11.8229 9.51662 11.6424 8.32827 11.6129V9.57876ZM8.32827 16.3013V12.2658C9.45753 12.2921 10.5211 12.4627 11.4633 12.7415C10.81 14.7166 9.66106 16.0946 8.32827 16.3013ZM10.2815 15.9666C11.03 15.2547 11.6504 14.2081 12.0739 12.945C12.6516 13.1582 13.1703 13.4141 13.6135 13.7061C12.7435 14.7429 11.5946 15.5369 10.2815 15.9666ZM14.0041 13.2074C13.4986 12.8695 12.911 12.5742 12.261 12.3314C12.4908 11.4817 12.6385 10.5532 12.6812 9.57876H15.3205C15.2121 10.9239 14.7394 12.1641 14.0041 13.2074Z" fill="white"/>
</svg>
