<svg width="24" height="26" viewBox="0 0 24 26" fill="none" xmlns="http://www.w3.org/2000/svg">
<path d="M15.0318 9.99748C14.8457 9.60605 14.663 9.21308 14.4727 8.82215C14.3292 8.52678 14.2579 8.2401 14.5066 7.96569C14.7716 7.6739 15.0533 7.74697 15.3469 7.91459C15.6994 8.1149 16.0581 8.30296 16.4857 8.421C16.1614 7.82618 15.837 7.23119 15.5124 6.63603C15.4388 6.50214 15.3646 6.36826 15.2876 6.23641C15.0844 5.88739 15.0284 5.52406 15.3928 5.2849C15.7573 5.04575 16.0399 5.24964 16.2394 5.60429C16.8965 6.77315 17.5528 7.94218 18.2083 9.11138C18.3164 9.30352 18.4786 9.48442 18.5182 9.6919C18.5661 9.93718 18.5938 10.2898 18.4676 10.44C18.3413 10.5903 17.9845 10.6204 17.7865 10.5397C17.2604 10.3266 16.7674 10.0246 16.1648 9.70672L16.8955 11.2668C17.039 11.5699 17.1643 11.8847 16.8888 12.1708C16.6019 12.4682 16.3087 12.3533 16.0074 12.1591C14.818 11.3926 13.6223 10.6373 12.4296 9.87739C12.388 9.85082 12.3502 9.81812 12.3091 9.79052C11.9843 9.56925 11.7935 9.26775 12.0221 8.88347C12.2335 8.52576 12.5597 8.55693 12.8772 8.75674C13.4192 9.09742 13.9621 9.43809 14.5057 9.77877C14.6539 9.87177 14.8041 9.9612 14.9533 10.0522L15.0318 9.99748Z" fill="#444444"/>
<path d="M9.71931 16.0232L8.21374 14.414C8.10649 14.309 8.00494 14.1976 7.90957 14.0803C7.68479 13.7788 7.6054 13.4512 7.90335 13.1605C8.18218 12.8871 8.47727 12.975 8.72405 13.2305C9.28026 13.8084 9.82405 14.3992 10.3726 14.9848C10.8183 15.4605 11.2617 15.9394 11.7117 16.412C11.9389 16.6512 12.1513 16.8888 11.9796 17.2665C11.8079 17.6441 11.5066 17.6298 11.1895 17.5828C10.166 17.4308 9.14253 17.2789 8.11905 17.127C7.96218 17.104 7.80483 17.0856 7.50114 17.0457L8.21853 17.8122C8.58392 18.2026 8.95218 18.591 9.3147 18.9875C9.68535 19.3912 9.73365 19.7449 9.46344 20.0167C9.19322 20.2886 8.86657 20.2395 8.49161 19.842C7.5284 18.8199 6.57427 17.7887 5.60866 16.7692C5.36714 16.5137 5.2361 16.2429 5.38866 15.8929C5.54505 15.5351 5.84301 15.5633 6.14145 15.6082C7.32115 15.7844 8.49974 15.9598 9.67722 16.1346L9.71931 16.0232Z" fill="#444444"/>
<path d="M10.5342 12.2185L11.3357 13.075C11.6978 12.6881 12.056 12.3028 12.4171 11.9206C12.6366 11.6881 12.8786 11.5358 13.1942 11.7162C13.5658 11.9252 13.5993 12.3667 13.254 12.7566C12.9087 13.1465 12.5319 13.5328 12.1516 13.9391L12.9451 14.7869C13.2253 14.4874 13.4936 14.1982 13.7643 13.9125C13.8906 13.7791 14.0149 13.6422 14.1517 13.5226C14.4104 13.2952 14.7031 13.2671 14.9384 13.5226C15.1737 13.7781 15.1685 14.0995 14.9332 14.3602C14.4071 14.9441 13.8705 15.5173 13.3234 16.0797C13.0732 16.3352 12.7796 16.2979 12.5433 16.048C11.4759 14.9187 10.4153 13.7834 9.36151 12.6421C9.11234 12.3718 9.10947 12.0509 9.37156 11.7683C9.88169 11.2164 10.3961 10.6679 10.9149 10.1228C11.177 9.84739 11.4831 9.84228 11.7356 10.0993C11.9881 10.3564 11.945 10.6824 11.7246 10.9379C11.3539 11.3692 10.9546 11.7693 10.5342 12.2185Z" fill="#444444"/>
<path d="M23.937 10.6543L22.333 3.71477C22.2979 3.5655 22.2491 3.42034 22.1871 3.28143L23.465 1.91601C23.5957 1.77144 23.668 1.57781 23.6663 1.37684C23.6647 1.17586 23.5893 0.983604 23.4562 0.841485C23.3232 0.699366 23.1433 0.618752 22.9552 0.617005C22.7671 0.615259 22.5859 0.69252 22.4506 0.832147L21.1741 2.19757C21.044 2.13221 20.9082 2.08086 20.7686 2.04427L14.2738 0.327777C13.9134 0.232766 13.5361 0.238472 13.1782 0.344346C12.8204 0.45022 12.4941 0.652699 12.2307 0.932306L0.629175 13.307C0.226264 13.7387 0 14.3234 0 14.933C0 15.5427 0.226264 16.1274 0.629175 16.5591L8.74615 25.232C9.15013 25.6625 9.69741 25.9043 10.268 25.9043C10.8385 25.9043 11.3858 25.6625 11.7898 25.232L23.3712 12.8369C23.6329 12.5555 23.8224 12.207 23.9215 11.8247C24.0206 11.4425 24.026 11.0394 23.937 10.6543ZM22.3588 11.7545L10.7749 24.1476C10.6404 24.2913 10.458 24.3721 10.2677 24.3721C10.0775 24.3721 9.89507 24.2913 9.76054 24.1476L1.64404 15.4752C1.57737 15.404 1.52449 15.3195 1.48841 15.2265C1.45233 15.1335 1.43376 15.0337 1.43376 14.933C1.43376 14.8323 1.45233 14.7326 1.48841 14.6396C1.52449 14.5466 1.57737 14.462 1.64404 14.3909L13.2446 2.01821C13.3798 1.87439 13.5628 1.79371 13.7535 1.79387C13.8115 1.79376 13.8694 1.80131 13.9257 1.81636L20.0263 3.4235L19.6839 3.78938C19.3738 3.67338 19.0364 3.67074 18.7247 3.78186C18.413 3.89299 18.1447 4.11159 17.962 4.40333C17.7792 4.69506 17.6923 5.04341 17.7149 5.39365C17.7376 5.74388 17.8684 6.07617 18.087 6.3383C18.3055 6.60044 18.5994 6.77757 18.9224 6.84188C19.2454 6.90619 19.5793 6.85404 19.8715 6.6936C20.1638 6.53317 20.3979 6.27356 20.537 5.95553C20.6762 5.63751 20.7126 5.2791 20.6404 4.93661L21.0412 4.50787L22.5472 11.0248C22.5767 11.1535 22.5746 11.2881 22.5411 11.4156C22.5077 11.5432 22.4441 11.6594 22.3564 11.753L22.3588 11.7545Z" fill="#444444"/>
</svg>
