<svg width="34" height="27" viewBox="0 0 34 27" fill="none" xmlns="http://www.w3.org/2000/svg">
<path d="M23.743 5.06433H13.2059C12.9325 5.06433 12.7109 5.28594 12.7109 5.55931C12.7109 5.83269 12.9325 6.0543 13.2059 6.0543H23.7429C24.0163 6.0543 24.238 5.83269 24.238 5.55931C24.238 5.28587 24.0164 5.06433 23.743 5.06433Z" fill="#444444"/>
<path d="M10.9012 5.06433H9.2322C8.95882 5.06433 8.73721 5.28594 8.73721 5.55931C8.73721 5.83269 8.95875 6.0543 9.2322 6.0543H10.9012C11.1746 6.0543 11.3962 5.83269 11.3962 5.55931C11.3962 5.28594 11.1746 5.06433 10.9012 5.06433Z" fill="#444444"/>
<path d="M14.4095 20.2367H9.2322C8.95882 20.2367 8.73721 20.4583 8.73721 20.7317C8.73721 21.0051 8.95882 21.2267 9.2322 21.2267H14.4095C14.6829 21.2267 14.9045 21.0051 14.9045 20.7317C14.9045 20.4582 14.6829 20.2367 14.4095 20.2367Z" fill="#444444"/>
<path d="M16.4869 15.1793H9.2322C8.95882 15.1793 8.73721 15.4009 8.73721 15.6743C8.73721 15.9478 8.95882 16.1693 9.2322 16.1693H16.4869C16.7602 16.1693 16.9818 15.9477 16.9818 15.6743C16.9818 15.4009 16.7602 15.1793 16.4869 15.1793Z" fill="#444444"/>
<path d="M20.0182 10.1217H9.2322C8.95882 10.1217 8.73721 10.3433 8.73721 10.6167C8.73721 10.8901 8.95882 11.1117 9.2322 11.1117H20.0182C20.2916 11.1117 20.5132 10.8901 20.5132 10.6167C20.5132 10.3432 20.2916 10.1217 20.0182 10.1217Z" fill="#444444"/>
<path d="M29.3867 0H8.92979C7.11777 0 5.64363 1.4742 5.64363 3.28622V22.7627H0.494945C0.36284 22.7627 0.236142 22.8155 0.143213 22.9093C0.0502181 23.0033 -0.00135784 23.1304 2.71918e-05 23.2625C0.0195495 25.2279 1.43195 26.71 3.28539 26.71H23.7423H23.8046C25.6166 26.71 27.0908 25.2358 27.0908 23.4238V17.4257C27.0908 17.1524 26.8691 16.9308 26.5957 16.9308C26.3224 16.9308 26.1007 17.1524 26.1007 17.4258V23.4238C26.1007 24.69 25.0707 25.72 23.8046 25.72H23.7423C22.4477 25.72 21.4609 24.6593 21.4469 23.2528C21.4442 22.9813 21.2234 22.7627 20.9519 22.7627H6.63387V3.28615C6.63387 2.01997 7.66393 0.989968 8.92999 0.989968H27.0382C27.0236 1.00481 27.0099 1.02037 26.9957 1.03554C26.9784 1.05394 26.9609 1.07215 26.944 1.09088C26.9262 1.11073 26.9089 1.13111 26.8916 1.15142C26.8749 1.17088 26.8581 1.19014 26.8419 1.20999C26.8251 1.23057 26.809 1.25167 26.7926 1.27265C26.7768 1.29296 26.7608 1.31308 26.7454 1.33379C26.7298 1.35502 26.7147 1.37672 26.6995 1.39835C26.6845 1.41959 26.6693 1.4407 26.6548 1.46226C26.6403 1.48409 26.6263 1.50639 26.6123 1.52861C26.5982 1.55071 26.584 1.5726 26.5705 1.59503C26.5569 1.61758 26.5441 1.6406 26.5311 1.66349C26.5181 1.68624 26.5048 1.70887 26.4923 1.73202C26.4798 1.75516 26.4682 1.77884 26.4562 1.80239C26.4443 1.82587 26.432 1.84915 26.4207 1.87289C26.4093 1.89677 26.3988 1.9211 26.3879 1.94524C26.3771 1.96932 26.3659 1.99319 26.3557 2.01753C26.3454 2.04213 26.336 2.06719 26.3262 2.09206C26.3166 2.11659 26.3067 2.14093 26.2976 2.16573C26.2883 2.19119 26.2801 2.21711 26.2714 2.24289C26.2631 2.26769 26.2544 2.29223 26.2466 2.31729C26.2384 2.34367 26.2313 2.37051 26.2238 2.39723C26.2168 2.42216 26.2093 2.44689 26.2028 2.47208C26.1958 2.49978 26.1899 2.52788 26.1835 2.55584C26.1778 2.58045 26.1716 2.60491 26.1666 2.62971C26.1607 2.6588 26.156 2.68821 26.1509 2.71756C26.1467 2.74183 26.1418 2.76584 26.1381 2.79024C26.1333 2.82157 26.1299 2.8533 26.126 2.88489C26.1232 2.90771 26.1197 2.93026 26.1174 2.95322C26.1139 2.98857 26.1117 3.02431 26.1093 3.06C26.1079 3.07958 26.1058 3.09904 26.1048 3.11869C26.1021 3.17416 26.1006 3.23003 26.1006 3.28622V3.45236V7.67954C26.1006 7.95298 26.3222 8.17452 26.5956 8.17452C26.869 8.17452 27.0906 7.95292 27.0906 7.67954V3.94734H32.1824C32.3145 3.94734 32.4412 3.89451 32.5342 3.80066C32.6272 3.70674 32.6787 3.57958 32.6773 3.44747C32.6578 1.48205 31.2454 0 29.3867 0ZM20.4914 23.7527C20.4982 23.8039 20.5061 23.8547 20.5149 23.905C20.5178 23.9219 20.5214 23.9385 20.5245 23.9553C20.5308 23.9886 20.5371 24.0219 20.5442 24.0548C20.5484 24.0745 20.5532 24.0939 20.5577 24.1134C20.5646 24.143 20.5715 24.1726 20.5791 24.2018C20.5844 24.2224 20.5901 24.2427 20.5957 24.263C20.6034 24.2908 20.6112 24.3186 20.6195 24.3461C20.6257 24.3667 20.6322 24.3872 20.6388 24.4077C20.6474 24.4345 20.6563 24.4611 20.6655 24.4876C20.6725 24.5079 20.6797 24.5282 20.6872 24.5484C20.6968 24.5747 20.7068 24.6007 20.717 24.6265C20.7248 24.6462 20.7325 24.6658 20.7405 24.6853C20.7514 24.7115 20.7628 24.7373 20.7742 24.7632C20.7824 24.7817 20.7905 24.8003 20.799 24.8186C20.8115 24.8457 20.8247 24.8723 20.8378 24.8989C20.846 24.9154 20.8539 24.932 20.8623 24.9484C20.8784 24.9796 20.8952 25.0102 20.9122 25.0408C20.9183 25.052 20.9242 25.0633 20.9304 25.0743C20.954 25.1158 20.9783 25.1565 21.0034 25.1966C21.0093 25.206 21.0156 25.215 21.0215 25.2243C21.0411 25.2549 21.0609 25.2854 21.0815 25.3153C21.091 25.3291 21.1009 25.3424 21.1105 25.3561C21.1282 25.381 21.1458 25.4059 21.1642 25.4302C21.1752 25.4449 21.1865 25.4591 21.1977 25.4736C21.2153 25.4963 21.2332 25.519 21.2514 25.5412C21.2634 25.5557 21.2756 25.5701 21.2878 25.5845C21.306 25.606 21.3244 25.6272 21.3432 25.6482C21.3558 25.6623 21.3686 25.6762 21.3814 25.6901C21.3906 25.7 21.3994 25.7103 21.4087 25.72H3.28532C2.14933 25.72 1.25031 24.9032 1.03761 23.7527H20.4914ZM27.115 2.95724C27.1152 2.95388 27.1155 2.95038 27.116 2.94695C27.1182 2.93185 27.121 2.91688 27.1236 2.9019C27.1271 2.8808 27.1308 2.85969 27.1349 2.83872C27.1381 2.82276 27.1416 2.80693 27.1451 2.7911C27.1495 2.77145 27.1539 2.75186 27.1587 2.7324C27.1628 2.71605 27.1672 2.69976 27.1716 2.68353C27.1767 2.665 27.1819 2.64647 27.1873 2.62813C27.1923 2.61151 27.1975 2.59502 27.2028 2.5786C27.2085 2.56106 27.2144 2.54364 27.2206 2.52623C27.2265 2.50941 27.2325 2.49259 27.2388 2.47597C27.245 2.45955 27.2516 2.44333 27.2582 2.42704C27.2651 2.40989 27.272 2.39281 27.2794 2.37586C27.2859 2.36075 27.2929 2.34585 27.2997 2.33094C27.3078 2.31333 27.3159 2.29559 27.3244 2.27824C27.3307 2.26532 27.3375 2.25265 27.3441 2.23986C27.3539 2.22087 27.3635 2.20187 27.3738 2.18321C27.3777 2.17595 27.3821 2.16896 27.3861 2.16177C27.4318 2.08084 27.482 2.00276 27.5369 1.92829C27.5374 1.92757 27.5379 1.92691 27.5384 1.92618C27.5561 1.90231 27.5744 1.87889 27.5929 1.85568C27.5959 1.85199 27.5987 1.84823 27.6017 1.84453C27.6198 1.82211 27.6385 1.80015 27.6575 1.77845C27.661 1.77442 27.6644 1.77033 27.668 1.76631C27.6873 1.74455 27.707 1.72324 27.7271 1.7022C27.7304 1.69877 27.7336 1.69528 27.737 1.69185C27.7578 1.67035 27.7791 1.64918 27.8007 1.62847C27.8032 1.62616 27.8056 1.62385 27.808 1.62148C27.8309 1.59984 27.8541 1.57861 27.8778 1.5579C27.8786 1.55717 27.8795 1.55651 27.8802 1.55579C28.1834 1.29177 28.5564 1.10558 28.9681 1.02895C28.9683 1.02888 28.9686 1.02888 28.9688 1.02881C29.0025 1.02255 29.0365 1.01701 29.0707 1.01226C29.0728 1.012 29.0748 1.01173 29.0769 1.01147C29.1095 1.00698 29.1423 1.00316 29.1754 1.00006C29.1804 0.999597 29.1855 0.999333 29.1906 0.998937C29.2208 0.996299 29.2512 0.994057 29.2818 0.992606C29.2994 0.991814 29.3173 0.991683 29.3351 0.991221C29.3542 0.990759 29.3732 0.989902 29.3925 0.989902C30.5285 0.989902 31.4275 1.80674 31.6402 2.95724H27.115Z" fill="#444444"/>
<path d="M33.7674 9.12278C33.7673 9.11705 33.7672 9.11131 33.767 9.10551C33.765 9.05894 33.7566 9.01409 33.7426 8.97162C33.7419 8.96951 33.7417 8.96733 33.7409 8.96529C33.7404 8.96357 33.7394 8.96199 33.7388 8.96028C33.731 8.93858 33.722 8.91747 33.7115 8.89729C33.7101 8.89478 33.7086 8.89247 33.7073 8.88997C33.6975 8.87216 33.6867 8.85508 33.6749 8.83866C33.6724 8.83516 33.67 8.83153 33.6675 8.8281C33.6545 8.81096 33.6404 8.79473 33.6253 8.77943C33.622 8.77607 33.6185 8.77297 33.6151 8.76973C33.6009 8.75602 33.5858 8.74315 33.57 8.73122C33.5679 8.72963 33.5659 8.72785 33.5637 8.72627C33.5459 8.71334 33.5271 8.7018 33.5076 8.69125C33.5038 8.6892 33.5001 8.68736 33.4963 8.68545C33.4764 8.67542 33.4561 8.66625 33.4348 8.65893C33.4347 8.65887 33.4345 8.6588 33.4344 8.6588C33.4132 8.65155 33.3913 8.64607 33.3689 8.64165C33.364 8.64066 33.359 8.63981 33.354 8.63901C33.3316 8.63532 33.3089 8.63255 33.2857 8.63196C29.1439 8.52478 23.7432 9.52181 21.0128 12.6388C19.8178 14.0029 19.2664 15.7335 18.7333 17.4071C18.6896 17.5441 18.646 17.681 18.602 17.8177C18.6002 17.8235 18.5984 17.8293 18.5967 17.8352L17.7602 20.8063C17.6861 21.0694 17.8394 21.3429 18.1025 21.417C18.1473 21.4296 18.1925 21.4356 18.2369 21.4356C18.453 21.4356 18.6517 21.2929 18.7132 21.0746L19.489 18.3189C20.4375 17.8743 21.2013 17.6665 22.2329 17.386C22.7681 17.2403 23.3746 17.0754 24.1086 16.8497C25.6955 16.3616 28.7397 14.3197 30.1407 12.8036C31.3659 11.4775 32.397 10.4921 33.5881 9.50848C33.5895 9.50736 33.5906 9.50598 33.592 9.50479C33.6093 9.49008 33.6258 9.47445 33.641 9.4575C33.6419 9.45645 33.6429 9.45552 33.6438 9.45453C33.6588 9.43758 33.6724 9.41938 33.6849 9.40038C33.6873 9.39689 33.6895 9.39339 33.6917 9.38983C33.7155 9.35204 33.7342 9.31095 33.7471 9.26716C33.7484 9.263 33.7496 9.25891 33.7507 9.25469C33.7564 9.23319 33.7612 9.2113 33.764 9.18874C33.7642 9.18782 33.7642 9.18696 33.7642 9.18603C33.7661 9.17073 33.7674 9.15524 33.7678 9.13954C33.768 9.13387 33.7675 9.12833 33.7674 9.12278ZM21.7575 13.2911C22.9097 11.9758 24.6756 10.9843 27.0063 10.3443C27.6326 10.1722 28.2945 10.0295 28.9767 9.91687C27.2434 10.7575 25.586 11.8103 24.6598 12.429C23.1651 13.4275 21.5516 14.6388 20.3601 15.7161C20.7127 14.8229 21.1389 13.9972 21.7575 13.2911ZM29.4136 12.1317C28.05 13.6073 25.1051 15.5074 23.8177 15.9033C23.0992 16.1243 22.501 16.287 21.9731 16.4305C21.4956 16.5604 21.0611 16.6787 20.6315 16.8151C20.8237 16.631 21.049 16.4247 21.3146 16.193C22.3834 15.2607 23.7667 14.2163 25.2097 13.2523C27.7082 11.5832 29.9692 10.4116 31.628 9.90368C30.9076 10.5672 30.199 11.2816 29.4136 12.1317Z" fill="#444444"/>
</svg>
