<svg width="27" height="27" viewBox="0 0 27 27" fill="none" xmlns="http://www.w3.org/2000/svg">
<path d="M15.4487 5.41634C16.0741 4.84608 16.4699 4.02742 16.4699 3.11617C16.4699 1.39827 15.0721 0 13.3537 0C11.6354 0 10.2376 1.39827 10.2376 3.11617C10.2376 4.02742 10.6333 4.84608 11.2588 5.41634C9.41177 5.77248 8.01172 7.39911 8.01172 9.3485V11.1292C8.01172 11.3753 8.21115 11.5743 8.45689 11.5743H18.2506C18.4963 11.5743 18.6957 11.3753 18.6957 11.1292V9.3485C18.6957 7.39911 17.2957 5.77248 15.4487 5.41634ZM11.1279 3.11617C11.1279 1.88884 12.1264 0.890333 13.3537 0.890333C14.581 0.890333 15.5796 1.88884 15.5796 3.11617C15.5796 4.34349 14.581 5.342 13.3537 5.342C12.1264 5.342 11.1279 4.34349 11.1279 3.11617ZM17.8054 10.684H8.90205V9.3485C8.90205 7.6306 10.2999 6.23233 12.0182 6.23233H14.6892C16.4076 6.23233 17.8054 7.6306 17.8054 9.3485V10.684Z" fill="#444444"/>
<path d="M7.43695 20.5521C8.06241 19.9818 8.45817 19.1632 8.45817 18.2519C8.45817 16.534 7.06034 15.1357 5.342 15.1357C3.62366 15.1357 2.22583 16.534 2.22583 18.2519C2.22583 19.1632 2.62159 19.9818 3.24705 20.5521C1.40005 20.9082 0 22.5349 0 24.4842V26.2649C0 26.5111 0.199435 26.7101 0.445167 26.7101H10.2388C10.4846 26.7101 10.684 26.5111 10.684 26.2649V24.4842C10.684 22.5349 9.28395 20.9082 7.43695 20.5521ZM3.11617 18.2519C3.11617 17.0246 4.11468 16.0261 5.342 16.0261C6.56932 16.0261 7.56783 17.0246 7.56783 18.2519C7.56783 19.4792 6.56932 20.4777 5.342 20.4777C4.11468 20.4777 3.11617 19.4792 3.11617 18.2519ZM9.79367 25.8197H0.890333V24.4842C0.890333 22.7663 2.28816 21.3681 4.0065 21.3681H6.6775C8.39584 21.3681 9.79367 22.7663 9.79367 24.4842V25.8197Z" fill="#444444"/>
<path d="M23.4643 20.5521C24.0898 19.9818 24.4855 19.1632 24.4855 18.2519C24.4855 16.534 23.0877 15.1357 21.3693 15.1357C19.651 15.1357 18.2532 16.534 18.2532 18.2519C18.2532 19.1632 18.6489 19.9818 19.2744 20.5521C17.4274 20.9082 16.0273 22.5349 16.0273 24.4842V26.2649C16.0273 26.5111 16.2268 26.7101 16.4725 26.7101H26.2662C26.5119 26.7101 26.7113 26.5111 26.7113 26.2649V24.4842C26.7113 22.5349 25.3113 20.9082 23.4643 20.5521ZM19.1435 18.2519C19.1435 17.0246 20.142 16.0261 21.3693 16.0261C22.5967 16.0261 23.5952 17.0246 23.5952 18.2519C23.5952 19.4792 22.5967 20.4777 21.3693 20.4777C20.142 20.4777 19.1435 19.4792 19.1435 18.2519ZM25.821 25.8197H16.9177V24.4842C16.9177 22.7663 18.3155 21.3681 20.0338 21.3681H22.7048C24.4232 21.3681 25.821 22.7663 25.821 24.4842V25.8197Z" fill="#444444"/>
<path d="M2.67851 14.231L1.78906 14.2657C1.80108 14.5724 1.82557 14.8831 1.86207 15.1885L2.74617 15.0826C2.71234 14.8008 2.68963 14.5141 2.67851 14.231Z" fill="#444444"/>
<path d="M1.86162 12.4189C1.82557 12.7225 1.80064 13.0328 1.78906 13.3413L2.67851 13.3761C2.68963 13.0911 2.71234 12.8049 2.74573 12.524L1.86162 12.4189Z" fill="#444444"/>
<path d="M6.3386 4.59326C6.09509 4.7789 5.85515 4.97744 5.625 5.184L6.22018 5.84641C6.43208 5.65587 6.65333 5.47247 6.87814 5.30152L6.3386 4.59326Z" fill="#444444"/>
<path d="M2.87621 8.87231C2.74533 9.15054 2.62425 9.43723 2.51562 9.72614L3.34897 10.0391C3.44914 9.77289 3.56087 9.50846 3.68151 9.25249L2.87621 8.87231Z" fill="#444444"/>
<path d="M2.22683 10.6052C2.14225 10.8995 2.0688 11.2026 2.00781 11.5045L2.88078 11.6803C2.93688 11.4021 3.00454 11.1225 3.08289 10.8505L2.22683 10.6052Z" fill="#444444"/>
<path d="M4.96189 5.83057C4.74865 6.05493 4.54387 6.28864 4.35156 6.52592L5.0438 7.08594C5.22097 6.86691 5.41061 6.65056 5.60738 6.44356L4.96189 5.83057Z" fill="#444444"/>
<path d="M7.89628 3.59302C7.62696 3.73681 7.35852 3.89484 7.09766 4.06267L7.58021 4.81144C7.8206 4.65608 8.06811 4.51051 8.31563 4.37829L7.89628 3.59302Z" fill="#444444"/>
<path d="M3.79704 7.26733C3.62298 7.52152 3.45738 7.78506 3.30469 8.05172L4.07705 8.49421C4.21773 8.24848 4.37086 8.00497 4.53157 7.77082L3.79704 7.26733Z" fill="#444444"/>
<path d="M11.2462 24.2759L11.0703 25.1489C11.3699 25.2094 11.678 25.2579 11.9856 25.294L12.0889 24.4099C11.8062 24.3765 11.5222 24.3315 11.2462 24.2759Z" fill="#444444"/>
<path d="M15.4925 24.2703C15.216 24.3264 14.9325 24.3722 14.6484 24.4069L14.7557 25.291C15.0629 25.2536 15.3701 25.2038 15.6692 25.1432L15.4925 24.2703Z" fill="#444444"/>
<path d="M13.7961 24.4753C13.5117 24.4865 13.2241 24.4878 12.9414 24.4767L12.9062 25.3661C13.0545 25.3724 13.2041 25.375 13.3554 25.375C13.5148 25.3741 13.6737 25.371 13.8318 25.3648L13.7961 24.4753Z" fill="#444444"/>
<path d="M21.083 5.1875L20.4883 5.84991C20.7002 6.04044 20.9058 6.24076 21.1004 6.44554L21.7468 5.83344C21.5358 5.61085 21.3127 5.39361 21.083 5.1875Z" fill="#444444"/>
<path d="M22.3602 6.52856L21.668 7.08858C21.8456 7.30805 22.0174 7.53909 22.1786 7.77413L22.9127 7.27065C22.7381 7.01646 22.5525 6.76673 22.3602 6.52856Z" fill="#444444"/>
<path d="M24.9207 13.3425L24.0312 13.3773C24.037 13.5175 24.0397 13.659 24.0397 13.8002C24.0397 13.9448 24.037 14.0886 24.0312 14.2324L24.9207 14.2671C24.9269 14.1122 24.93 13.9564 24.93 13.7993C24.93 13.6466 24.9269 13.4939 24.9207 13.3425Z" fill="#444444"/>
<path d="M23.4056 8.0542L22.6328 8.49714C22.7739 8.74332 22.9066 8.9984 23.0277 9.25481L23.833 8.87464C23.7021 8.59686 23.5583 8.32085 23.4056 8.0542Z" fill="#444444"/>
<path d="M24.1927 9.72778L23.3594 10.0412C23.4591 10.3065 23.549 10.5794 23.6274 10.8518L24.4834 10.6065C24.3988 10.311 24.3009 10.0154 24.1927 9.72778Z" fill="#444444"/>
<path d="M24.7046 11.5063L23.832 11.6817C23.8881 11.9604 23.9335 12.2444 23.9665 12.5258L24.8506 12.4207C24.8145 12.1162 24.7655 11.8086 24.7046 11.5063Z" fill="#444444"/>
<path d="M19.6188 4.06445L19.1367 4.81322C19.3744 4.96636 19.6095 5.13152 19.8361 5.30469L20.3765 4.59643C20.1312 4.40901 19.8766 4.2305 19.6188 4.06445Z" fill="#444444"/>
<path d="M17.9855 3.18994L17.6289 4.00548C17.8884 4.119 18.1466 4.24454 18.3973 4.37898L18.8184 3.5946C18.5473 3.44858 18.2668 3.31236 17.9855 3.18994Z" fill="#444444"/>
</svg>
