<svg width="34" height="53" viewBox="0 0 34 53" fill="none" xmlns="http://www.w3.org/2000/svg">
<g clip-path="url(#clip0)">
<path d="M29.678 0.94751H4.32203C1.93858 0.94751 0 2.65366 0 4.75135V49.0788C0 51.1764 1.93858 52.8826 4.32203 52.8826H29.678C32.0614 52.8826 34 51.1764 34 49.0788V4.75135C34 2.65366 32.0614 0.94751 29.678 0.94751ZM32.2712 42.2318H7.77966C7.30251 42.2318 6.91525 42.5727 6.91525 42.9926C6.91525 43.4126 7.30251 43.7534 7.77966 43.7534H32.2712V49.0788C32.2712 50.3376 31.1083 51.3611 29.678 51.3611H4.32203C2.89173 51.3611 1.72881 50.3376 1.72881 49.0788V43.7534H4.32203C4.79919 43.7534 5.18644 43.4126 5.18644 42.9926C5.18644 42.5727 4.79919 42.2318 4.32203 42.2318H1.72881V8.55519H32.2712V42.2318ZM32.2712 7.03365H1.72881V4.75135C1.72881 3.49253 2.89173 2.46905 4.32203 2.46905H29.678C31.1083 2.46905 32.2712 3.49253 32.2712 4.75135V7.03365Z" fill="#115C07"/>
<path d="M20.4577 3.99078H17C16.5229 3.99078 16.1356 4.33203 16.1356 4.7525C16.1356 5.17297 16.5229 5.51422 17 5.51422H20.4577C20.9348 5.51422 21.3221 5.17297 21.3221 4.7525C21.3221 4.33203 20.9348 3.99078 20.4577 3.99078Z" fill="#115C07"/>
<path d="M17 49.8398C18.4303 49.8398 19.5932 48.8163 19.5932 47.5574C19.5932 46.2985 18.4303 45.2749 17 45.2749C15.5697 45.2749 14.4068 46.2985 14.4068 47.5574C14.4068 48.8163 15.5697 49.8398 17 49.8398ZM17 46.7965C17.4772 46.7965 17.8644 47.1374 17.8644 47.5574C17.8644 47.9773 17.4772 48.3182 17 48.3182C16.5229 48.3182 16.1356 47.9773 16.1356 47.5574C16.1356 47.1374 16.5229 46.7965 17 46.7965Z" fill="#115C07"/>
<path d="M13.5424 5.51422C14.0198 5.51422 14.4069 5.17319 14.4069 4.7525C14.4069 4.33182 14.0198 3.99078 13.5424 3.99078C13.065 3.99078 12.678 4.33182 12.678 4.7525C12.678 5.17319 13.065 5.51422 13.5424 5.51422Z" fill="#115C07"/>
</g>
<defs>
<clipPath id="clip0">
<rect width="34" height="51.9351" fill="white" transform="translate(0 0.94751)"/>
</clipPath>
</defs>
</svg>
