<svg width="25" height="27" viewBox="0 0 25 27" fill="none" xmlns="http://www.w3.org/2000/svg">
<path d="M18.6213 2.87132L16.8406 0.200325C16.8003 0.139087 16.7455 0.0887592 16.681 0.0538116C16.6166 0.018864 16.5445 0.000379335 16.4711 0H7.56781C7.49449 0.000379335 7.4224 0.018864 7.35794 0.0538116C7.29348 0.0887592 7.23865 0.139087 7.19833 0.200325L5.41766 2.87132C5.36816 2.94336 5.34177 3.02876 5.34198 3.11617V12.0195C5.34304 12.3734 5.48408 12.7124 5.73431 12.9627C5.98453 13.2129 6.32361 13.3539 6.67748 13.355H17.3615C17.7154 13.3539 18.0544 13.2129 18.3047 12.9627C18.5549 12.7124 18.6959 12.3734 18.697 12.0195V3.11617C18.6972 3.02876 18.6708 2.94336 18.6213 2.87132ZM7.8082 0.890333H16.2308L17.4194 2.671H6.61961L7.8082 0.890333ZM12.9098 3.56133V6.73537L12.2643 6.30801C12.1925 6.25801 12.107 6.23121 12.0195 6.23121C11.9319 6.23121 11.8465 6.25801 11.7746 6.30801L11.1291 6.73537V3.56133H12.9098ZM6.23231 3.56133H10.2388V5.342H6.23231V3.56133ZM17.8066 12.0195C17.8066 12.1376 17.7597 12.2508 17.6763 12.3343C17.5928 12.4178 17.4795 12.4647 17.3615 12.4647H6.67748C6.55942 12.4647 6.44619 12.4178 6.3627 12.3343C6.27922 12.2508 6.23231 12.1376 6.23231 12.0195V6.23233H10.2388V7.56783C10.2382 7.64853 10.26 7.72781 10.3016 7.79694C10.3432 7.86607 10.4032 7.92235 10.4748 7.95958C10.5449 7.99881 10.6247 8.01753 10.705 8.0136C10.7853 8.00966 10.8628 7.98323 10.9288 7.93732L12.0195 7.2117L13.1101 7.93732C13.1771 7.98141 13.2547 8.00661 13.3348 8.01025C13.4149 8.01388 13.4945 7.99583 13.5651 7.95798C13.6358 7.92014 13.6949 7.86391 13.7363 7.79524C13.7777 7.72657 13.7997 7.648 13.8001 7.56783V6.23233H17.8066V12.0195ZM17.8066 5.342H13.8001V3.56133H17.8066V5.342Z" fill="#444444"/>
<path d="M12.3341 15.2661C12.2506 15.1826 12.1374 15.1357 12.0194 15.1357C11.9013 15.1357 11.7881 15.1826 11.7047 15.2661L9.03366 17.9371C8.97142 17.9993 8.92904 18.0787 8.91187 18.165C8.8947 18.2513 8.90352 18.3408 8.9372 18.4222C8.97089 18.5035 9.02793 18.573 9.10112 18.6219C9.17431 18.6708 9.26036 18.697 9.34839 18.697H10.2387V21.8131H11.1291V18.2518C11.1291 18.1337 11.0822 18.0205 10.9987 17.937C10.9152 17.8535 10.802 17.8066 10.6839 17.8066H10.423L12.0194 16.2103L13.6158 17.8066H13.3549C13.2368 17.8066 13.1236 17.8535 13.0401 17.937C12.9566 18.0205 12.9097 18.1337 12.9097 18.2518V23.5938H13.8001V18.697H14.6904C14.7784 18.697 14.8645 18.6708 14.9377 18.6219C15.0109 18.573 15.0679 18.5035 15.1016 18.4222C15.1353 18.3408 15.1441 18.2513 15.1269 18.165C15.1097 18.0787 15.0674 17.9993 15.0051 17.9371L12.3341 15.2661Z" fill="#444444"/>
<path d="M20.4777 0.890381H21.368V3.56138H20.4777V0.890381Z" fill="#444444"/>
<path d="M20.4777 4.45166H21.368V5.34199H20.4777V4.45166Z" fill="#444444"/>
<path d="M23.1487 2.22583H24.039V4.0065H23.1487V2.22583Z" fill="#444444"/>
<path d="M23.1487 4.89685H24.039V5.78718H23.1487V4.89685Z" fill="#444444"/>
<path d="M2.67102 0.890381H3.56135V3.56138H2.67102V0.890381Z" fill="#444444"/>
<path d="M2.67102 4.45166H3.56135V5.34199H2.67102V4.45166Z" fill="#444444"/>
<path d="M0 2.22583H0.890333V4.0065H0V2.22583Z" fill="#444444"/>
<path d="M0 4.89685H0.890333V5.78718H0V4.89685Z" fill="#444444"/>
<path d="M17.3615 24.0389H18.2518V24.9293H17.3615V24.0389Z" fill="#444444"/>
<path d="M22.7035 7.12268C22.2312 7.12268 21.7783 7.31029 21.4444 7.64423C21.1104 7.97817 20.9228 8.43109 20.9228 8.90335V12.6606C20.8569 12.6666 20.7915 12.677 20.7269 12.6917C20.5007 12.7525 20.2888 12.8573 20.1031 13.0002C19.9175 13.143 19.7619 13.3211 19.6452 13.5242L16.529 18.9196C16.4917 18.9879 16.4718 19.0644 16.4711 19.1422V22.2583H16.026C15.9079 22.2583 15.7947 22.3052 15.7112 22.3887C15.6277 22.4722 15.5808 22.5854 15.5808 22.7035V26.2648C15.5808 26.3829 15.6277 26.4961 15.7112 26.5796C15.7947 26.6631 15.9079 26.71 16.026 26.71H23.1486C23.2667 26.71 23.3799 26.6631 23.4634 26.5796C23.5469 26.4961 23.5938 26.3829 23.5938 26.2648V22.7035C23.5938 22.5854 23.5469 22.4722 23.4634 22.3887C23.3799 22.3052 23.2667 22.2583 23.1486 22.2583H22.7035V21.969L24.3862 19.8634C24.4498 19.7854 24.4844 19.6879 24.4841 19.5873V8.90335C24.4841 8.43109 24.2965 7.97817 23.9626 7.64423C23.6287 7.31029 23.1757 7.12268 22.7035 7.12268ZM22.7035 25.8197H16.4711V23.1487H22.7035V25.8197ZM23.5938 19.4315L21.9111 21.5372C21.8475 21.6151 21.8129 21.7126 21.8131 21.8132V22.2583H17.3615V19.2624L20.4198 13.9693C20.4754 13.8629 20.552 13.7689 20.645 13.6929C20.7379 13.6169 20.8453 13.5604 20.9606 13.527C21.0759 13.4935 21.1968 13.4837 21.316 13.4982C21.4352 13.5127 21.5503 13.5511 21.6542 13.6112C21.7582 13.6713 21.8489 13.7518 21.921 13.8479C21.993 13.9439 22.0449 14.0536 22.0735 14.1702C22.102 14.2868 22.1067 14.4081 22.0872 14.5265C22.0677 14.645 22.0245 14.7583 21.9601 14.8597L19.7342 18.7148L20.5044 19.16L22.7302 15.3048C22.9663 14.8956 23.0305 14.4094 22.9087 13.9529C22.7869 13.4964 22.4889 13.1069 22.0802 12.8698C21.9942 12.8234 21.9049 12.7832 21.8131 12.7496V8.90335C21.8131 8.66722 21.9069 8.44076 22.0739 8.27379C22.2409 8.10682 22.4673 8.01301 22.7035 8.01301C22.9396 8.01301 23.1661 8.10682 23.333 8.27379C23.5 8.44076 23.5938 8.66722 23.5938 8.90335V19.4315Z" fill="#444444"/>
<path d="M8.45817 22.2583H8.013V19.1422C8.01231 19.0644 7.99243 18.9879 7.95513 18.9196L4.83896 13.5242C4.7045 13.2935 4.51983 13.0961 4.29865 12.9466C4.07748 12.7971 3.82547 12.6994 3.56133 12.6606V8.90335C3.56133 8.43109 3.37373 7.97817 3.03979 7.64423C2.70585 7.31029 2.25293 7.12268 1.78067 7.12268C1.30841 7.12268 0.855486 7.31029 0.521546 7.64423C0.187607 7.97817 1.26548e-06 8.43109 1.26548e-06 8.90335V19.5873C-0.000241208 19.6879 0.0343675 19.7854 0.0979378 19.8634L1.78067 21.969V22.2583H1.3355C1.21744 22.2583 1.10421 22.3052 1.02072 22.3887C0.937236 22.4722 0.890335 22.5854 0.890335 22.7035V26.2648C0.890335 26.3829 0.937236 26.4961 1.02072 26.5796C1.10421 26.6631 1.21744 26.71 1.3355 26.71H8.45817C8.57623 26.71 8.68946 26.6631 8.77295 26.5796C8.85643 26.4961 8.90333 26.3829 8.90333 26.2648V22.7035C8.90333 22.5854 8.85643 22.4722 8.77295 22.3887C8.68946 22.3052 8.57623 22.2583 8.45817 22.2583ZM0.890335 19.4315V8.90335C0.890335 8.66722 0.984137 8.44076 1.15111 8.27379C1.31808 8.10682 1.54454 8.01301 1.78067 8.01301C2.0168 8.01301 2.24326 8.10682 2.41023 8.27379C2.5772 8.44076 2.671 8.66722 2.671 8.90335V12.7496C2.57956 12.7841 2.49035 12.8242 2.4039 12.8698C2.20119 12.9869 2.02356 13.1427 1.88116 13.3285C1.73876 13.5143 1.63439 13.7264 1.57403 13.9525C1.51366 14.1787 1.49848 14.4146 1.52935 14.6466C1.56023 14.8787 1.63655 15.1023 1.75396 15.3048L3.97979 19.16L4.74993 18.7148L2.5241 14.8597C2.45968 14.7583 2.41642 14.645 2.39693 14.5265C2.37745 14.4081 2.38213 14.2868 2.41069 14.1702C2.43926 14.0536 2.49113 13.9439 2.56317 13.8479C2.63521 13.7518 2.72594 13.6713 2.8299 13.6112C2.93386 13.5511 3.0489 13.5127 3.1681 13.4982C3.28731 13.4837 3.40821 13.4935 3.52353 13.527C3.63885 13.5604 3.74622 13.6169 3.83916 13.6929C3.93211 13.7689 4.00871 13.8629 4.06437 13.9693L7.12267 19.2624V22.2583H2.671V21.8132C2.67124 21.7126 2.63663 21.6151 2.57306 21.5372L0.890335 19.4315ZM8.013 25.8197H1.78067V23.1487H8.013V25.8197Z" fill="#444444"/>
<path d="M6.23236 24.0389H7.12269V24.9293H6.23236V24.0389Z" fill="#444444"/>
<path d="M12.9099 24.4841H13.8002V25.3745H12.9099V24.4841Z" fill="#444444"/>
<path d="M10.2388 22.7035H11.1292V23.5938H10.2388V22.7035Z" fill="#444444"/>
</svg>
