<svg width="17" height="22" viewBox="0 0 17 22" fill="none" xmlns="http://www.w3.org/2000/svg">
<path d="M14.1516 0.465454H0.600384C0.26937 0.465454 0 0.752486 0 1.1053V21.1954C0 21.5482 0.269331 21.8353 0.600384 21.8353H14.1516C15.7222 21.8353 17 20.4735 17 18.7997V3.50106C17 1.8272 15.7223 0.465454 14.1516 0.465454ZM1.96983 20.5815H1.17653V1.71926H1.96983V20.5815ZM15.8236 18.7997C15.8236 19.7822 15.0736 20.5815 14.1516 20.5815H3.14624V1.71926H14.1516C15.0735 1.71926 15.8236 2.51854 15.8236 3.50106V18.7997Z" fill="#444444"/>
<path d="M10.7756 9.68011C10.7756 9.67065 10.7752 9.68948 10.7756 9.68011V9.68011Z" fill="#444444"/>
<path d="M12.1483 8.66648C12.0652 8.66648 11.9829 8.67274 11.9018 8.68505C11.6799 7.56702 10.7485 6.73718 9.64398 6.73718C8.67886 6.73718 7.8507 7.37198 7.50657 8.27014C7.33718 8.22014 7.16083 8.19392 6.98142 8.19392C5.89904 8.19392 5.01855 9.13232 5.01855 10.2858C5.01855 11.221 5.59736 12.0146 6.39317 12.2816V14.4047C6.39317 14.7509 6.65655 15.0316 6.98142 15.0316H12.1483C12.4732 15.0316 12.7365 14.7509 12.7365 14.4047V12.2684C13.408 12.0107 13.8894 11.3252 13.8894 10.522C13.8894 9.4989 13.1083 8.66648 12.1483 8.66648ZM11.56 13.7778H7.56966V12.3776H11.56V13.7778ZM12.1483 11.1238H6.98142C6.54779 11.1238 6.195 10.7479 6.195 10.2857C6.195 9.82354 6.54779 9.44761 6.98142 9.44761C7.18057 9.44761 7.36425 9.53476 7.51644 9.67141C7.89758 10.0138 8.49992 9.86023 8.51238 9.19685C8.51238 8.53188 9.01998 7.99091 9.64394 7.99091C10.2423 7.99091 10.7372 8.48709 10.7735 9.12184C10.7745 9.18136 10.7754 9.56043 10.7755 9.68026C10.7755 9.99592 11.0143 10.2818 11.3105 10.2818C11.4739 10.2818 11.6439 10.2037 11.7636 10.0808L11.7641 10.081C11.8688 9.97739 12.0052 9.92029 12.1482 9.92029C12.4596 9.92029 12.7129 10.1903 12.7129 10.522C12.7129 10.8538 12.4596 11.1238 12.1483 11.1238Z" fill="#444444"/>
</svg>
