<svg width="64" height="45" viewBox="0 0 64 45" fill="none" xmlns="http://www.w3.org/2000/svg">
<path d="M5.35668 19.9718L13.7289 19.9269C14.3568 19.9236 14.7726 19.5646 14.769 19.0289C14.7655 18.4932 14.345 18.1387 13.7171 18.1421L5.34489 18.1869C4.71701 18.1903 4.30118 18.5493 4.30472 19.0849C4.30826 19.6206 4.72879 19.9751 5.35668 19.9718Z" fill="#115C07"/>
<path d="M17.9143 19.9049L26.2865 19.86C26.9144 19.8567 27.3302 19.4977 27.3267 18.962C27.3231 18.4263 26.9026 18.0718 26.2747 18.0752L17.9025 18.12C17.2746 18.1234 16.8588 18.4824 16.8623 19.018C16.8659 19.5537 17.2864 19.9082 17.9143 19.9049Z" fill="#115C07"/>
<path d="M5.38011 23.5409L18.9839 23.468C19.6117 23.4647 20.0276 23.1057 20.024 22.57C20.0205 22.0343 19.6 21.6798 18.9721 21.6832L5.36833 21.756C4.74045 21.7594 4.32462 22.1184 4.32816 22.654C4.33169 23.1897 4.75223 23.5442 5.38011 23.5409Z" fill="#115C07"/>
<path d="M26.2968 21.644L23.1574 21.6608C22.5295 21.6641 22.1137 22.0231 22.1172 22.5588C22.1208 23.0945 22.5413 23.449 23.1692 23.4456L26.3086 23.4288C26.9365 23.4255 27.3523 23.0665 27.3488 22.5308C27.3452 21.9951 26.9247 21.6406 26.2968 21.644Z" fill="#115C07"/>
<path d="M61.9106 10.3966C61.173 9.59745 60.2282 9.15593 59.0761 9.0731L56.5628 8.82698L56.5458 6.32076L56.5337 4.53598C56.5205 2.57345 54.626 0.977346 52.3241 0.989422L4.18549 1.24196C1.88365 1.25403 0.0108613 2.8699 0.0241338 4.83243L0.0362042 6.61721L0.0844789 13.7553L0.217225 33.3837C0.228122 34.9949 1.50788 36.359 3.23876 36.789C3.19823 38.5939 4.81042 40.1528 6.96132 40.3078L55.3398 44.6934C55.444 44.6928 55.6537 44.6917 55.758 44.6912C57.8513 44.6802 59.7259 43.332 59.923 41.636L62.8699 12.9794C62.9681 12.087 62.6475 11.1069 61.9106 10.3966ZM2.13559 7.49809L54.4597 7.2236L54.4754 9.54371L54.4959 12.5769L2.1718 12.8514L2.13559 7.49809ZM4.19756 3.02674L52.335 2.77421C53.4865 2.76817 54.4338 3.56622 54.4404 4.548L54.4464 5.43987L2.12353 5.71436L2.1175 4.82249C2.11086 3.84071 3.04725 3.03277 4.19756 3.02674ZM2.31058 33.3727L2.18387 14.6362L54.508 14.3617L54.6347 33.0982C54.6413 34.08 53.7049 34.8879 52.5534 34.8939L4.52025 35.1459L4.41601 35.1465C3.26448 35.1525 2.31722 34.3545 2.31058 33.3727ZM60.7741 12.6339L57.8284 41.2905C57.7308 42.2728 56.6883 42.9914 55.5374 42.9085L7.26319 38.5214C6.21652 38.438 5.47834 37.7277 5.36867 36.9253L52.5643 36.6777C54.8661 36.6656 56.7389 35.0497 56.7256 33.0872L56.5929 13.4588L56.5729 10.5145L58.9815 10.6807C59.5051 10.6779 60.0293 10.9429 60.3457 11.2978C60.6633 11.6526 60.8766 12.1869 60.7741 12.6339Z" fill="#115C07"/>
</svg>
