<svg width="61" height="62" viewBox="0 0 61 62" fill="none" xmlns="http://www.w3.org/2000/svg">
<g clip-path="url(#clip0)">
<path d="M20.9905 4.87439C20.7878 4.52727 20.4078 4.31913 20.0073 4.33474C18.4164 4.39563 10.3671 4.76123 8.16386 6.04356C5.56968 7.5538 4.68889 10.8905 6.20027 13.4822C6.93267 14.7378 8.11088 15.6331 9.51759 16.0035C9.98 16.1259 10.4494 16.1859 10.915 16.1859C11.866 16.1859 12.8043 15.935 13.648 15.4432C15.8506 14.1615 20.1381 7.34693 20.9752 5.99447C21.1871 5.65246 21.1925 5.22214 20.9905 4.87439ZM12.5518 13.5638C11.7971 14.0024 10.9179 14.1204 10.0732 13.8995C9.2291 13.677 8.52319 13.1402 8.08312 12.3867C7.17616 10.8318 7.70463 8.82943 9.26133 7.92387C10.361 7.28414 14.5923 6.83247 17.9968 6.61763C16.1305 9.4698 13.6509 12.9241 12.5518 13.5638Z" fill="#115C07"/>
<path d="M30.2275 10.7394C18.6653 10.7394 9.25873 20.1343 9.25873 31.6821C9.25873 43.2299 18.6653 52.6247 30.2275 52.6247C41.7898 52.6247 51.1964 43.2299 51.1964 31.6821C51.1964 20.1343 41.7898 10.7394 30.2275 10.7394ZM30.2275 50.4488C19.8668 50.4488 11.4374 42.0299 11.4374 31.6821C11.4374 21.3343 19.8668 12.9154 30.2275 12.9154C40.5883 12.9154 49.0177 21.3343 49.0177 31.6821C49.0177 42.0299 40.5883 50.4488 30.2275 50.4488Z" fill="#115C07"/>
<path d="M22.6936 20.1056C21.3795 18.7937 20.9879 16.4498 20.8902 14.715C20.8685 14.3319 20.6467 13.9889 20.3062 13.8114C19.9657 13.6342 19.5569 13.6482 19.2301 13.8499C14.7854 16.5904 11.5398 20.8495 10.0904 25.8437C10.0058 26.134 10.0467 26.4464 10.2021 26.7058C10.3578 26.9653 10.615 27.1485 10.9112 27.211C13.5618 27.772 13.9001 28.3925 13.903 28.3986C14.4819 29.5549 15.4003 30.2893 16.4889 30.4662C16.6599 30.4939 16.8341 30.5076 17.0097 30.5076C18.2035 30.5076 19.4874 29.8727 20.6806 28.6803C20.9234 28.4387 21.18 28.1968 21.4398 27.953C22.7622 26.709 24.2621 25.2983 24.2899 23.4255C24.3068 22.2975 23.7697 21.1807 22.6936 20.1056ZM19.9463 26.3705C19.6712 26.6293 19.3983 26.8862 19.1408 27.1434C18.2938 27.9903 17.4568 28.4136 16.8393 28.3189C16.4493 28.2552 16.1171 27.9549 15.8522 27.4258C15.4077 26.5391 14.3418 25.8746 12.5333 25.3675C13.7664 21.9138 15.9824 18.9078 18.9155 16.6994C19.2672 18.8508 20.0177 20.5098 21.1538 21.6444C21.7975 22.2873 22.1201 22.876 22.1125 23.3939C22.0978 24.3469 21.0042 25.3758 19.9463 26.3705Z" fill="#115C07"/>
<path d="M32.039 35.6898C31.5571 33.7653 30.435 32.2721 28.7935 31.3723C26.9898 30.3839 24.6707 30.2077 22.5855 30.9003C19.3378 31.9824 17.5842 33.4303 18.8766 37.3032C19.7628 39.9573 21.4647 40.2569 22.8328 40.4975C23.4047 40.5982 23.9456 40.6932 24.4559 40.9485C24.9799 41.2102 24.8299 43.9012 23.9096 46.6687C23.7468 47.1567 23.9495 47.6918 24.3937 47.9519C24.5625 48.0498 25.7557 48.7172 27.0581 48.7172C27.4656 48.7172 27.8833 48.6518 28.2845 48.4832C28.8895 48.2286 29.6832 47.638 30.0256 46.2703C30.3307 45.0502 30.7357 44.021 31.1279 43.0256C31.9924 40.8325 32.8074 38.7604 32.039 35.6898ZM29.1008 42.2295C28.7025 43.2395 28.2516 44.385 27.9117 45.7425C27.7624 46.3407 27.5195 46.4443 27.4401 46.4778C27.1532 46.5986 26.6965 46.5348 26.2701 46.4029C26.8915 44.2097 27.6867 40.1287 25.4302 39.0017C24.6362 38.6058 23.8789 38.4723 23.2104 38.3544C21.9801 38.1383 21.4191 38.0395 20.9436 36.6148C20.2093 34.4149 20.5581 33.8692 23.2748 32.9647C24.7916 32.4582 26.4635 32.5781 27.7448 33.2796C28.8563 33.8893 29.5906 34.8774 29.9254 36.2176C30.5244 38.6125 29.9276 40.1297 29.1008 42.2295Z" fill="#115C07"/>
<path d="M49.7013 23.9178C48.0195 19.7135 44.9569 16.1061 41.0779 13.7587C40.6518 13.5008 40.1061 13.5646 39.7516 13.9117C34.6733 18.8714 34.2339 20.6024 34.4729 21.6415C34.6111 22.2426 35.0474 22.7054 35.67 22.9125C37.3409 23.4681 38.7026 24.0281 39.5608 24.4042C39.1162 25.0483 38.3139 25.819 37.0211 25.819C31.8251 25.819 28.886 25.9162 28.886 27.9121C28.886 28.8418 29.7706 29.661 32.2987 31.7646C33.2274 32.5375 34.6063 33.6852 34.9363 34.1538C35.0652 35.5848 36.3258 39.8147 37.2576 40.746C37.908 41.3949 39.032 41.9635 40.2264 41.9629C40.5417 41.9629 40.8609 41.9237 41.1784 41.8357C42.1766 41.5594 43.4965 40.7097 44.1179 38.2293C44.5257 36.5981 44.6221 35.1157 44.7006 33.9249C44.8276 31.9749 44.9355 31.209 45.5613 30.896C46.2981 30.5279 47.528 29.492 49.6809 24.7726C49.8037 24.502 49.8114 24.1935 49.7013 23.9178ZM44.587 28.9499C42.7836 29.8512 42.6588 31.7611 42.5267 33.7834C42.4511 34.9448 42.3649 36.2612 42.0043 37.7015C41.8023 38.5092 41.3938 39.5183 40.5963 39.7391C39.9233 39.9253 39.1235 39.5313 38.8105 39.2196C38.3043 38.6207 37.1048 34.7396 37.1048 33.9444C37.1048 33.0153 36.2208 32.1964 33.6936 30.0932C33.0209 29.5328 32.1114 28.7768 31.5357 28.2235C32.8853 27.995 35.5812 27.995 37.0218 27.995C40.783 27.995 42.0305 24.3886 42.0815 24.2353C42.2526 23.7218 42.0199 23.1599 41.5352 22.9176C41.4528 22.8769 39.5569 21.9356 36.6759 20.9549C36.8795 20.4437 37.6623 19.076 40.6614 16.0739C43.6727 18.0889 46.0725 20.9718 47.5009 24.2981C45.6104 28.3465 44.6894 28.8989 44.587 28.9499Z" fill="#115C07"/>
<path d="M30.4998 0.94751C29.8986 0.94751 29.4107 1.43484 29.4107 2.03533C29.4107 2.63581 29.8986 3.12315 30.4998 3.12315C46.1163 3.12315 58.8213 15.812 58.8213 31.4093C58.8213 47.0065 46.1166 59.6954 30.4998 59.6954C14.8831 59.6954 2.17867 47.0065 2.17867 31.4093C2.17867 24.082 4.97262 17.1347 10.0455 11.8458C10.461 11.4117 10.4463 10.7229 10.0123 10.3076C9.57825 9.89324 8.88862 9.90663 8.47216 10.3407C3.00872 16.0364 0 23.5185 0 31.4093C0 48.2062 13.6819 61.871 30.4998 61.871C47.3178 61.871 60.9997 48.2062 60.9997 31.4093C60.9997 14.6123 47.3178 0.94751 30.4998 0.94751Z" fill="#115C07"/>
</g>
<defs>
<clipPath id="clip0">
<rect width="61" height="60.9239" fill="white" transform="translate(0 0.94751)"/>
</clipPath>
</defs>
</svg>
