<svg width="22" height="23" viewBox="0 0 22 23" fill="none" xmlns="http://www.w3.org/2000/svg">
<g clip-path="url(#clip0)">
<path d="M20.9956 15.1777C20.3761 14.8463 19.628 14.8824 19.0434 15.272L15.9745 17.3167C15.8764 16.3424 15.0511 15.5792 14.0508 15.5792H10.8281L10.4077 15.2641C9.57047 14.6365 8.53304 14.2909 7.48644 14.2909C6.60421 14.2909 5.738 14.5307 4.98145 14.9843L4.81246 15.0857V14.5056C4.81246 14.1499 4.52388 13.8615 4.16793 13.8615H0.644531C0.288578 13.8615 0 14.1499 0 14.5056V22.2357C0 22.5914 0.288578 22.8798 0.644531 22.8798H4.16797C4.52392 22.8798 4.8125 22.5914 4.8125 22.2357V22.0209H14.9642C15.6228 22.0209 16.2571 21.8229 16.7985 21.4482L21.1807 18.4161C21.6937 18.0612 22 17.4771 22 16.8534C22 16.1512 21.6152 15.509 20.9956 15.1777ZM3.52344 21.5915H1.28906V15.1498H3.52344V21.5915ZM20.447 17.3568L16.0648 20.389C15.7399 20.6138 15.3594 20.7326 14.9642 20.7326H4.8125V16.5881L5.64472 16.0891C6.20095 15.7556 6.83779 15.5792 7.48644 15.5792C8.25589 15.5792 9.01867 15.8333 9.63424 16.2948L10.2266 16.7387C10.3382 16.8224 10.4738 16.8676 10.6133 16.8676H14.0508C14.4062 16.8676 14.6953 17.1566 14.6953 17.5118C14.6953 17.8669 14.4062 18.1559 14.0508 18.1559H9.32422C8.96827 18.1559 8.67969 18.4443 8.67969 18.8001C8.67969 19.1558 8.96827 19.4443 9.32422 19.4443H14.3898C14.8578 19.4443 15.3111 19.3071 15.7007 19.0476L19.7584 16.344C20.0339 16.1603 20.2901 16.2615 20.3874 16.3136C20.4847 16.3656 20.711 16.5224 20.711 16.8534C20.7109 17.0543 20.6123 17.2425 20.447 17.3568Z" fill="#444444"/>
<path d="M9.75391 11.6283C12.4154 11.6283 14.6306 9.6833 15.0523 7.14089C15.5922 7.74564 16.0287 8.43936 16.3368 9.18763H15.7695C15.5195 9.18763 15.2919 9.33223 15.1858 9.55859C15.0798 9.78495 15.1143 10.0522 15.2744 10.2442L18.0674 13.5939C18.1898 13.7408 18.3712 13.8257 18.5625 13.8257C18.7538 13.8257 18.9352 13.7407 19.0576 13.5939L21.8506 10.2442C22.0107 10.0522 22.0452 9.78495 21.9392 9.55859C21.8331 9.33223 21.6055 9.18763 21.3555 9.18763H20.4173C19.8477 6.93905 18.5634 4.90416 16.7625 3.41359C14.798 1.78757 12.309 0.89209 9.75391 0.89209C6.79229 0.89209 4.38281 3.30021 4.38281 6.26018C4.38281 9.22014 6.79229 11.6283 9.75391 11.6283ZM14.2137 3.26526C14.8255 3.58112 15.4049 3.96272 15.9403 4.40587C17.6517 5.82236 18.8346 7.79455 19.2712 9.95914C19.3318 10.2598 19.5962 10.476 19.903 10.476H19.9794L18.5625 12.1753L17.1456 10.476H17.2367C17.4377 10.476 17.6272 10.3822 17.7491 10.2225C17.8711 10.0628 17.9114 9.85534 17.8583 9.66157C17.3977 7.98123 16.4047 6.46344 15.0494 5.35993C15.0492 5.35984 15.0491 5.35971 15.049 5.35963C14.9194 4.59646 14.6285 3.88753 14.2121 3.26951C14.2127 3.26805 14.2132 3.26667 14.2137 3.26526ZM9.75391 2.18043C12.0047 2.18043 13.8359 4.01061 13.8359 6.26018C13.8359 8.50975 12.0047 10.3399 9.75391 10.3399C7.50307 10.3399 5.67188 8.50975 5.67188 6.26018C5.67188 4.01061 7.50307 2.18043 9.75391 2.18043Z" fill="#444444"/>
<path d="M9.75391 6.90433C9.99084 6.90433 10.1836 7.09698 10.1836 7.33378C10.1836 7.57058 9.99084 7.76323 9.75391 7.76323C9.55041 7.76323 9.37337 7.61902 9.33298 7.42031C9.26217 7.07169 8.92199 6.84653 8.57304 6.91722C8.22418 6.98803 7.99885 7.32807 8.06966 7.67674C8.18658 8.25202 8.58851 8.71329 9.10933 8.92527V9.05157C9.10933 9.40732 9.39791 9.69574 9.75386 9.69574C10.1098 9.69574 10.3984 9.40732 10.3984 9.05157V8.92578C11.0276 8.67039 11.4726 8.05323 11.4726 7.33378C11.4726 6.38659 10.7016 5.61599 9.75386 5.61599C9.51693 5.61599 9.32418 5.42334 9.32418 5.18654C9.32418 4.94975 9.51693 4.7571 9.75386 4.7571C9.95736 4.7571 10.1344 4.90131 10.1748 5.10001C10.2456 5.44864 10.586 5.67388 10.9347 5.60311C11.2836 5.53229 11.5089 5.19226 11.4381 4.84359C11.3212 4.2683 10.9193 3.80707 10.3984 3.5951V3.46876C10.3984 3.113 10.1099 2.82458 9.75391 2.82458C9.39795 2.82458 9.10938 3.113 9.10938 3.46876V3.59454C8.48018 3.84993 8.03516 4.46709 8.03516 5.18654C8.03516 6.13373 8.80619 6.90433 9.75391 6.90433Z" fill="#444444"/>
</g>
<defs>
<clipPath id="clip0">
<rect width="22" height="21.9877" fill="white" transform="translate(0 0.89209)"/>
</clipPath>
</defs>
</svg>
