<?xml version="1.0" encoding="utf-8"?>
<!-- Generator: Adobe Illustrator 23.0.0, SVG Export Plug-In . SVG Version: 6.00 Build 0)  -->
<svg version="1.1" id="Layer_1" xmlns="http://www.w3.org/2000/svg" xmlns:xlink="http://www.w3.org/1999/xlink" x="0px" y="0px"
	 viewBox="0 0 200 200" style="enable-background:new 0 0 200 200;" xml:space="preserve">
<style type="text/css">
	.st0{fill:#115C07;}
</style>
<path class="st0" d="M154.11,100c0-29.82-24.29-54.08-54.11-54.08S45.89,70.18,45.89,100c0,15.75,6.79,29.95,17.56,39.84l-0.06,0.05
	l1.74,1.48c0.12,0.1,0.24,0.17,0.36,0.27c0.96,0.77,1.92,1.51,2.89,2.22c0.36,0.23,0.66,0.46,0.96,0.68
	c1.08,0.72,2.16,1.41,3.25,2.06c0.24,0.14,0.48,0.28,0.72,0.42c1.2,0.69,2.46,1.33,3.73,1.93c0.06,0.04,0.18,0.08,0.24,0.13
	c4.15,1.91,8.54,3.31,13.11,4.14c0.12,0.02,0.24,0.04,0.36,0.06c1.44,0.25,2.89,0.44,4.33,0.57c0.18,0.02,0.36,0.03,0.54,0.04
	c1.44,0.12,2.89,0.2,4.39,0.2s2.95-0.08,4.39-0.19c0.18-0.02,0.36-0.03,0.54-0.04c1.44-0.13,2.89-0.32,4.27-0.56
	c0.12-0.02,0.24-0.04,0.36-0.07c4.51-0.81,8.84-2.18,12.93-4.04c0.12-0.07,0.3-0.13,0.42-0.2c1.26-0.57,2.4-1.19,3.61-1.84
	c0.24-0.16,0.54-0.33,0.84-0.5c1.08-0.62,2.1-1.27,3.13-1.97c0.36-0.25,0.72-0.51,1.08-0.77c0.84-0.62,1.68-1.26,2.53-1.93
	c0.18-0.15,0.36-0.28,0.54-0.43l1.8-1.5l-0.06-0.05C147.26,130.09,154.11,115.83,154.11,100z M49.8,100
	c0-27.65,22.55-50.15,50.2-50.15s50.2,22.5,50.2,50.15c0,14.9-6.55,28.3-16.95,37.49c-0.54-0.4-1.14-0.76-1.74-1.06l-16.65-8.32
	c-1.5-0.75-2.41-2.25-2.41-3.92v-5.81c0.36-0.48,0.78-1.01,1.2-1.61c2.16-3.04,3.91-6.43,5.17-10.07c2.47-1.18,4.09-3.67,4.09-6.47
	v-6.97c0-1.71-0.66-3.36-1.74-4.66v-9.18c0.12-1.02,0.48-6.78-3.73-11.53c-3.61-4.14-9.5-6.23-17.44-6.23s-13.83,2.09-17.44,6.23
	c-4.21,4.75-3.85,10.51-3.73,11.53v9.18c-1.08,1.3-1.74,2.95-1.74,4.66v6.97c0,2.16,0.96,4.19,2.65,5.55
	c1.62,6.24,4.87,10.96,6.07,12.56v5.69c0,1.6-0.84,3.08-2.28,3.85l-15.57,8.48c-0.48,0.27-0.96,0.58-1.44,0.94
	C56.29,128.11,49.8,114.79,49.8,100z M129.46,140.57c-0.72,0.5-1.44,0.98-2.1,1.45c-0.36,0.21-0.66,0.42-1.02,0.63
	c-0.9,0.57-1.86,1.12-2.83,1.63c-0.18,0.11-0.42,0.22-0.66,0.33c-2.17,1.13-4.51,2.11-6.85,2.9c-0.06,0.03-0.12,0.06-0.24,0.08
	c-1.2,0.41-2.47,0.77-3.73,1.09v0c-1.32,0.32-2.59,0.58-3.91,0.79c0,0.01-0.06,0.01-0.06,0.02c-1.26,0.2-2.46,0.34-3.73,0.45
	c-0.18,0.02-0.42,0.03-0.66,0.05c-1.2,0.09-2.41,0.15-3.67,0.15s-2.47-0.06-3.73-0.15c-0.24-0.02-0.42-0.03-0.66-0.05
	c-1.2-0.11-2.47-0.26-3.73-0.46c0-0.01-0.06-0.02-0.12-0.03c-2.65-0.43-5.17-1.07-7.7-1.91c-0.06-0.03-0.12-0.05-0.18-0.08
	c-1.26-0.42-2.46-0.89-3.67-1.4c-0.06,0-0.06-0.01-0.06-0.01c-1.14-0.49-2.22-1.03-3.37-1.6c-0.12-0.08-0.24-0.15-0.42-0.22
	c-1.02-0.54-1.98-1.12-2.95-1.72c-0.3-0.18-0.6-0.36-0.84-0.55c-0.9-0.58-1.8-1.19-2.64-1.83c-0.12-0.07-0.18-0.14-0.24-0.2
	c0.06-0.04,0.12-0.07,0.18-0.11l15.57-8.48c2.65-1.46,4.33-4.26,4.33-7.3v-7.08l-0.48-0.55c-0.06-0.05-4.27-5.22-5.89-12.22
	l-0.18-0.78l-0.66-0.43c-0.96-0.61-1.5-1.63-1.5-2.74v-6.97c0-0.91,0.36-1.77,1.08-2.41l0.66-0.59V79.3l-0.06-0.26
	c0-0.05-0.54-4.78,2.77-8.57c2.83-3.24,7.7-4.89,14.49-4.89c6.73,0,11.6,1.63,14.43,4.85c3.37,3.76,2.83,8.58,2.83,8.62l-0.06,11.21
	l0.66,0.59c0.72,0.64,1.08,1.49,1.08,2.4v6.97c0,1.4-0.9,2.67-2.28,3.1l-1.02,0.3l-0.3,0.97c-1.14,3.6-2.83,6.93-4.87,9.9
	c-0.54,0.73-1.02,1.37-1.5,1.87l-0.48,0.56v7.27c0,3.17,1.8,6.02,4.63,7.44l16.65,8.32c0.12,0.05,0.18,0.11,0.3,0.16
	C129.88,140.27,129.64,140.42,129.46,140.57z"/>
</svg>
