<?xml version="1.0" encoding="utf-8"?>
<!-- Generator: Adobe Illustrator 23.0.0, SVG Export Plug-In . SVG Version: 6.00 Build 0)  -->
<svg version="1.1" id="Layer_1" xmlns="http://www.w3.org/2000/svg" xmlns:xlink="http://www.w3.org/1999/xlink" x="0px" y="0px"
	 viewBox="0 0 200 200" style="enable-background:new 0 0 200 200;" xml:space="preserve">
<style type="text/css">
	.st0{fill:#E2382A;}
	.st1{fill:#FFFFFF;}
</style>
<g>
	<rect x="25.75" y="55.45" class="st0" width="148.49" height="89.1"/>
	<rect x="25.75" y="73.27" class="st1" width="148.49" height="53.46"/>
	<path class="st0" d="M93.22,81.18c-0.68-0.33-1.92-0.13-3.06-0.32c-2.29-0.37-2.57-1.01-2.57-1.49c-0.01-0.5-0.46-0.53-0.46,0.01
		c0.01,3.18,4.79,1.55,6.15,2.37 M77.67,80.09c0.01-0.86-0.57-1.41-1.09-1.45c0.31,0.35,0.37,0.87,0.42,1.37
		c-0.1-0.71-0.62-1.17-1.08-1.2c0.24,0.26,0.38,0.78,0.4,1.3c-0.07-0.39-0.44-0.98-1.05-1.04c0.28,0.29,0.37,0.84,0.43,1.34
		c-0.09-0.43-0.53-0.92-1.01-0.95c0.21,0.17,0.38,0.79,0.42,1.27c-0.06-0.2-0.4-0.67-0.94-0.73c0.28,0.26,0.4,0.88,0.45,1.37
		 M76.75,93.02c-0.15-0.67-0.73-1.38-1.39-1.3c0.31,0.21,0.54,0.99,0.62,1.49c-0.21-0.56-0.72-1.16-1.33-1.09
		c0.33,0.29,0.53,1.01,0.65,1.55c-0.33-0.62-0.73-1.09-1.33-1.01c0.4,0.39,0.55,1.08,0.65,1.6c-0.2-0.44-0.65-0.98-1.26-0.92
		c0.38,0.34,0.54,1.09,0.67,1.64c-0.24-0.33-0.61-0.79-1.19-0.75c0.38,0.37,0.55,1.09,0.71,1.64 M78.71,116.94
		c-0.65-0.39-1.54-0.26-1.96,0.28c0.46-0.09,1.15,0.17,1.42,0.39c-0.44-0.28-1.36-0.11-1.71,0.38c0.42-0.11,1.09,0.17,1.44,0.38
		c-0.46-0.16-1.19-0.12-1.64,0.43c0.38-0.09,1,0.12,1.41,0.35c-0.57-0.13-1.14,0.09-1.47,0.48c0.5-0.11,1.06,0.18,1.41,0.34
		c-0.65-0.01-1.04,0.24-1.27,0.51c0.42-0.09,1.05,0.13,1.52,0.38 M95.71,120.96c-0.84-0.11-1.54,0.4-1.75,1
		c0.23-0.18,0.97-0.29,1.44-0.15c-0.66-0.04-1.32,0.5-1.45,0.99c0.27-0.22,1.12-0.28,1.44-0.15c-0.6,0.02-1.17,0.48-1.34,0.98
		c0.28-0.18,1.06-0.26,1.5-0.15c-0.65,0.1-1.11,0.56-1.26,0.99c0.39-0.26,0.9-0.23,1.54-0.2c-0.66,0.24-0.88,0.53-1.1,0.97
		c0.37-0.23,1.01-0.24,1.65-0.2"/>
	<path d="M91.33,76.09l-2.98,0.11c-0.15,0.01-0.26,0.09-0.26,0.26c0.01,1.08,0.22,1.77,0.99,2.33c-0.1,0.6-0.04,0.9,0.59,1.41
		c0.06-0.49,0.26-0.71,0.56-0.92c0.02,0.01,0.05,0.01,0.06,0.02c-0.04,0.22-0.04,0.45,0.01,0.59c0.12,0.34,0.72,0.35,0.88,0.11
		c0.15,0.35,0.45,0.37,0.7,0.37c0.26,0,0.38-0.18,0.46-0.35c0.15,0.12,0.29,0.26,0.43,0.43c0.43,0.59,0.5,1.34,0.5,2.07l-0.4,0.04
		v-0.29c-0.01-0.42-0.98-0.49-1.2-0.13c-0.24-0.27-1-0.22-1,0.21v0.13c-0.17-0.22-0.31-0.45-0.42-0.68
		c-0.31,0.2-0.49,0.34-0.44,1.04c-0.13,0.01-0.27,0.02-0.39,0.04c0.01,0.81,0.37,1.03,3.25,0.97c0.07,0.81-0.73,1.26-1.33,1.64
		c-1.56,0.89-3.21,1.87-4.11,3.51c-0.75,1.3-0.93,2.84-0.84,4.33l0.86-0.38l0.1,0.46c-1.54,0.73-4.35,2.22-6.2,3.08
		c-0.45,0.21-1.63,0.5-1.87,0.09c-0.84-1.45-1.52-2.55-2.49-3.67c-0.5-0.57-3.83,2.18-3.21,3.1c1.39,2.11,3.67,5.15,7.46,5.17
		c3.92,0.02,7.33-1.42,8.08-1.64l0.16,0.5c-0.5,0.22-0.94,0.38-1.47,0.55c0.68,2.69,1.48,3.74,3.32,5.38l-0.38,0.28
		c-0.33-0.2-0.89-0.82-1.2-1.11c-3.92,1.86-5.39,3.72-6.33,5.63c-1.04,2.31-0.84,4.94-0.4,7.37c0.09,0.4-0.35,0.6-0.68,0.48
		c-0.9-0.21-1.41-1.11-2.27-1.44c-0.39-0.17-0.9-0.37-1.33-0.29c-0.7,0.12-1.44,3.64-0.73,3.98c1.32,0.65,2.76,0.78,4.23,1.54
		c0.97,0.39,1.89,1.03,2.99,0.86c0.62-0.06,1.25-0.49,1.31-1.15c0.55-2.37,1.32-4.89,3.13-6.6c0.87-0.86,1.99-1.54,3.1-2.07
		c-0.44-1.69-0.77-3.37-0.73-5.13l0.54-0.02c0.39,6.7,2.18,8.1,5.32,11.22c0.32,0.32,0.29,0.92-0.17,1.1
		c-0.61,0.31-1.33,0.32-2.03,0.35c-0.75,0.04-0.18,4.17,0.92,4.13c1.93-0.06,3.94-1.56,5.1-3.04c0.49-0.61,1.08-1.22,1.54-1.82
		c0.57-0.75-0.05-1.61-0.22-2.3c-0.48-1.96-0.7-7.58-0.72-8.36l0.68,0.01l0.1-1.42c-2.04-2.53-1.71-6.49-2.55-9.04
		c-0.33-1.04-0.7-2.11-0.7-3.21c0-1.49,1.69-4.29,1.65-6.78c-0.01-1.05-0.6-2.42-0.59-3.04c0.01-1.81,1.05-1.42,1.03-5.18
		c-0.01-1.04-0.13-1.81-0.4-2.87c1.82-1.92-0.68-3.84-2.13-2.64c-1.16-0.31-1.31-0.61-3.58-0.61c-1.94,0-3.06,0.53-4.27,1.33
		 M87.82,87.3c-1.28,1.58-2,2.37-1.96,6.2c-12.11-6.92-8.57-7.91-11.22-12.04c-0.42-0.65,2.29-2.15,3.14-1.52
		c1.72,1.27,1.09,3.67,2.52,4.75C81.72,85.77,84.25,86.25,87.82,87.3 M95.21,78.42c-0.18,0-0.51-0.1-0.61-0.23
		c-1.06-1.63-1.33-1.04-1.49-0.48c-0.13,0.5-0.72,0.51-0.55-0.16c0.43-1.65,1.59-1.42,3.03,0.87 M98.7,76.77
		c0.29-0.39,0.75-0.77,1.23-0.93c0.72-0.24,1.01,0.34,0.44,0.54c-0.48,0.21-0.88,0.5-1.22,0.84 M89.22,78.88
		c0.18,0.11,0.44,0.24,0.82,0.35c-0.21,0.17-0.4,0.42-0.46,0.68C89.25,79.69,89.11,79.26,89.22,78.88 M91.18,79.53
		c0,0.16-0.04,0.32-0.09,0.39c-0.12,0.2-0.57,0.18-0.67-0.09c-0.04-0.11-0.04-0.31,0.01-0.49C90.67,79.41,90.93,79.46,91.18,79.53
		 M91.32,79.57c0.33,0.1,0.65,0.21,0.93,0.39c-0.06,0.15-0.17,0.29-0.39,0.29c-0.2,0-0.42-0.01-0.54-0.24
		C91.26,79.88,91.29,79.71,91.32,79.57 M89.94,82.8c-0.04-0.34,0-0.64,0.27-0.83c0.13,0.24,0.28,0.48,0.45,0.68v0.09 M90.78,82.74
		v-0.38c0-0.4,0.86-0.38,0.87,0v0.31 M91.76,82.65V82.3c0-0.4,0.99-0.38,0.99-0.01v0.27"/>
</g>
</svg>
