<?xml version="1.0" encoding="utf-8"?>
<!-- Generator: Adobe Illustrator 23.0.0, SVG Export Plug-In . SVG Version: 6.00 Build 0)  -->
<svg version="1.1" id="Layer_1" xmlns="http://www.w3.org/2000/svg" xmlns:xlink="http://www.w3.org/1999/xlink" x="0px" y="0px"
	 viewBox="0 0 200 200" style="enable-background:new 0 0 200 200;" xml:space="preserve">
<style type="text/css">
	.st0{fill:#115C07;}
</style>
<g>
	<path class="st0" d="M142.86,145.06H57.25c-6.31,0-11.3-4.96-11.3-11.27V79.72c0-6.31,4.99-11.27,11.3-11.27h85.61
		c6.31,0,11.3,4.96,11.3,11.27v54.08C154.16,140.11,149.17,145.06,142.86,145.06z M57.25,72.96c-3.67,0-6.79,3.15-6.79,6.76v54.08
		c0,3.61,3.13,6.76,6.79,6.76h85.61c3.67,0,6.79-3.15,6.79-6.76V79.72c0-3.61-3.13-6.76-6.79-6.76H57.25z"/>
	<path class="st0" d="M115.8,72.96c-1.32,0-2.22-0.9-2.22-2.25V61.7c0-1.35-0.9-2.25-2.22-2.25H88.75c-1.32,0-2.22,0.9-2.22,2.25
		v9.01c0,1.35-0.9,2.25-2.22,2.25c-1.38,0-2.28-0.9-2.28-2.25V61.7c0-3.61,3.13-6.76,6.73-6.76h22.61c3.55,0,6.73,3.15,6.73,6.76
		v9.01C118.09,72.06,117.19,72.96,115.8,72.96z"/>
	<path class="st0" d="M100.05,109.01c-0.42,0-0.42,0-0.9,0L47.33,90.98c-0.9-0.45-1.8-1.8-1.38-3.15c0.48-0.9,1.8-1.8,3.19-1.35
		l50.92,18.03l50.98-18.03c1.32-0.45,2.22,0,2.71,1.35c0.42,1.35,0,2.25-1.38,2.7l-51.82,18.03
		C100.53,109.01,100.53,109.01,100.05,109.01z"/>
</g>
</svg>
