<?xml version="1.0" encoding="utf-8"?>
<!-- Generator: Adobe Illustrator 23.0.0, SVG Export Plug-In . SVG Version: 6.00 Build 0)  -->
<svg version="1.1" id="Layer_1" xmlns="http://www.w3.org/2000/svg" xmlns:xlink="http://www.w3.org/1999/xlink" x="0px" y="0px"
	 viewBox="0 0 200 200" style="enable-background:new 0 0 200 200;" xml:space="preserve">
<style type="text/css">
	.st0{fill:#EB621D;}
	.st1{fill:#E41522;}
	.st2{fill:#F59E1F;}
	.st3{fill:#077ABF;}
	.st4{fill:#FFFFFF;}
	.st5{fill:#221F20;}
</style>
<g>
	<rect x="275.34" y="938.77" class="st0" width="29.66" height="45.56"/>
	<path class="st1" d="M278.41,961.51c0-4.38,1.06-8.71,3.1-12.65c2.04-3.94,5.01-7.39,8.69-10.09c-4.52-3.35-9.96-5.43-15.68-6.01
		c-5.72-0.58-11.5,0.36-16.68,2.73c-5.18,2.36-9.54,6.05-12.6,10.64c-3.05,4.59-4.67,9.89-4.67,15.3c0,5.41,1.62,10.72,4.67,15.3
		c3.05,4.59,7.42,8.27,12.6,10.64c5.18,2.36,10.96,3.31,16.68,2.73c5.72-0.58,11.16-2.66,15.68-6.01
		c-3.65-2.68-6.61-6.11-8.65-10.02C279.51,970.16,278.43,965.86,278.41,961.51z"/>
	<path class="st2" d="M340.05,961.51c0.06,5.46-1.53,10.82-4.59,15.46c-3.06,4.64-7.45,8.37-12.67,10.76s-11.06,3.33-16.83,2.72
		s-11.24-2.75-15.77-6.16c3.19-2.34,5.86-5.25,7.85-8.57s3.26-6.97,3.74-10.75c0.48-3.78,0.16-7.61-0.94-11.28
		c-1.1-3.66-2.97-7.08-5.48-10.07c-1.52-1.81-3.25-3.46-5.17-4.9c4.53-3.42,10-5.55,15.77-6.16s11.61,0.33,16.83,2.72
		c5.22,2.39,9.62,6.12,12.67,10.76C338.51,950.68,340.1,956.05,340.05,961.51z"/>
</g>
<g>
	<path class="st3" d="M48.29,128.09c11.88,0,22.71-12.57,22.71-27.88c-0.04-3.79-0.67-7.53-1.84-11.01
		c-1.17-3.48-2.86-6.62-4.97-9.25c-2.11-2.63-4.6-4.69-7.33-6.07c-2.73-1.38-5.64-2.04-8.57-1.95H38.06
		c-2.89-0.07-5.75,0.61-8.43,2.01c-2.68,1.4-5.11,3.48-7.15,6.12c-2.04,2.64-3.65,5.79-4.73,9.25c-1.08,3.47-1.61,7.18-1.55,10.91
		c0.08,7.43,2.42,14.52,6.51,19.74c4.09,5.22,9.6,8.14,15.34,8.14H48.29z"/>
	<path class="st4" d="M42.53,115.17V84.71c2.38,1.18,4.43,3.27,5.87,5.99c1.44,2.72,2.22,5.94,2.22,9.24c0,3.3-0.77,6.52-2.22,9.24
		C46.95,111.9,44.91,113.99,42.53,115.17z M25.53,99.93c0-3.3,0.77-6.52,2.22-9.23s3.49-4.8,5.87-5.98v30.43
		c-2.38-1.18-4.43-3.26-5.87-5.98C26.3,106.45,25.53,103.23,25.53,99.93z M38.11,74.18c-3.93,0-7.78,1.51-11.05,4.34
		c-3.27,2.83-5.82,6.85-7.33,11.55c-1.51,4.7-1.9,9.88-1.13,14.87c0.77,4.99,2.66,9.58,5.44,13.18c2.78,3.6,6.33,6.05,10.18,7.05
		c3.86,0.99,7.86,0.48,11.49-1.46c3.63-1.95,6.74-5.25,8.93-9.48C56.83,110,58,105.02,58,99.93c0-3.38-0.51-6.73-1.51-9.85
		c-1-3.12-2.46-5.96-4.31-8.35c-1.85-2.39-4.04-4.29-6.45-5.58C43.31,74.85,40.72,74.18,38.11,74.18z"/>
	<path class="st5" d="M80.15,97.82c0,2.29,1.26,2.55,2.43,2.55c0.92,0.04,1.83-0.17,2.68-0.63c0.85-0.46,1.61-1.15,2.23-2.02
		c0.62-0.88,1.09-1.92,1.38-3.05c0.28-1.13,0.37-2.33,0.26-3.51c0.06-1.26-0.09-2.52-0.43-3.7c-0.34-1.18-0.88-2.25-1.57-3.14
		c-0.69-0.89-1.52-1.58-2.43-2.03c-0.91-0.45-1.89-0.64-2.86-0.56c-0.92,0-1.36,0-1.77,0v16.09H80.15z M77.96,83.96
		c0-2.64-1.07-2.48-2.11-2.51v-0.75c0.9,0,1.82,0,2.7,0h3.96c5.93,0,9.13,5.09,9.13,10.34c0,2.92-1.31,10.28-9.4,10.28h-6.39v-0.75
		c1.38-0.19,2.04-0.25,2.11-2.26V83.96z"/>
	<path class="st5" d="M94.86,83.27c-0.27-0.05-0.52-0.23-0.7-0.5c-0.18-0.27-0.28-0.61-0.28-0.97c0-0.35,0.1-0.7,0.28-0.97
		c0.18-0.27,0.43-0.44,0.7-0.5c0.29,0.01,0.57,0.16,0.78,0.43c0.21,0.27,0.33,0.63,0.33,1.01c0,0.38-0.11,0.75-0.32,1.02
		c-0.2,0.28-0.48,0.44-0.78,0.45H94.86z M92.44,100.55h0.44c0.63,0,1.09,0,1.09-0.97v-8.02c0-1.29-0.34-1.48-1.19-2.07v-0.47
		c0.82-0.3,1.63-0.66,2.43-1.07c0.14-0.04,0.28-0.04,0.41,0c0,0,0.15,0,0.15,0.41v11.22c0,0.97,0.51,0.97,1.14,0.97h0.39v0.82h-4.86
		V100.55z"/>
	<path class="st5" d="M99.58,91.75c0-1.1-0.27-1.41-1.34-1.95v-0.57c1-0.41,1.92-0.82,3.01-1.41c0,0,0.15,0,0.15,0.28v1.92
		c1.1-1.27,2.49-2.04,3.96-2.2c1.94,0,2.62,1.82,2.62,4.12v7.64c0,0.97,0.51,0.97,1.14,0.97h0.41v0.82h-4.86v-0.82h0.39
		c0.66,0,1.12,0,1.12-0.97v-7.64c0-1.67-0.8-2.51-2.11-2.51c-0.96,0.2-1.87,0.7-2.65,1.45v8.71c0,0.97,0.51,0.97,1.14,0.97h0.41
		v0.82h-4.86v-0.82h0.41c0.63,0,1.09,0,1.09-0.97v-7.83H99.58z"/>
	<path class="st5" d="M115.24,92.23c0.56,0,0.63-0.41,0.63-0.75c0.02-0.35-0.02-0.7-0.11-1.03c-0.09-0.33-0.24-0.63-0.42-0.88
		c-0.19-0.25-0.42-0.45-0.67-0.58c-0.25-0.13-0.52-0.19-0.79-0.18c-1.38,0-2.43,1.32-2.62,3.46L115.24,92.23z M111.18,93.17
		c-0.05,0.56-0.05,1.13,0,1.7c-0.04,1.25,0.28,2.47,0.91,3.42c0.63,0.95,1.51,1.56,2.47,1.7c0.59-0.04,1.17-0.24,1.7-0.58
		c0.53-0.34,1-0.82,1.39-1.4l0.32,0.41c-0.44,0.96-1.06,1.77-1.79,2.35c-0.74,0.59-1.57,0.93-2.43,1.01
		c-0.63-0.02-1.24-0.21-1.81-0.55c-0.57-0.34-1.08-0.83-1.49-1.44c-0.42-0.61-0.73-1.32-0.93-2.09c-0.2-0.77-0.27-1.59-0.21-2.39
		c0-5.78,3.01-7.48,4.61-7.48c0.49-0.04,0.98,0.04,1.45,0.26c0.46,0.21,0.89,0.54,1.25,0.98c0.36,0.43,0.65,0.96,0.85,1.54
		c0.2,0.58,0.31,1.21,0.31,1.85c0.01,0.18,0.01,0.36,0,0.53l-0.19,0.19H111.18z"/>
	<path class="st5" d="M118.37,100.56h0.63c0.63,0,1.09,0,1.09-0.97v-8.3c0-0.94-0.85-1.1-1.19-1.35v-0.44
		c1.68-0.91,2.6-1.67,2.79-1.67c0.19,0,0.19,0,0.19,0.38v2.64c0.58-1.13,1.53-3.14,2.94-3.14c0.16-0.01,0.33,0.02,0.48,0.09
		c0.15,0.07,0.3,0.18,0.42,0.33c0.12,0.14,0.22,0.32,0.28,0.51c0.07,0.19,0.1,0.4,0.11,0.61c0.01,0.19-0.01,0.38-0.06,0.56
		s-0.13,0.35-0.23,0.49c-0.1,0.14-0.22,0.25-0.36,0.33c-0.13,0.08-0.28,0.12-0.43,0.13c-0.7,0-0.7-0.69-1.51-0.69
		c-0.46,0.08-0.89,0.37-1.19,0.82c-0.31,0.45-0.48,1.03-0.48,1.63v7.07c0,0.97,0.46,0.97,1.12,0.97h1.26v0.82h-5.88V100.56z"/>
	<path class="st5" d="M127.16,97.22c0.05,0.95,0.38,1.84,0.9,2.5c0.53,0.66,1.23,1.05,1.96,1.08c1.36,0,1.85-1.04,1.85-2.07
		c0-3.49-4.86-2.39-4.86-7.14c0.03-0.56,0.14-1.1,0.34-1.6c0.2-0.5,0.47-0.94,0.8-1.29c0.33-0.35,0.72-0.62,1.13-0.77
		c0.41-0.15,0.85-0.19,1.28-0.12c0.87,0.08,1.72,0.41,2.48,0.97l0.17,3.14h-0.53c-0.04-0.8-0.32-1.54-0.77-2.08
		c-0.45-0.54-1.04-0.84-1.66-0.84c-0.22-0.03-0.44-0.01-0.65,0.07c-0.21,0.08-0.41,0.22-0.58,0.4s-0.31,0.41-0.4,0.66
		c-0.1,0.25-0.15,0.53-0.17,0.82c0,3.46,5.32,2.39,5.32,7.04c0,1.95-1.21,4.02-3.93,4.02c-0.98-0.05-1.94-0.39-2.79-1.01l-0.24-3.43
		h0.41L127.16,97.22z"/>
	<path class="st5" d="M154.34,86.03h-0.58c-0.07-0.73-0.25-1.44-0.54-2.08c-0.28-0.64-0.66-1.2-1.11-1.65
		c-0.45-0.45-0.97-0.78-1.52-0.97c-0.55-0.19-1.12-0.24-1.69-0.14c-0.92,0-1.83,0.26-2.66,0.75c-0.84,0.49-1.58,1.2-2.19,2.1
		c-0.61,0.89-1.06,1.94-1.34,3.07c-0.27,1.13-0.36,2.33-0.25,3.51c-0.13,2.52,0.5,5.01,1.78,6.93s3.08,3.11,5.02,3.32
		c1.11-0.01,2.18-0.53,3.02-1.48c0.84-0.95,1.39-2.25,1.54-3.68l0.53,0.16l-0.53,4.34c-1.58,0.96-3.3,1.49-5.05,1.57
		c-1.16,0.11-2.32-0.1-3.41-0.62c-1.09-0.52-2.08-1.33-2.9-2.38c-0.83-1.05-1.47-2.32-1.88-3.72c-0.42-1.4-0.59-2.9-0.53-4.4
		c0.09-2.86,1.06-5.56,2.68-7.51c1.62-1.95,3.78-2.99,5.99-2.89c1.85,0.12,3.66,0.65,5.37,1.57L154.34,86.03z"/>
	<path class="st5" d="M155.16,100.55h0.44c0.63,0,1.09,0,1.09-0.97V83.11c0-1.92-0.34-1.98-1.21-2.29v-0.47
		c0.83-0.35,1.65-0.78,2.43-1.29l0.49-0.31c0.15,0,0.19,0.16,0.19,0.41v20.43c0,0.97,0.51,0.97,1.14,0.97h0.39v0.82h-4.86v-0.82
		H155.16z"/>
	<path class="st5" d="M169.83,99.71c0,0.53,0.24,0.57,0.63,0.57h0.92v0.6c-1.12,0.21-2.22,0.52-3.3,0.94V99.3
		c-1.05,1.46-2.49,2.34-4.03,2.48c-0.35,0-0.69-0.09-1-0.27c-0.32-0.18-0.6-0.45-0.83-0.78c-0.23-0.33-0.4-0.73-0.51-1.15
		c-0.1-0.43-0.14-0.88-0.09-1.32v-7.58c0-0.79,0-1.51-1.36-1.67v-0.57l2.94-0.19c0.27,0,0.27,0.19,0.27,0.85v7.64
		c0,0.88,0,3.43,1.99,3.43c0.97-0.31,1.85-0.99,2.53-1.95V90.4c0-0.57-1.09-0.91-1.92-1.19V88.8c2.06-0.19,3.35-0.41,3.57-0.41
		c0.22,0,0.19,0.19,0.19,0.53V99.71z"/>
	<path class="st5" d="M174.38,97.98c0,0.83,0.26,1.63,0.71,2.22c0.46,0.59,1.07,0.92,1.72,0.92c2.43,0,3.47-3.14,3.47-5.72
		c0.06-1.39-0.29-2.76-0.96-3.85c-0.68-1.08-1.64-1.81-2.7-2.03c-0.83,0.12-1.6,0.62-2.16,1.41v7.04H174.38z M174.38,89.93
		c0.92-1.18,2.11-1.93,3.4-2.11c0.6,0.03,1.2,0.22,1.74,0.56c0.55,0.34,1.03,0.81,1.43,1.4c0.4,0.59,0.7,1.28,0.88,2.02
		c0.19,0.74,0.25,1.53,0.2,2.31c0.06,1.96-0.48,3.88-1.5,5.33c-1.02,1.45-2.45,2.33-3.96,2.43c-1.11-0.01-2.2-0.36-3.18-1.04
		l-0.68,0.66l-0.49-0.31c0.22-1.75,0.34-3.51,0.34-5.28V83.33c0-1.92-0.36-1.98-1.21-2.29v-0.69c0.83-0.35,1.64-0.79,2.43-1.29
		c0.15-0.14,0.31-0.24,0.49-0.31c0.15,0,0.19,0.16,0.19,0.41v10.78H174.38z"/>
	<path class="st5" d="M75.83,118.5H76c0.46,0,0.92,0,0.92-0.91v-8.42c0-0.85-0.46-0.91-0.92-0.91h-0.17v-0.6h1.85h1.94v0.5h-0.17
		c-0.44,0-0.92,0-0.92,0.91v8.42c0,0.85,0.49,0.91,0.92,0.91h0.17v0.5h-1.94h-1.85v-0.5V118.5z"/>
	<path class="st5" d="M88.16,115.83v-6.07c0.02-0.2,0.01-0.4-0.04-0.59c-0.05-0.19-0.12-0.36-0.23-0.51
		c-0.11-0.15-0.23-0.26-0.38-0.33c-0.14-0.07-0.3-0.1-0.45-0.08H86.8v-0.6h1.75h1.53v0.5h-0.22c-0.51,0-1.09,0-1.09,2.04v7.32
		c-0.04,0.53-0.04,1.07,0,1.6h-0.49l-6.39-9.21v6.63c0,1.38,0.19,1.85,1.17,1.85h0.19v0.5h-1.6h-1.68v-0.5h0.17
		c0.85,0,1.12-0.75,1.12-2.04v-6.66c0-0.19-0.03-0.38-0.09-0.56c-0.06-0.18-0.14-0.34-0.25-0.47c-0.11-0.13-0.23-0.24-0.37-0.31
		c-0.14-0.07-0.29-0.11-0.43-0.1h0.02v-0.6c0.46,0,0.95,0,1.43,0h1L88.16,115.83z"/>
	<path class="st5" d="M91.95,108.57c-0.92,0-0.95,0.28-1.14,1.48h-0.39c0-0.47,0.12-0.91,0.17-1.38c0.02-0.45,0.02-0.9,0-1.35h0.29
		c0,0.47,0.41,0.44,0.75,0.44h6.48c0.34,0,0.63,0,0.66-0.47h0.32l-0.15,1.29c0,0.44,0,0.88,0,1.32h-0.36c0-0.6,0-1.54-0.92-1.54
		h-2.04v8.74c0,1.26,0.44,1.38,1.02,1.38h0.24v0.5h-2.02h-2.11v-0.5H93c0.68,0,1.02,0,1.02-1.35v-8.55H91.95z"/>
	<path class="st5" d="M99.58,118.5c0.46,0,0.92,0,0.92-0.91v-8.42c0-0.85-0.46-0.91-0.92-0.91v-0.6c0.75,0,2.04,0,3.08,0h3.18
		c0,0.69,0,1.76,0,2.48h-0.36c0-1.04-0.22-1.89-1.51-1.89h-1.72v4.43h1.46c0.75,0,0.92-0.53,1-1.41h0.36c0,0.63,0,1.26,0,1.89
		c0,0.63,0,1.23,0,1.82h-0.36c0-0.94,0-1.57-0.97-1.57h-1.48v3.74c0,1.04,0.7,1.04,1.51,1.04c1.48,0,2.14,0,2.43-1.95h0.34
		c-0.17,0.88-0.32,1.73-0.41,2.58h-3.35h-3.3v-0.5L99.58,118.5z"/>
	<path class="st5" d="M109.82,113.19h0.61c1.24,0,1.92-0.6,1.92-2.48c0.02-0.32-0.02-0.63-0.1-0.93c-0.09-0.3-0.22-0.57-0.39-0.79
		c-0.17-0.22-0.38-0.4-0.61-0.51c-0.23-0.11-0.47-0.16-0.72-0.13c-0.23-0.03-0.47-0.03-0.7,0v4.78V113.19z M108.22,109.48
		c0-1.19-0.49-1.23-0.87-1.23h-0.22v-0.6c0.39,0,1.17,0,1.92,0s1.34,0,1.99,0c1.58,0,2.96,0.57,2.96,2.86
		c-0.03,0.64-0.21,1.26-0.52,1.77c-0.31,0.51-0.73,0.88-1.21,1.06l2.14,4.12c0.11,0.28,0.28,0.52,0.49,0.68
		c0.21,0.17,0.45,0.26,0.7,0.26v0.5h-1.21h-1.17c-0.94-1.59-1.81-3.25-2.6-4.97h-0.8v3.14c0,1.26,0.44,1.29,1.02,1.29h0.22v0.5
		h-2.14h-1.8v-0.5h0.22c0.46,0,0.87-0.25,0.87-0.85v-8.17V109.48z"/>
	<path class="st5" d="M124.06,115.83v-6.07c0.02-0.2,0-0.39-0.04-0.58c-0.05-0.19-0.13-0.36-0.23-0.5c-0.1-0.14-0.23-0.26-0.37-0.33
		s-0.29-0.11-0.45-0.1h-0.27v-0.6c0.58,0,1.14,0,1.75,0c0.61,0,1,0,1.53,0v0.5h-0.17c-0.53,0-1.12,0-1.12,2.04v7.32
		c-0.03,0.53-0.03,1.07,0,1.6h-0.46l-6.41-9.21v6.63c0,1.38,0.22,1.85,1.17,1.85h0.22v0.5h-1.6h-1.68v-0.5h0.17
		c0.85,0,1.12-0.75,1.12-2.04v-6.66c0-0.19-0.03-0.38-0.09-0.56c-0.06-0.18-0.14-0.34-0.25-0.47c-0.11-0.13-0.23-0.24-0.37-0.31
		c-0.14-0.07-0.29-0.11-0.43-0.1h-0.15v-0.6h1.41c0.39,0,0.75,0,1.12,0l5.54,8.08L124.06,115.83z"/>
	<path class="st5" d="M129.79,109.58l-1.07,4.56h2.43L129.79,109.58z M127.99,116.71c-0.13,0.4-0.22,0.81-0.29,1.23
		c0,0.5,0.53,0.57,0.95,0.57h0.07v0.5h-1.51h-1.36v-0.5c0.24,0.01,0.48-0.09,0.68-0.28c0.2-0.19,0.34-0.45,0.41-0.76l1.99-7.39
		c0.19-0.65,0.34-1.31,0.46-1.98c0.39-0.19,0.76-0.42,1.12-0.69h0.19c0,0,0,0.28,0,0.41l2.28,8.42c0.13,0.56,0.29,1.1,0.46,1.63
		c0.07,0.21,0.18,0.38,0.33,0.49c0.15,0.11,0.32,0.16,0.49,0.14v0.5h-1.72h-1.87v-0.5h0.46c0.29,0,0.78,0,0.78-0.44
		c-0.05-0.4-0.14-0.79-0.27-1.16l-0.49-1.89h-2.79L127.99,116.71z"/>
	<path class="st5" d="M135.15,108.57c-0.92,0-0.97,0.28-1.17,1.48h-0.41c0-0.47,0-0.91,0.15-1.38c0.02-0.45,0.02-0.9,0-1.35h0.32
		c0,0.47,0.41,0.44,0.73,0.44h6.41c0.34,0,0.66,0,0.68-0.47h0.29c0,0.41,0,0.85,0,1.29s0,0.88,0,1.32h-0.39c0-0.6,0-1.54-0.92-1.54
		h-2.04v8.74c0,1.26,0.44,1.38,1.04,1.38h0.24v0.5h-2.04h-2.09v-0.5h0.22c0.7,0,1.04,0,1.04-1.35v-8.55H135.15z"/>
	<path class="st5" d="M142.73,118.5h0.17c0.46,0,0.92,0,0.92-0.91v-8.42c0-0.85-0.46-0.91-0.92-0.91h-0.17v-0.6h1.85h1.94v0.5h-0.17
		c-0.44,0-0.92,0-0.92,0.91v8.42c0,0.85,0.49,0.91,0.92,0.91h0.17v0.5h-1.97h-1.82v-0.5V118.5z"/>
	<path class="st5" d="M151.67,118.66c2.43,0,2.84-2.77,2.84-5.09c0-2.33-1-5.22-3.06-5.22c-2.06,0-2.82,2.51-2.82,4.68
		C148.63,115.89,149.65,118.66,151.67,118.66z M151.47,107.66c0.61-0.09,1.22-0.02,1.8,0.22c0.58,0.23,1.12,0.63,1.58,1.15
		s0.83,1.16,1.08,1.88c0.25,0.72,0.39,1.5,0.39,2.29c0.04,0.82-0.04,1.65-0.26,2.42c-0.22,0.77-0.56,1.48-1,2.07
		c-0.44,0.59-0.98,1.06-1.57,1.37c-0.59,0.31-1.22,0.45-1.86,0.43c-0.6,0.05-1.21-0.07-1.77-0.34c-0.57-0.27-1.08-0.69-1.52-1.23
		c-0.44-0.54-0.78-1.19-1.01-1.91c-0.23-0.72-0.35-1.5-0.33-2.28c-0.02-0.78,0.08-1.56,0.29-2.29c0.21-0.73,0.54-1.4,0.96-1.96
		c0.42-0.57,0.92-1.02,1.47-1.33C150.27,107.83,150.87,107.67,151.47,107.66z"/>
	<path class="st5" d="M164.61,115.83v-6.07c0.02-0.19,0.01-0.39-0.03-0.58s-0.12-0.36-0.22-0.5c-0.1-0.14-0.23-0.26-0.37-0.33
		c-0.14-0.07-0.29-0.11-0.44-0.09h-0.27v-0.6c0.58,0,1.14,0,1.72,0h1.53v0.5h-0.17c-0.51,0-1.09,0-1.09,2.04v7.32
		c-0.04,0.53-0.04,1.07,0,1.6h-0.49l-6.39-9.21v6.63c0,1.38,0.22,1.85,1.17,1.85h0.22v0.5h-1.6h-1.7v-0.5h0.17
		c0.87,0,1.12-0.75,1.12-2.04v-6.66c0-0.19-0.02-0.38-0.08-0.56c-0.05-0.18-0.14-0.34-0.24-0.47c-0.1-0.14-0.23-0.24-0.37-0.31
		c-0.14-0.07-0.28-0.11-0.43-0.1h-0.17v-0.6c0.46,0,0.95,0,1.43,0c0.49,0,0.73,0,1.09,0l5.54,8.08L164.61,115.83z"/>
	<path class="st5" d="M170.37,109.58l-1.17,4.56h2.43L170.37,109.58z M168.55,116.71c-0.12,0.4-0.21,0.81-0.27,1.23
		c0,0.5,0.53,0.57,0.92,0.57h0.15v0.5h-1.51h-1.34v-0.5c0.24,0.01,0.48-0.09,0.67-0.28c0.19-0.19,0.33-0.46,0.39-0.76l1.99-7.39
		c0.2-0.64,0.35-1.3,0.46-1.98c0.4-0.19,0.78-0.42,1.14-0.69h0.19v0.41l2.28,8.42c0.15,0.57,0.32,1.16,0.46,1.63
		c0.07,0.21,0.18,0.38,0.33,0.49c0.15,0.11,0.32,0.16,0.49,0.14v0.5h-1.72h-1.85v-0.5c0.29,0,0.78,0,0.78-0.44
		c-0.04-0.4-0.12-0.79-0.24-1.16l-0.49-1.89h-2.45L168.55,116.71z"/>
	<path class="st5" d="M178.31,117.43c0,0.63,0.34,0.82,0.75,0.88c0.54,0.08,1.09,0.08,1.63,0c0.23-0.03,0.46-0.12,0.66-0.27
		c0.2-0.15,0.38-0.34,0.53-0.58c0.19-0.35,0.32-0.75,0.39-1.16h0.36c-0.15,0.91-0.32,1.82-0.46,2.73h-3.28h-3.28v-0.5h0.17
		c0.46,0,0.95,0,0.95-1.07v-8.3c0-0.85-0.49-0.91-0.95-0.91h-0.17v-0.6c0.66,0,1.31,0,1.97,0h1.89v0.5h-0.32
		c-0.49,0-0.85,0-0.85,0.85v8.33V117.43z"/>
	<path class="st5" d="M182.27,109.07h0.17c0.17,0,0.24,0,0.24-0.44c0-0.05,0-0.09-0.01-0.14c-0.01-0.04-0.03-0.08-0.06-0.12
		c-0.03-0.03-0.06-0.06-0.09-0.07c-0.03-0.02-0.07-0.02-0.11-0.02h-0.15V109.07z M181.83,109.95c0.17,0,0.19,0,0.19,0v-1.26
		c0-0.19,0-0.22-0.19-0.22h0.68c0.22,0,0.44,0,0.44,0.44c0,0.12-0.03,0.24-0.09,0.33c-0.06,0.1-0.14,0.17-0.23,0.2l0.22,0.38
		c0.08,0.16,0.18,0.29,0.29,0.41h-0.24c0,0-0.24-0.31-0.49-0.75h-0.15v0.53c0,0,0,0,0.19,0L181.83,109.95z M182.49,110.46
		c0.28,0,0.56-0.15,0.76-0.41c0.2-0.26,0.31-0.61,0.31-0.98c0-0.37-0.11-0.72-0.31-0.98c-0.2-0.26-0.47-0.41-0.76-0.41
		c-0.28,0-0.56,0.15-0.76,0.41c-0.2,0.26-0.31,0.61-0.31,0.98c0,0.37,0.11,0.72,0.31,0.98C181.93,110.31,182.2,110.46,182.49,110.46
		z M182.49,107.31c0.26,0,0.51,0.1,0.73,0.29s0.38,0.45,0.48,0.76c0.1,0.31,0.13,0.65,0.07,0.98c-0.05,0.33-0.18,0.63-0.36,0.87
		c-0.18,0.24-0.42,0.4-0.67,0.46c-0.25,0.07-0.52,0.03-0.76-0.1c-0.24-0.13-0.44-0.35-0.59-0.63c-0.14-0.28-0.22-0.61-0.22-0.94
		c0-0.22,0.03-0.45,0.09-0.65c0.06-0.21,0.16-0.4,0.28-0.56c0.12-0.16,0.27-0.28,0.43-0.37
		C182.14,107.35,182.31,107.31,182.49,107.31z"/>
	<path class="st3" d="M48.29,128.09c11.88,0,22.71-12.57,22.71-27.88c-0.04-3.79-0.67-7.53-1.84-11.01
		c-1.17-3.48-2.86-6.62-4.97-9.25c-2.11-2.63-4.6-4.69-7.33-6.07c-2.73-1.38-5.64-2.04-8.57-1.95H38.06
		c-2.89-0.07-5.75,0.61-8.43,2.01c-2.68,1.4-5.11,3.48-7.15,6.12c-2.04,2.64-3.65,5.79-4.73,9.25c-1.08,3.47-1.61,7.18-1.55,10.91
		c0.08,7.43,2.42,14.52,6.51,19.74c4.09,5.22,9.6,8.14,15.34,8.14H48.29z"/>
	<path class="st4" d="M42.53,115.17V84.71c2.38,1.18,4.43,3.27,5.87,5.99c1.44,2.72,2.22,5.94,2.22,9.24c0,3.3-0.77,6.52-2.22,9.24
		C46.95,111.9,44.91,113.99,42.53,115.17z M25.53,99.93c0-3.3,0.77-6.52,2.22-9.23s3.49-4.8,5.87-5.98v30.43
		c-2.38-1.18-4.43-3.26-5.87-5.98C26.3,106.45,25.53,103.23,25.53,99.93z M38.11,74.18c-3.93,0-7.78,1.51-11.05,4.34
		c-3.27,2.83-5.82,6.85-7.33,11.55c-1.51,4.7-1.9,9.88-1.13,14.87c0.77,4.99,2.66,9.58,5.44,13.18c2.78,3.6,6.33,6.05,10.18,7.05
		c3.86,0.99,7.86,0.48,11.49-1.46c3.63-1.95,6.74-5.25,8.93-9.48C56.83,110,58,105.02,58,99.93c0-3.38-0.51-6.73-1.51-9.85
		c-1-3.12-2.46-5.96-4.31-8.35c-1.85-2.39-4.04-4.29-6.45-5.58C43.31,74.85,40.72,74.18,38.11,74.18z"/>
</g>
</svg>
