<?xml version="1.0" encoding="utf-8"?>
<!-- Generator: Adobe Illustrator 23.0.0, SVG Export Plug-In . SVG Version: 6.00 Build 0)  -->
<svg version="1.1" id="Layer_1" xmlns="http://www.w3.org/2000/svg" xmlns:xlink="http://www.w3.org/1999/xlink" x="0px" y="0px"
	 viewBox="0 0 200 200" style="enable-background:new 0 0 200 200;" xml:space="preserve">
<style type="text/css">
	.st0{fill:#115C07;}
</style>
<path class="st0" d="M139.26,72.29c-0.72-1.03-1.5-2.05-2.28-3.02c-8.84-10.59-22.13-17.34-36.97-17.34h-0.06c-0.06,0-0.06,0-0.06,0
	c-0.06,0-0.12,0-0.18,0c-14.67,0.1-27.84,6.82-36.67,17.34c-0.78,0.97-1.56,1.97-2.28,3.02c-5.59,7.85-8.84,17.4-8.84,27.71
	s3.25,19.88,8.84,27.71c0.72,1.03,1.5,2.03,2.28,3.02c8.84,10.51,22,17.26,36.67,17.34c0.06,0,0.12,0,0.18,0c0,0,0,0,0.06,0
	c0,0,0,0,0.06,0c14.85,0,28.14-6.75,36.97-17.34c0.78-0.97,1.56-1.97,2.28-3.02c5.59-7.83,8.84-17.4,8.84-27.73
	C148.1,89.68,144.85,80.14,139.26,72.29z M85.93,58.18c-4.39,4.26-8.06,10.49-10.64,17.97c-3.37-1.26-6.43-2.78-9.08-4.52
	C71.38,65.52,78.18,60.79,85.93,58.18z M63.93,74.65c3.01,1.99,6.43,3.75,10.28,5.19c-1.68,6.02-2.64,12.7-2.64,19.76H55.87
	C55.93,90.32,58.94,81.73,63.93,74.65z M55.99,103.55h15.63c0.3,5.9,1.14,11.5,2.58,16.63c-3.85,1.44-7.33,3.18-10.28,5.19
	C59.48,119.09,56.65,111.64,55.99,103.55z M66.27,128.36c2.58-1.72,5.65-3.23,9.02-4.5c2.53,7.48,6.25,13.71,10.64,17.97
	C78.18,139.21,71.44,134.5,66.27,128.36z M98.02,144.01c-8.06-1.11-15.09-9.41-19.06-21.36c5.71-1.72,12.2-2.74,19.06-2.92V144.01z
	 M98.02,115.78c-7.22,0.18-14.07,1.28-20.14,3.16c-1.26-4.73-2.04-9.9-2.28-15.39h22.43V115.78L98.02,115.78z M98.02,99.61H75.53
	c0-6.63,0.84-12.88,2.34-18.5c6.07,1.85,12.93,2.98,20.2,3.16L98.02,99.61z M98.02,80.29c-6.85-0.18-13.35-1.2-19.06-2.92
	c3.97-11.95,11-20.26,19.06-21.38V80.29z M144.13,99.61H128.2c0-7.02-0.96-13.69-2.58-19.69c3.91-1.46,7.45-3.24,10.46-5.25
	C141.06,81.73,144.07,90.32,144.13,99.61z M133.79,71.64c-2.71,1.76-5.83,3.31-9.32,4.58c-2.52-7.57-6.25-13.89-10.76-18.17
	C121.58,60.65,128.56,65.42,133.79,71.64z M101.98,56.05c8,1.24,14.91,9.53,18.82,21.4c-5.65,1.68-12.02,2.68-18.82,2.86V56.05z
	 M101.98,84.24c7.15-0.18,13.89-1.26,19.9-3.1c1.5,5.6,2.34,11.83,2.4,18.44h-22.31V84.24z M101.98,103.55h22.19
	c-0.24,5.44-1.02,10.61-2.28,15.33c-6.01-1.83-12.75-2.92-19.9-3.1V103.55z M101.98,143.97v-24.26c6.79,0.16,13.17,1.18,18.82,2.86
	C116.89,134.44,109.98,142.72,101.98,143.97z M113.71,141.96c4.51-4.28,8.24-10.57,10.76-18.17c3.49,1.28,6.61,2.82,9.26,4.58
	C128.5,134.6,121.58,139.37,113.71,141.96z M136.07,125.37c-3.01-2.03-6.55-3.81-10.46-5.27c1.38-5.11,2.28-10.69,2.53-16.55h15.87
	C143.35,111.64,140.52,119.09,136.07,125.37z"/>
</svg>
