<?xml version="1.0" encoding="utf-8"?>
<!-- Generator: Adobe Illustrator 23.0.0, SVG Export Plug-In . SVG Version: 6.00 Build 0)  -->
<svg version="1.1" id="Layer_1" xmlns="http://www.w3.org/2000/svg" xmlns:xlink="http://www.w3.org/1999/xlink" x="0px" y="0px"
	 viewBox="0 0 200 200" style="enable-background:new 0 0 200 200;" xml:space="preserve">
<style type="text/css">
	.st0{fill:#115C07;}
</style>
<g>
	<path class="st0" d="M178.83,111.71l-8.02-12.25c-3.55-5.42-9.56-8.65-16.1-8.65h-20.75V78.88c0-7.29-5.92-13.21-13.21-13.21H81.9
		c-2.18-11.36-12.2-19.99-24.2-19.99c-13.6,0-24.66,11.05-24.66,24.62c0,8.54,4.37,16.08,11,20.49H23.28
		c-1.39,0-2.51,1.12-2.51,2.51c0,1.39,1.12,2.51,2.51,2.51h25.16v5.03H38.38c-1.39,0-2.51,1.12-2.51,2.51
		c0,1.39,1.12,2.51,2.51,2.51h10.06v5.03H23.28c-1.39,0-2.51,1.12-2.51,2.51c0,1.39,1.12,2.51,2.51,2.51h25.16v11.13
		c-4.44,1.94-7.54,6.37-7.54,11.52v2.48c0,1.39,1.12,2.51,2.51,2.51h22.31c1.43,6.15,6.95,10.75,13.53,10.75
		c6.58,0,12.11-4.6,13.53-10.75h48.39c1.44,6.15,6.95,10.75,13.53,10.75c6.6,0,12.11-4.6,13.53-10.75h8.49
		c1.39,0,2.51-1.12,2.51-2.51v-27.98C179.24,112.6,179.1,112.12,178.83,111.71z M38.07,70.3c0-10.81,8.81-19.6,19.63-19.6
		c10.82,0,19.61,8.79,19.61,19.6s-8.79,19.61-19.61,19.61C46.88,89.92,38.07,81.11,38.07,70.3z M65.48,138.54H45.92
		c0.02-4.15,3.41-7.54,7.58-7.54h15.57C67.17,133.03,65.87,135.65,65.48,138.54z M79.25,149.27c-4.89,0-8.88-3.98-8.88-8.86
		c0-4.89,3.99-8.86,8.88-8.86c4.9,0,8.88,3.98,8.88,8.86C88.12,145.3,84.15,149.27,79.25,149.27z M128.92,138.54H93.01
		c-0.39-2.89-1.68-5.51-3.58-7.54h39.49V138.54z M128.92,125.97H53.5c-0.02,0-0.02,0-0.04,0v-10.06h5.03c1.39,0,2.51-1.11,2.51-2.5
		c0-1.39-1.12-2.51-2.51-2.51h-5.03v-5.03h17.62c1.39,0,2.51-1.12,2.51-2.51c0-1.39-1.12-2.51-2.51-2.51H53.46v-5.03h32.7
		c1.39,0,2.51-1.12,2.51-2.51c0-1.39-1.12-2.51-2.51-2.51h-14.8c6.51-4.35,10.84-11.71,10.98-20.1h38.39c4.51,0,8.2,3.67,8.2,8.17
		v47.11H128.92z M154.7,149.27c-4.89,0-8.86-3.98-8.86-8.86c0-4.89,3.98-8.86,8.86-8.86c4.9,0,8.88,3.98,8.88,8.86
		C163.58,145.3,159.61,149.27,154.7,149.27z M174.21,138.54h-5.74c-0.93-6.78-6.72-12.02-13.75-12.02
		c-7.03,0-12.84,5.24-13.77,12.02h-6.99V95.82h20.74c4.83,0,9.29,2.39,11.89,6.38l7.61,11.63V138.54L174.21,138.54z"/>
	<path class="st0" d="M154.7,144.53c2.28,0,4.12-1.84,4.12-4.12c0-2.26-1.84-4.1-4.12-4.1c-2.26,0-4.12,1.84-4.12,4.1
		C150.59,142.7,152.44,144.53,154.7,144.53z"/>
	<path class="st0" d="M79.25,136.31c-2.26,0-4.12,1.84-4.12,4.1c0,2.28,1.85,4.12,4.12,4.12c2.26,0,4.12-1.84,4.12-4.12
		C83.36,138.15,81.51,136.31,79.25,136.31z"/>
	<path class="st0" d="M61,70.3V59.32c0-1.39-1.12-2.51-2.51-2.51c-1.39,0-2.51,1.12-2.51,2.51V69.5l-5.14,7.03
		c-0.82,1.12-0.57,2.69,0.55,3.51c0.45,0.32,0.96,0.48,1.48,0.48c0.78,0,1.55-0.36,2.03-1.03l5.62-7.69
		C60.84,71.36,61,70.84,61,70.3z"/>
	<path class="st0" d="M153.87,98.33h-4.81c-1.39,0-2.51,1.12-2.51,2.51v17.6c0,1.37,1.12,2.51,2.51,2.51h16.94
		c1.57,0,2.98-0.82,3.78-2.18c0.78-1.37,0.78-3,0.02-4.35l-5.88-10.27C161.85,100.56,158,98.33,153.87,98.33z M151.57,115.93v-12.57
		h2.3c2.34,0,4.51,1.27,5.67,3.28l5.3,9.27h-13.27V115.93z"/>
</g>
</svg>
