<?xml version="1.0" encoding="utf-8"?>
<!-- Generator: Adobe Illustrator 23.0.0, SVG Export Plug-In . SVG Version: 6.00 Build 0)  -->
<svg version="1.1" id="Layer_1" xmlns="http://www.w3.org/2000/svg" xmlns:xlink="http://www.w3.org/1999/xlink" x="0px" y="0px"
	 viewBox="0 0 200 200" style="enable-background:new 0 0 200 200;" xml:space="preserve">
<style type="text/css">
	.st0{fill:#115C07;}
</style>
<g>
	<path class="st0" d="M157.3,95c-1.11-4.16-3.44-7.82-6.63-10.42c-3.24-2.61-7.15-4.02-11.17-4.01h-24.68V63.64
		c0-4.34-1.62-8.51-4.46-11.58c-2.88-3.07-6.79-4.8-10.86-4.8h-6.55c-1.11,0.01-2.17,0.48-2.92,1.32c-0.79,0.84-1.22,1.98-1.22,3.16
		v15.9c-0.16,7.72-2.8,15.14-7.54,20.98l-8.96,9.67l5.96,6.29l9.04-9.84c0.08-0.07,0.16-0.16,0.24-0.25
		c6.04-7.46,9.48-16.96,9.63-26.84V56.31h2.33c1.86,0,3.63,0.78,4.94,2.18c1.3,1.4,2.01,3.29,2.01,5.26v21.29
		c0.04,1.18,0.47,2.32,1.26,3.15c0.79,0.83,1.86,1.3,2.96,1.3h28.83c2.21,0.01,4.38,0.8,6.12,2.24c1.78,1.45,3.08,3.47,3.63,5.77
		c0.32,1.24,0.32,2.54,0,3.78l-6,32.12c-0.2,1.13-0.75,4.62-7.42,4.62H74.65v8.91h61.2c8.73,0,14.45-4.37,15.64-11.93l5.96-31.86
		C158.09,100.46,158.01,97.65,157.3,95z"/>
	<path class="st0" d="M74.85,83.41H46.3c-1.11,0-2.17,0.47-2.96,1.31c-0.79,0.84-1.22,1.97-1.22,3.15v60.42
		c0,1.18,0.43,2.31,1.22,3.15c0.79,0.84,1.86,1.3,2.96,1.3h28.55c1.11,0,2.17-0.47,2.96-1.3c0.75-0.83,1.22-1.97,1.22-3.15V87.86
		c0-1.18-0.47-2.32-1.22-3.15C77.02,83.87,75.96,83.41,74.85,83.41z M70.66,143.8H50.49V92.32h20.18V143.8z"/>
</g>
</svg>
