<?xml version="1.0" encoding="utf-8"?>
<!-- Generator: Adobe Illustrator 23.0.0, SVG Export Plug-In . SVG Version: 6.00 Build 0)  -->
<svg version="1.1" id="Layer_1" xmlns="http://www.w3.org/2000/svg" xmlns:xlink="http://www.w3.org/1999/xlink" x="0px" y="0px"
	 viewBox="0 0 200 200" style="enable-background:new 0 0 200 200;" xml:space="preserve">
<style type="text/css">
	.st0{fill:#115C07;}
</style>
<path class="st0" d="M164.17,101.04h-12.13V66.02c0-4.66-3.55-8.45-7.91-8.45h-18.25v-8.4c0-4.52-3.44-8.19-7.67-8.19H35.52
	c-4.23,0-7.67,3.68-7.67,8.19v3.61c0,1.25,0.94,2.26,2.12,2.26c1.17,0,2.11-1.01,2.11-2.26v-3.61c0-2.03,1.55-3.68,3.44-3.68h82.69
	c1.9,0,3.44,1.65,3.44,3.68v71.13H32.08V63.37c0-1.25-0.94-2.26-2.11-2.26c-1.17,0-2.12,1.01-2.12,2.26v76.55
	c0,4.52,3.44,8.19,7.67,8.19h4.86c1.06,6.19,6.15,10.9,12.25,10.9c6.1,0,11.18-4.71,12.25-10.9H98.5c1.17,0,2.11-1.01,2.11-2.26
	c0-1.25-0.94-2.26-2.11-2.26H64.92c-0.95-6.34-6.1-11.19-12.29-11.19s-11.34,4.86-12.29,11.19h-4.81c-1.89,0-3.44-1.65-3.44-3.68
	v-15.11h89.56v18.79h-13.46c-1.17,0-2.11,1.01-2.11,2.26s0.94,2.26,2.11,2.26h27.42c1.06,6.19,6.14,10.9,12.24,10.9
	c6.1,0,11.19-4.71,12.25-10.9h4.14c4.36,0,7.91-3.79,7.91-8.45v-30.11C172.15,104.86,168.57,101.04,164.17,101.04z M52.62,136.93
	c4.53,0,8.22,3.94,8.22,8.79s-3.69,8.79-8.22,8.79s-8.22-3.94-8.22-8.79S48.09,136.93,52.62,136.93z M147.84,154.5
	c-4.53,0-8.22-3.94-8.22-8.79c0-4.84,3.69-8.79,8.22-8.79c4.54,0,8.22,3.94,8.22,8.79C156.07,150.56,152.38,154.5,147.84,154.5z
	 M167.92,121.81h-5.63c-1.17,0-2.11-1.01-2.11-2.26c0-1.25,0.94-2.26,2.11-2.26h5.63V121.81z M167.92,112.78h-5.63
	c-3.49,0-6.34,3.04-6.34,6.78c0,3.74,2.84,6.78,6.34,6.78h5.63v13.34c0,2.17-1.65,3.93-3.68,3.93h-4.1
	c-0.95-6.34-6.1-11.19-12.29-11.19c-6.19,0-11.34,4.86-12.29,11.19h-9.68V62.09h18.25c2.03,0,3.68,1.76,3.68,3.93v0.53h-14.15
	c-1.17,0-2.11,1.01-2.11,2.26v34.49c0,1.25,0.94,2.26,2.11,2.26h30.51c2.07,0,3.75,1.8,3.75,4.01V112.78L167.92,112.78z
	 M147.81,71.06v29.98h-12.04V71.06H147.81z"/>
</svg>
