<?xml version="1.0" encoding="utf-8"?>
<!-- Generator: Adobe Illustrator 23.0.0, SVG Export Plug-In . SVG Version: 6.00 Build 0)  -->
<svg version="1.1" id="Layer_1" xmlns="http://www.w3.org/2000/svg" xmlns:xlink="http://www.w3.org/1999/xlink" x="0px" y="0px"
	 viewBox="0 0 200 200" style="enable-background:new 0 0 200 200;" xml:space="preserve">
<style type="text/css">
	.st0{fill:#115C07;}
</style>
<g>
	<path class="st0" d="M151.54,51.89H48.46c-6.06,0-10.99,5.39-10.99,12.03v72.17c0,6.63,4.93,12.03,10.99,12.03h103.09
		c6.06,0,10.99-5.4,10.99-12.03V63.92C162.54,57.28,157.6,51.89,151.54,51.89z M74.1,140.09H48.46c-2.02,0-3.66-1.8-3.66-4.01v-44.1
		h7.93c1.83,5.97,7.43,9.57,13.11,8.35l-5.77,9.47c-1.13,1.84-0.67,4.33,1.02,5.56c1.68,1.23,3.96,0.73,5.08-1.11l7.94-13.04V140.09
		z M59.45,87.97c0-3.65,3.71-5.83,6.49-3.8l5.22,3.81l-5.22,3.81C63.17,93.8,59.45,91.64,59.45,87.97z M74.1,80.48l-4.1-2.99
		c-6.32-4.61-14.89-1.35-17.29,6.47h-7.93V63.92c0-2.21,1.64-4.01,3.66-4.01H74.1V80.48z M155.21,136.08c0,2.21-1.64,4.01-3.66,4.01
		H81.43v-38.88l7.94,13.04c1.13,1.85,3.4,2.34,5.08,1.11c1.68-1.23,2.14-3.72,1.02-5.56l-5.77-9.47c5.66,1.21,11.28-2.35,13.11-8.35
		h52.39V136.08z M84.38,87.97l5.22-3.81c2.77-2.03,6.49,0.14,6.49,3.81c0,3.66-3.72,5.83-6.49,3.8L84.38,87.97z M155.21,83.96
		h-52.39c-2.4-7.82-10.96-11.09-17.29-6.47l-4.1,2.99V59.91h70.11c2.02,0,3.66,1.8,3.66,4.01V83.96z"/>
</g>
</svg>
