<?xml version="1.0" encoding="utf-8"?>
<!-- Generator: Adobe Illustrator 23.0.0, SVG Export Plug-In . SVG Version: 6.00 Build 0)  -->
<svg version="1.1" id="Layer_1" xmlns="http://www.w3.org/2000/svg" xmlns:xlink="http://www.w3.org/1999/xlink" x="0px" y="0px"
	 viewBox="0 0 200 200" style="enable-background:new 0 0 200 200;" xml:space="preserve">
<style type="text/css">
	.st0{fill:#115C07;}
</style>
<g>
	<path class="st0" d="M64.82,124.78h-3.91c-2.16,0-3.91-1.85-3.91-4.13v-4.13c0-2.28,1.75-4.13,3.91-4.13h3.91
		c2.16,0,3.91,1.85,3.91,4.13v4.13C68.73,122.93,66.98,124.78,64.82,124.78z"/>
	<path class="st0" d="M148.86,54.56H51.14c-7.54,0-13.68,6.48-13.68,14.46v61.96c0,7.97,6.14,14.46,13.68,14.46h97.72
		c7.54,0,13.68-6.48,13.68-14.46V69.02C162.54,61.05,156.4,54.56,148.86,54.56z M51.14,62.82h97.72c3.23,0,5.86,2.78,5.86,6.2v8.26
		H45.28v-8.26C45.28,65.6,47.91,62.82,51.14,62.82z M148.86,137.18H51.14c-3.23,0-5.86-2.78-5.86-6.2V85.54h109.44v45.44
		C154.72,134.4,152.09,137.18,148.86,137.18z"/>
</g>
</svg>
