<?xml version="1.0" encoding="utf-8"?>
<!-- Generator: Adobe Illustrator 23.0.0, SVG Export Plug-In . SVG Version: 6.00 Build 0)  -->
<svg version="1.1" id="Layer_1" xmlns="http://www.w3.org/2000/svg" xmlns:xlink="http://www.w3.org/1999/xlink" x="0px" y="0px"
	 viewBox="0 0 200 200" style="enable-background:new 0 0 200 200;" xml:space="preserve">
<style type="text/css">
	.st0{fill:#026419;}
</style>
<path class="st0" d="M118.6,56c2.05,0,3.68,0.14,4.89,0.42c1.42,0.28,2.98,0.85,4.68,1.56c1.28,0.57,2.69,1.35,4.18,2.34
	c1.35,0.92,2.55,1.91,3.61,2.98c1.2,1.28,2.2,2.55,3.05,3.68c0.92,1.49,1.7,2.98,2.27,4.39c0.64,1.49,1.13,2.98,1.49,4.6
	c0.35,1.35,0.5,3.05,0.5,5.1v37.84c0,1.84-0.14,3.54-0.5,4.96c-0.35,1.7-0.85,3.26-1.49,4.75c-0.57,1.27-1.35,2.76-2.27,4.25
	c-0.78,1.27-1.77,2.55-3.05,3.68c-1.13,1.27-2.34,2.34-3.61,3.12c-1.56,0.99-2.9,1.77-4.18,2.34c-1.49,0.57-3.05,1.06-4.68,1.49
	c-1.42,0.35-3.05,0.5-4.89,0.5H81.4c-1.98,0-3.68-0.14-5.03-0.5c-1.56-0.35-3.05-0.85-4.53-1.49c-1.42-0.64-2.83-1.42-4.25-2.34
	c-1.13-0.78-2.34-1.77-3.54-3.12c-1.28-1.13-2.27-2.41-3.05-3.68c-0.99-1.56-1.7-2.98-2.34-4.25c-0.71-1.77-1.2-3.33-1.56-4.75
	c-0.21-1.2-0.35-2.9-0.35-4.96V81.08c0-2.2,0.14-3.9,0.35-5.1c0.35-1.42,0.85-2.9,1.56-4.6c0.64-1.42,1.42-2.9,2.34-4.39
	c0.71-1.13,1.77-2.34,3.05-3.61c1.2-1.27,2.41-2.34,3.54-3.05c1.42-0.92,2.83-1.7,4.25-2.34c1.7-0.71,3.26-1.27,4.68-1.56
	c1.2-0.28,2.83-0.42,4.89-0.42H118.6z M124.76,81.08c0.85,0,1.63-0.14,2.34-0.42c0.64-0.35,1.28-0.85,1.91-1.49
	c0.64-0.57,1.06-1.28,1.42-1.91c0.28-0.64,0.42-1.42,0.42-2.48c0-1.06-0.14-1.84-0.42-2.48c-0.35-0.71-0.78-1.35-1.28-1.91
	c-0.64-0.49-1.35-0.99-2.05-1.35c-0.71-0.28-1.49-0.43-2.34-0.43c-0.99,0-1.84,0.14-2.41,0.43c-0.71,0.28-1.35,0.71-1.91,1.35
	c-0.64,0.64-1.13,1.28-1.42,1.91c-0.28,0.64-0.42,1.42-0.42,2.48c0,1.06,0.14,1.84,0.42,2.48c0.28,0.71,0.71,1.35,1.28,1.91
	c0.64,0.71,1.35,1.2,2.05,1.49C122.92,80.94,123.77,81.08,124.76,81.08z M99.96,125.22c1.63,0,3.26-0.21,5.03-0.57
	c1.77-0.35,3.33-0.85,4.68-1.42c1.2-0.5,2.55-1.28,4.11-2.34c1.7-1.27,2.98-2.27,3.76-3.12c1.06-1.06,2.13-2.34,3.05-3.76
	c0.99-1.56,1.7-2.91,2.2-4.18c0.71-1.56,1.13-3.19,1.42-4.82c0.42-1.77,0.57-3.47,0.57-5.03c0-1.63-0.14-3.33-0.57-5.1
	c-0.28-1.63-0.71-3.19-1.42-4.75c-0.57-1.49-1.35-2.9-2.2-4.32c-0.92-1.28-1.91-2.55-3.05-3.68c-1.13-1.13-2.34-2.13-3.76-3.05
	c-1.63-1.13-3.05-1.91-4.11-2.34c-1.35-0.64-2.91-1.06-4.68-1.42c-1.77-0.35-3.4-0.57-5.03-0.57c-1.56,0-3.26,0.21-5.03,0.57
	c-1.7,0.35-3.19,0.78-4.61,1.42c-1.13,0.43-2.48,1.2-4.11,2.34c-1.42,0.92-2.69,1.91-3.76,3.05c-1.13,1.13-2.13,2.41-3.05,3.68
	c-0.99,1.63-1.77,3.05-2.27,4.32c-0.57,1.35-1.06,2.98-1.35,4.75c-0.42,1.77-0.57,3.47-0.57,5.1c0,1.56,0.14,3.26,0.57,5.03
	c0.28,1.84,0.78,3.4,1.35,4.82c0.42,1.06,1.13,2.48,2.27,4.18c0.92,1.42,1.91,2.69,3.05,3.76c0.78,0.85,2.05,1.84,3.76,3.12
	c1.49,1.06,2.9,1.84,4.11,2.34c1.42,0.57,2.91,1.06,4.61,1.42C96.71,125.01,98.41,125.22,99.96,125.22z M99.96,81.08
	c2.48,0,4.89,0.5,7.16,1.49c2.41,0.99,4.39,2.34,6.02,4.04c1.7,1.7,3.05,3.76,3.97,6.02c0.99,2.2,1.49,4.68,1.49,7.37
	c0,2.55-0.5,5.03-1.49,7.3c-0.92,2.34-2.27,4.39-3.97,6.09c-1.63,1.7-3.61,3.05-6.02,4.04c-2.27,0.99-4.68,1.49-7.16,1.49
	c-2.48,0-4.89-0.5-7.16-1.49c-2.27-0.99-4.25-2.34-5.95-4.04c-1.84-1.84-3.19-3.83-4.04-6.09c-0.92-2.2-1.42-4.68-1.42-7.3
	c0-2.76,0.5-5.24,1.42-7.37c0.85-2.2,2.2-4.25,4.04-6.02c1.7-1.77,3.68-3.12,5.95-4.04C95.08,81.58,97.48,81.08,99.96,81.08z"/>
</svg>
