<?xml version="1.0" encoding="utf-8"?>
<!-- Generator: Adobe Illustrator 23.0.0, SVG Export Plug-In . SVG Version: 6.00 Build 0)  -->
<svg version="1.1" id="Layer_1" xmlns="http://www.w3.org/2000/svg" xmlns:xlink="http://www.w3.org/1999/xlink" x="0px" y="0px"
	 viewBox="0 0 200 200" style="enable-background:new 0 0 200 200;" xml:space="preserve">
<style type="text/css">
	.st0{fill:#026419;}
</style>
<g>
	<path class="st0" d="M122.14,83.81c-8.86,0-14.81,4.82-17.29,9.42h-0.21v-8.01h-17.5v58.73h18.21v-29.05
		c0-7.65,1.49-15.09,10.91-15.09c9.35,0,9.49,8.71,9.49,15.59v28.55h18.21l0,0l0,0v-32.24C143.96,95.93,140.56,83.81,122.14,83.81z"
		/>
	<path class="st0" d="M75.73,85.23H57.45v58.73h18.28V85.23z"/>
	<path class="st0" d="M66.59,56.04c-5.81,0-10.56,4.75-10.56,10.56c0,5.81,4.75,10.63,10.56,10.63c5.81,0,10.56-4.82,10.56-10.63
		C77.15,60.78,72.4,56.04,66.59,56.04z"/>
</g>
</svg>
