<?xml version="1.0" encoding="utf-8"?>
<!-- Generator: Adobe Illustrator 23.0.0, SVG Export Plug-In . SVG Version: 6.00 Build 0)  -->
<svg version="1.1" id="Layer_1" xmlns="http://www.w3.org/2000/svg" xmlns:xlink="http://www.w3.org/1999/xlink" x="0px" y="0px"
	 viewBox="0 0 200 200" style="enable-background:new 0 0 200 200;" xml:space="preserve">
<style type="text/css">
	.st0{fill:#EB621D;}
	.st1{fill:#E41522;}
	.st2{fill:#F59E1F;}
</style>
<g>
	<rect x="275.34" y="938.77" class="st0" width="29.66" height="45.56"/>
	<path class="st1" d="M278.41,961.51c0-4.38,1.06-8.71,3.1-12.65c2.04-3.94,5.01-7.39,8.69-10.09c-4.52-3.35-9.96-5.43-15.68-6.01
		c-5.72-0.58-11.5,0.36-16.68,2.73c-5.18,2.36-9.54,6.05-12.6,10.64c-3.05,4.59-4.67,9.89-4.67,15.3c0,5.41,1.62,10.72,4.67,15.3
		c3.05,4.59,7.42,8.27,12.6,10.64c5.18,2.36,10.96,3.31,16.68,2.73c5.72-0.58,11.16-2.66,15.68-6.01
		c-3.65-2.68-6.61-6.11-8.65-10.02C279.51,970.16,278.43,965.86,278.41,961.51z"/>
	<path class="st2" d="M340.05,961.51c0.06,5.46-1.53,10.82-4.59,15.46c-3.06,4.64-7.45,8.37-12.67,10.76s-11.06,3.33-16.83,2.72
		s-11.24-2.75-15.77-6.16c3.19-2.34,5.86-5.25,7.85-8.57s3.26-6.97,3.74-10.75c0.48-3.78,0.16-7.61-0.94-11.28
		c-1.1-3.66-2.97-7.08-5.48-10.07c-1.52-1.81-3.25-3.46-5.17-4.9c4.53-3.42,10-5.55,15.77-6.16s11.61,0.33,16.83,2.72
		c5.22,2.39,9.62,6.12,12.67,10.76C338.51,950.68,340.1,956.05,340.05,961.51z"/>
</g>
<g>
	<rect x="85.04" y="77.26" class="st0" width="29.66" height="45.56"/>
	<path class="st1" d="M88.11,100c0-4.38,1.06-8.71,3.1-12.65c2.04-3.94,5.01-7.39,8.69-10.09c-4.52-3.35-9.96-5.43-15.68-6.01
		c-5.72-0.58-11.5,0.36-16.68,2.73c-5.18,2.36-9.54,6.05-12.6,10.64c-3.05,4.59-4.67,9.89-4.67,15.3c0,5.41,1.62,10.72,4.67,15.3
		c3.05,4.59,7.42,8.27,12.6,10.64c5.18,2.36,10.96,3.31,16.68,2.73c5.72-0.58,11.16-2.66,15.68-6.01
		c-3.65-2.68-6.61-6.11-8.65-10.02C89.2,108.65,88.13,104.36,88.11,100z"/>
	<path class="st2" d="M149.74,100c0.06,5.46-1.53,10.82-4.59,15.46c-3.06,4.64-7.45,8.37-12.67,10.76
		c-5.22,2.39-11.06,3.33-16.83,2.72c-5.77-0.61-11.24-2.75-15.77-6.16c3.19-2.34,5.86-5.25,7.85-8.57
		c1.99-3.32,3.26-6.97,3.74-10.75c0.48-3.78,0.16-7.61-0.94-11.28c-1.1-3.66-2.97-7.08-5.48-10.07c-1.52-1.81-3.25-3.46-5.17-4.9
		c4.53-3.42,10-5.55,15.77-6.16s11.61,0.33,16.83,2.72c5.22,2.39,9.62,6.12,12.67,10.76C148.21,89.18,149.8,94.54,149.74,100z"/>
</g>
</svg>
