<?xml version="1.0" encoding="utf-8"?>
<!-- Generator: Adobe Illustrator 23.0.0, SVG Export Plug-In . SVG Version: 6.00 Build 0)  -->
<svg version="1.1" id="Layer_1" xmlns="http://www.w3.org/2000/svg" xmlns:xlink="http://www.w3.org/1999/xlink" x="0px" y="0px"
	 viewBox="0 0 200 200" style="enable-background:new 0 0 200 200;" xml:space="preserve">
<style type="text/css">
	.st0{fill:#115C07;}
</style>
<g>
	<path class="st0" d="M128.98,104.68H51.01c-1.96,0-3.54-2.1-3.54-4.68c0-2.58,1.59-4.68,3.54-4.68h77.97c1.96,0,3.54,2.1,3.54,4.68
		C132.52,102.58,130.93,104.68,128.98,104.68z"/>
	<path class="st0" d="M148.15,68.82H51.85c-2.42,0-4.38-2.1-4.38-4.68c0-2.58,1.96-4.68,4.38-4.68h96.31c2.42,0,4.38,2.1,4.38,4.68
		C152.53,66.72,150.57,68.82,148.15,68.82z"/>
	<path class="st0" d="M148.15,140.54H51.85c-2.42,0-4.38-2.1-4.38-4.68c0-2.58,1.96-4.68,4.38-4.68h96.31c2.42,0,4.38,2.1,4.38,4.68
		C152.53,138.44,150.57,140.54,148.15,140.54z"/>
</g>
</svg>
