<?xml version="1.0" encoding="utf-8"?>
<!-- Generator: Adobe Illustrator 23.0.0, SVG Export Plug-In . SVG Version: 6.00 Build 0)  -->
<svg version="1.1" id="Layer_1" xmlns="http://www.w3.org/2000/svg" xmlns:xlink="http://www.w3.org/1999/xlink" x="0px" y="0px"
	 viewBox="0 0 200 200" style="enable-background:new 0 0 200 200;" xml:space="preserve">
<style type="text/css">
	.st0{clip-path:url(#SVGID_2_);}
	.st1{fill:#115C07;}
</style>
<g>
	<g>
		<defs>
			<rect id="SVGID_1_" x="69.69" y="53.7" width="60.62" height="92.6"/>
		</defs>
		<clipPath id="SVGID_2_">
			<use xlink:href="#SVGID_1_"  style="overflow:visible;"/>
		</clipPath>
		<g class="st0">
			<path class="st1" d="M122.61,53.7H77.39c-4.25,0-7.71,3.03-7.71,6.78v79.04c0,3.74,3.46,6.78,7.71,6.78h45.21
				c4.25,0,7.71-3.03,7.71-6.78V60.47C130.31,56.73,126.85,53.7,122.61,53.7z M127.23,127.3H83.56c-0.85,0-1.54,0.61-1.54,1.36
				c0,0.75,0.69,1.36,1.54,1.36h43.67v9.5c0,2.25-2.07,4.07-4.62,4.07H77.39c-2.55,0-4.62-1.82-4.62-4.07v-9.5h4.62
				c0.85,0,1.54-0.61,1.54-1.36c0-0.75-0.69-1.36-1.54-1.36h-4.62V67.27h54.46V127.3z M127.23,64.54H72.77v-4.07
				c0-2.25,2.07-4.07,4.62-4.07h45.21c2.55,0,4.62,1.82,4.62,4.07V64.54z"/>
			<path class="st1" d="M106.17,59.12H100c-0.85,0-1.54,0.61-1.54,1.36s0.69,1.36,1.54,1.36h6.17c0.85,0,1.54-0.61,1.54-1.36
				S107.02,59.12,106.17,59.12z"/>
			<path class="st1" d="M100,140.87c2.55,0,4.63-1.82,4.63-4.07c0-2.25-2.07-4.08-4.63-4.08c-2.55,0-4.62,1.84-4.62,4.08
				C95.37,139.05,97.45,140.87,100,140.87z M100,135.45c0.85,0,1.54,0.61,1.54,1.36c0,0.75-0.69,1.36-1.54,1.36
				c-0.85,0-1.54-0.61-1.54-1.36C98.46,136.06,99.15,135.45,100,135.45z"/>
			<path class="st1" d="M93.84,61.83c0.85,0,1.54-0.61,1.54-1.36s-0.69-1.36-1.54-1.36c-0.85,0-1.54,0.61-1.54,1.36
				S92.99,61.83,93.84,61.83z"/>
		</g>
	</g>
</g>
</svg>
