<?xml version="1.0" encoding="utf-8"?>
<!-- Generator: Adobe Illustrator 23.0.0, SVG Export Plug-In . SVG Version: 6.00 Build 0)  -->
<svg version="1.1" id="Layer_1" xmlns="http://www.w3.org/2000/svg" xmlns:xlink="http://www.w3.org/1999/xlink" x="0px" y="0px"
	 viewBox="0 0 200 200" style="enable-background:new 0 0 200 200;" xml:space="preserve">
<style type="text/css">
	.st0{fill:#115C07;}
</style>
<g>
	<path class="st0" d="M115.17,84.56c-0.93-1.96-1.85-3.92-2.8-5.88c-0.72-1.48-1.08-2.91,0.17-4.28c1.33-1.46,2.73-1.1,4.2-0.26
		c1.76,1,3.56,1.94,5.7,2.53c-1.63-2.98-3.25-5.95-4.87-8.93c-0.37-0.67-0.74-1.34-1.12-2c-1.02-1.75-1.3-3.56,0.53-4.76
		c1.82-1.2,3.24-0.18,4.23,1.6c3.29,5.85,6.57,11.7,9.85,17.55c0.54,0.97,1.36,1.87,1.55,2.91c0.24,1.23,0.38,2.99-0.25,3.74
		c-0.64,0.75-2.42,0.9-3.41,0.5c-2.64-1.07-5.1-2.58-8.11-4.17l3.66,7.8c0.72,1.52,1.34,3.09-0.04,4.52
		c-1.44,1.49-2.9,0.91-4.41-0.06c-5.95-3.83-11.93-7.61-17.9-11.42c-0.21-0.13-0.4-0.3-0.61-0.43c-1.63-1.11-2.58-2.62-1.44-4.54
		c1.06-1.79,2.69-1.63,4.28-0.63c2.71,1.7,5.43,3.41,8.15,5.11c0.74,0.47,1.49,0.91,2.24,1.37L115.17,84.56z"/>
	<path class="st0" d="M88.59,114.71l-7.53-8.05c-0.54-0.53-1.05-1.09-1.52-1.67c-1.13-1.51-1.53-3.15-0.04-4.6
		c1.4-1.37,2.87-0.93,4.11,0.35c2.78,2.89,5.5,5.85,8.25,8.78c2.23,2.38,4.45,4.77,6.7,7.14c1.14,1.2,2.2,2.39,1.34,4.27
		c-0.86,1.89-2.37,1.82-3.96,1.59c-5.12-0.76-10.24-1.52-15.36-2.28c-0.79-0.12-1.57-0.21-3.09-0.41l3.59,3.83
		c1.83,1.96,3.67,3.9,5.48,5.88c1.85,2.02,2.1,3.79,0.74,5.15c-1.35,1.36-2.98,1.11-4.86-0.88c-4.82-5.11-9.6-10.27-14.42-15.37
		c-1.21-1.28-1.87-2.63-1.1-4.38c0.78-1.79,2.27-1.65,3.76-1.43c5.9,0.88,11.8,1.76,17.69,2.63L88.59,114.71z"/>
	<path class="st0" d="M92.67,95.68l4.01,4.29c1.81-1.94,3.6-3.86,5.41-5.78c1.1-1.16,2.31-1.92,3.89-1.02
		c1.86,1.05,2.03,3.26,0.3,5.2c-1.73,1.95-3.61,3.89-5.51,5.92l3.97,4.24c1.4-1.5,2.75-2.95,4.1-4.38c0.64-0.67,1.26-1.35,1.94-1.95
		c1.29-1.14,2.76-1.28,3.93,0c1.18,1.28,1.15,2.89-0.03,4.19c-2.63,2.92-5.32,5.79-8.05,8.61c-1.25,1.28-2.72,1.09-3.9-0.16
		c-5.34-5.65-10.65-11.33-15.92-17.04c-1.25-1.35-1.26-2.96,0.05-4.37c2.55-2.76,5.12-5.5,7.72-8.23c1.31-1.38,2.84-1.41,4.11-0.12
		c1.26,1.29,1.05,2.92-0.05,4.2C96.77,91.43,94.78,93.43,92.67,95.68z"/>
	<path class="st0" d="M159.72,87.85l-8.02-34.72c-0.18-0.75-0.42-1.48-0.73-2.17l6.39-6.83c0.66-0.73,1.02-1.69,1.01-2.7
		c-0.01-1.01-0.39-1.97-1.05-2.68c-0.67-0.71-1.57-1.11-2.51-1.12c-0.94-0.01-1.85,0.38-2.52,1.08l-6.39,6.83
		c-0.65-0.33-1.33-0.59-2.03-0.77l-32.49-8.59c-1.81-0.48-3.69-0.45-5.48,0.08c-1.79,0.53-3.42,1.55-4.74,2.94l-58.04,61.91
		c-2.02,2.16-3.15,5.08-3.15,8.13s1.13,5.97,3.15,8.13l40.61,43.39c2.02,2.16,4.76,3.36,7.61,3.36c2.86,0,5.59-1.21,7.61-3.36
		l57.94-62.01c1.31-1.41,2.26-3.15,2.76-5.06C160.14,91.79,160.16,89.78,159.72,87.85z M151.82,93.36l-57.95,62
		c-0.68,0.72-1.59,1.12-2.54,1.12c-0.95,0-1.87-0.41-2.54-1.12l-40.61-43.39c-0.33-0.36-0.6-0.78-0.78-1.25
		c-0.18-0.47-0.27-0.96-0.27-1.47c0-0.51,0.09-1,0.27-1.47c0.18-0.47,0.45-0.89,0.78-1.25l58.04-61.9c0.68-0.72,1.59-1.12,2.55-1.12
		c0.29,0,0.58,0.03,0.86,0.11l30.52,8.04l-1.71,1.83c-1.55-0.58-3.24-0.59-4.8-0.04c-1.56,0.56-2.9,1.65-3.82,3.11
		c-0.92,1.46-1.35,3.2-1.24,4.96c0.11,1.75,0.77,3.41,1.86,4.72c1.1,1.31,2.56,2.2,4.18,2.52c1.62,0.32,3.29,0.06,4.75-0.74
		c1.46-0.81,2.63-2.1,3.33-3.69c0.7-1.59,0.88-3.39,0.52-5.1l2.01-2.15l7.53,32.6c0.15,0.64,0.14,1.32-0.03,1.96
		c-0.17,0.64-0.49,1.22-0.93,1.69L151.82,93.36z"/>
</g>
</svg>
