<?xml version="1.0" encoding="utf-8"?>
<!-- Generator: Adobe Illustrator 23.0.0, SVG Export Plug-In . SVG Version: 6.00 Build 0)  -->
<svg version="1.1" id="Layer_1" xmlns="http://www.w3.org/2000/svg" xmlns:xlink="http://www.w3.org/1999/xlink" x="0px" y="0px"
	 viewBox="0 0 200 200" style="enable-background:new 0 0 200 200;" xml:space="preserve">
<style type="text/css">
	.st0{fill:#115C07;}
</style>
<g>
	<path class="st0" d="M127.07,67.26H85.49c-1.11,0-1.97,0.88-1.97,1.95c0,1.08,0.87,1.95,1.97,1.95h41.58
		c1.11,0,1.97-0.88,1.97-1.95C129.04,68.14,128.17,67.26,127.07,67.26z"/>
	<path class="st0" d="M76.37,67.26h-6.59c-1.07,0-1.93,0.88-1.93,1.95c0,1.08,0.87,1.95,1.93,1.95h6.59c1.11,0,1.97-0.88,1.97-1.95
		C78.34,68.14,77.47,67.26,76.37,67.26z"/>
	<path class="st0" d="M90.23,127.17H69.77c-1.07,0-1.93,0.88-1.93,1.95c0,1.08,0.87,1.95,1.93,1.95h20.45
		c1.07,0,1.97-0.88,1.97-1.95C92.2,128.05,91.29,127.17,90.23,127.17z"/>
	<path class="st0" d="M98.44,107.2H69.77c-1.07,0-1.93,0.88-1.93,1.95s0.87,1.95,1.93,1.95h28.67c1.07,0,1.93-0.88,1.93-1.95
		C100.38,108.08,99.51,107.2,98.44,107.2z"/>
	<path class="st0" d="M112.38,87.23H69.77c-1.07,0-1.93,0.88-1.93,1.95s0.87,1.95,1.93,1.95h42.61c1.07,0,1.93-0.87,1.93-1.95
		C114.31,88.11,113.45,87.23,112.38,87.23z"/>
	<path class="st0" d="M149.38,47.26H68.59c-7.15,0-12.99,5.82-12.99,12.98v76.91H35.26c-0.51,0-0.99,0.21-1.38,0.58
		c-0.36,0.37-0.55,0.87-0.55,1.39c0.08,7.76,5.65,13.61,12.99,13.61h80.75h0.24c7.19,0,12.99-5.82,12.99-12.98v-23.68
		c0-1.08-0.87-1.95-1.93-1.95c-1.11,0-1.97,0.88-1.97,1.95v23.68c0,5-4.07,9.07-9.08,9.07h-0.24c-5.09,0-9-4.19-9.04-9.74
		c-0.04-1.07-0.91-1.94-1.97-1.94H59.51V60.24c0-5,4.07-9.07,9.08-9.07h71.51c-0.08,0.06-0.12,0.12-0.16,0.18
		c-0.08,0.07-0.16,0.14-0.24,0.22c-0.04,0.08-0.12,0.16-0.2,0.24c-0.08,0.08-0.12,0.15-0.2,0.23c-0.04,0.08-0.12,0.16-0.2,0.25
		c-0.04,0.08-0.12,0.16-0.16,0.24c-0.08,0.08-0.16,0.17-0.2,0.26c-0.08,0.08-0.12,0.17-0.2,0.25c-0.04,0.09-0.08,0.17-0.16,0.26
		c-0.04,0.09-0.12,0.17-0.16,0.26c-0.04,0.09-0.12,0.18-0.16,0.27c-0.04,0.09-0.12,0.18-0.16,0.27c-0.04,0.09-0.08,0.18-0.12,0.28
		c-0.08,0.09-0.12,0.18-0.16,0.28c-0.04,0.09-0.08,0.19-0.12,0.29c-0.04,0.1-0.08,0.19-0.12,0.29c-0.04,0.1-0.08,0.2-0.12,0.29
		c-0.04,0.1-0.08,0.19-0.12,0.29c-0.04,0.1-0.08,0.2-0.12,0.3c-0.04,0.1-0.08,0.19-0.08,0.29c-0.04,0.1-0.08,0.21-0.12,0.32
		c0,0.1-0.04,0.2-0.08,0.3c0,0.11-0.04,0.22-0.08,0.33c0,0.1-0.04,0.19-0.04,0.29c-0.04,0.11-0.04,0.23-0.08,0.35
		c0,0.1-0.04,0.19-0.04,0.29c-0.04,0.12-0.04,0.25-0.04,0.37c-0.04,0.09-0.04,0.18-0.04,0.27c-0.04,0.14-0.04,0.28-0.04,0.42
		c0,0.08,0,0.15-0.04,0.23c0,0.22,0,0.44,0,0.66v0.66v16.69c0,1.08,0.87,1.95,1.97,1.95c1.07,0,1.93-0.88,1.93-1.95V62.85h20.1
		c0.51,0,1.03-0.21,1.38-0.58c0.39-0.37,0.59-0.87,0.59-1.39C162.29,53.12,156.72,47.26,149.38,47.26z M114.24,141.06
		c0.04,0.2,0.08,0.4,0.08,0.6c0.04,0.07,0.04,0.13,0.04,0.2c0.04,0.13,0.08,0.26,0.08,0.39c0.04,0.08,0.04,0.15,0.08,0.23
		c0,0.12,0.04,0.23,0.08,0.35c0,0.08,0.04,0.16,0.08,0.24c0,0.11,0.04,0.22,0.08,0.33c0.04,0.08,0.04,0.16,0.08,0.24
		c0.04,0.11,0.08,0.21,0.12,0.32c0,0.08,0.04,0.16,0.08,0.24c0.04,0.1,0.08,0.21,0.12,0.31c0,0.08,0.04,0.16,0.08,0.23
		c0.04,0.1,0.08,0.21,0.12,0.31c0.04,0.07,0.08,0.15,0.12,0.22c0.04,0.11,0.08,0.21,0.16,0.32c0.04,0.07,0.04,0.13,0.08,0.2
		c0.08,0.12,0.16,0.24,0.2,0.36c0.04,0.04,0.04,0.09,0.08,0.13c0.08,0.16,0.2,0.32,0.28,0.48c0.04,0.04,0.08,0.07,0.08,0.11
		c0.08,0.12,0.16,0.24,0.24,0.36c0.04,0.05,0.08,0.11,0.12,0.16c0.08,0.1,0.16,0.2,0.2,0.29c0.08,0.06,0.12,0.11,0.16,0.17
		c0.08,0.09,0.12,0.18,0.2,0.27c0.04,0.06,0.12,0.11,0.16,0.17c0.08,0.08,0.12,0.17,0.2,0.25c0.08,0.06,0.12,0.11,0.16,0.17
		c0.04,0.04,0.08,0.08,0.12,0.12H46.32c-4.5,0-8.06-3.23-8.88-7.77H114.24z M140.38,58.94c0.04-0.01,0.04-0.03,0.04-0.04
		c0-0.06,0-0.12,0-0.18c0.04-0.08,0.04-0.17,0.04-0.25c0.04-0.06,0.04-0.13,0.08-0.19c0-0.08,0-0.15,0.04-0.23
		c0-0.06,0.04-0.13,0.04-0.19c0.04-0.07,0.04-0.15,0.08-0.22c0-0.07,0.04-0.13,0.04-0.2c0.04-0.07,0.04-0.14,0.08-0.21
		c0.04-0.07,0.04-0.13,0.08-0.2c0.04-0.06,0.04-0.13,0.08-0.19c0.04-0.07,0.04-0.14,0.08-0.2c0.04-0.06,0.04-0.12,0.08-0.18
		c0.04-0.07,0.08-0.14,0.08-0.21c0.04-0.05,0.08-0.1,0.08-0.15c0.04-0.08,0.08-0.15,0.12-0.22c0.04-0.03,0.04-0.06,0.08-0.08
		c0.16-0.32,0.36-0.63,0.59-0.92c0,0,0-0.01,0-0.01c0.08-0.09,0.12-0.19,0.2-0.28c0.04-0.01,0.04-0.03,0.04-0.04
		c0.08-0.09,0.16-0.18,0.24-0.26c0-0.02,0-0.03,0.04-0.05c0.08-0.09,0.16-0.17,0.24-0.25c0-0.01,0-0.03,0.04-0.04
		c0.08-0.08,0.16-0.17,0.24-0.25c0-0.01,0.04-0.02,0.04-0.03c0.08-0.09,0.16-0.17,0.28-0.25c0,0,0-0.01,0-0.01
		c1.18-1.04,2.69-1.78,4.3-2.08c0,0,0,0,0,0c0.12-0.02,0.28-0.05,0.39-0.07c0,0,0,0,0.04,0c0.12-0.02,0.24-0.03,0.4-0.05
		c0,0,0.04,0,0.04,0c0.12-0.01,0.24-0.02,0.36-0.02c0.08,0,0.16,0,0.24-0.01c0.04,0,0.12-0.01,0.2-0.01c4.5,0,8.06,3.23,8.88,7.77
		H140.38z"/>
	<path class="st0" d="M166.67,83.29c0-0.02,0-0.05,0-0.07c0-0.18-0.04-0.36-0.12-0.53c0-0.01,0-0.02,0-0.02c0-0.01,0-0.01,0-0.02
		c-0.04-0.09-0.08-0.17-0.12-0.25c0-0.01,0-0.02,0-0.03c-0.04-0.07-0.08-0.14-0.12-0.2c-0.04-0.01-0.04-0.03-0.04-0.04
		c-0.04-0.07-0.12-0.13-0.16-0.19c-0.04-0.01-0.04-0.03-0.04-0.04c-0.08-0.05-0.12-0.1-0.2-0.15c0-0.01,0-0.01-0.04-0.02
		c-0.04-0.05-0.12-0.1-0.2-0.14c-0.04-0.01-0.04-0.02-0.04-0.02c-0.08-0.04-0.16-0.08-0.24-0.1v0c-0.12-0.03-0.2-0.05-0.28-0.07
		c-0.04,0-0.04-0.01-0.08-0.01c-0.08-0.01-0.16-0.03-0.24-0.03c-16.39-0.42-37.71,3.51-48.49,15.82c-4.7,5.39-6.87,12.22-9,18.83
		c-0.16,0.54-0.32,1.08-0.51,1.62c0,0.02,0,0.05,0,0.07l-3.32,11.73c-0.28,1.04,0.32,2.12,1.34,2.41c0.2,0.05,0.36,0.07,0.55,0.07
		c0.83,0,1.62-0.56,1.86-1.43l3.08-10.88c3.75-1.76,6.75-2.58,10.82-3.68c2.13-0.58,4.54-1.23,7.42-2.12
		c6.28-1.93,18.28-9.99,23.81-15.98c4.86-5.24,8.92-9.13,13.62-13.01c0,0,0-0.01,0-0.01c0.08-0.06,0.16-0.12,0.2-0.19
		c0,0,0-0.01,0-0.01c0.08-0.07,0.12-0.14,0.2-0.21c0-0.01,0-0.03,0-0.04c0.12-0.15,0.16-0.31,0.24-0.48c0-0.02,0-0.03,0-0.05
		c0.04-0.08,0.04-0.17,0.04-0.26c0,0,0-0.01,0-0.01c0.04-0.06,0.04-0.12,0.04-0.18C166.67,83.33,166.67,83.31,166.67,83.29z
		 M119.25,99.75c4.54-5.19,11.53-9.11,20.73-11.64c2.45-0.68,5.09-1.24,7.78-1.69c-6.87,3.32-13.39,7.48-17.06,9.92
		c-5.88,3.94-12.28,8.73-16.98,12.98C115.1,105.8,116.8,102.54,119.25,99.75z M149.46,95.17c-5.37,5.83-16.98,13.33-22.07,14.89
		c-2.84,0.87-5.21,1.52-7.31,2.08c-1.86,0.51-3.59,0.98-5.29,1.52c0.75-0.73,1.66-1.54,2.72-2.46c4.19-3.68,9.67-7.81,15.36-11.61
		c9.87-6.59,18.8-11.22,25.35-13.22C155.38,88.99,152.58,91.81,149.46,95.17z"/>
</g>
</svg>
