<?xml version="1.0" encoding="utf-8"?>
<!-- Generator: Adobe Illustrator 23.0.0, SVG Export Plug-In . SVG Version: 6.00 Build 0)  -->
<svg version="1.1" id="Layer_1" xmlns="http://www.w3.org/2000/svg" xmlns:xlink="http://www.w3.org/1999/xlink" x="0px" y="0px"
	 viewBox="0 0 200 200" style="enable-background:new 0 0 200 200;" xml:space="preserve">
<style type="text/css">
	.st0{fill:#115C07;}
</style>
<g>
	<path class="st0" d="M108.27,68.65c2.45-2.25,4.03-5.48,4.03-9.08c0-6.78-5.53-12.3-12.32-12.3c-6.75,0-12.28,5.52-12.28,12.3
		c0,3.6,1.54,6.83,4.03,9.08c-7.31,1.41-12.83,7.83-12.83,15.53v7.03c0,0.97,0.79,1.76,1.78,1.76h38.66c0.99,0,1.78-0.79,1.78-1.76
		v-7.03C121.11,76.48,115.58,70.06,108.27,68.65z M91.21,59.57c0-4.85,3.95-8.79,8.77-8.79c4.86,0,8.81,3.94,8.81,8.79
		c0,4.85-3.95,8.79-8.81,8.79C95.16,68.36,91.21,64.42,91.21,59.57z M117.59,89.45H82.41v-5.27c0-6.78,5.53-12.3,12.32-12.3h10.54
		c6.79,0,12.32,5.52,12.32,12.3V89.45z"/>
	<path class="st0" d="M76.64,128.42c2.45-2.25,4.03-5.48,4.03-9.08c0-6.78-5.53-12.3-12.32-12.3c-6.79,0-12.28,5.52-12.28,12.3
		c0,3.6,1.54,6.83,4.03,9.08c-7.31,1.41-12.83,7.83-12.83,15.53v7.03c0,0.97,0.79,1.76,1.78,1.76H87.7c0.95,0,1.74-0.79,1.74-1.76
		v-7.03C89.44,136.25,83.91,129.83,76.64,128.42z M59.59,119.34c0-4.85,3.91-8.79,8.77-8.79s8.81,3.94,8.81,8.79
		c0,4.85-3.95,8.79-8.81,8.79S59.59,124.18,59.59,119.34z M85.92,149.22H50.78v-5.27c0-6.78,5.53-12.3,12.32-12.3h10.54
		c6.79,0,12.28,5.52,12.28,12.3V149.22z"/>
	<path class="st0" d="M139.9,128.42c2.49-2.25,4.07-5.48,4.07-9.08c0-6.78-5.53-12.3-12.32-12.3c-6.79,0-12.32,5.52-12.32,12.3
		c0,3.6,1.58,6.83,4.03,9.08c-7.27,1.41-12.79,7.83-12.79,15.53v7.03c0,0.97,0.79,1.76,1.74,1.76H151c0.95,0,1.74-0.79,1.74-1.76
		v-7.03C152.73,136.25,147.21,129.83,139.9,128.42z M122.84,119.34c0-4.85,3.95-8.79,8.81-8.79c4.86,0,8.81,3.94,8.81,8.79
		c0,4.85-3.95,8.79-8.81,8.79C126.79,128.13,122.84,124.18,122.84,119.34z M149.22,149.22h-35.14v-5.27c0-6.78,5.53-12.3,12.28-12.3
		h10.54c6.79,0,12.32,5.52,12.32,12.3V149.22z"/>
	<path class="st0" d="M57.85,103.46l-3.51,0.14c0.04,1.21,0.16,2.44,0.28,3.64l3.51-0.42C57.97,105.71,57.89,104.58,57.85,103.46z"
		/>
	<path class="st0" d="M54.61,96.3c-0.12,1.2-0.24,2.42-0.28,3.64l3.51,0.14c0.04-1.13,0.12-2.26,0.28-3.36L54.61,96.3z"/>
	<path class="st0" d="M72.3,65.4c-0.95,0.73-1.9,1.52-2.84,2.33l2.37,2.62c0.83-0.75,1.7-1.48,2.61-2.15L72.3,65.4z"/>
	<path class="st0" d="M58.64,82.3c-0.51,1.1-1.03,2.23-1.42,3.37l3.28,1.24c0.39-1.05,0.83-2.1,1.3-3.11L58.64,82.3z"/>
	<path class="st0" d="M56.07,89.14c-0.36,1.16-0.63,2.36-0.87,3.55l3.44,0.69c0.24-1.1,0.47-2.2,0.79-3.28L56.07,89.14z"/>
	<path class="st0" d="M66.85,70.29c-0.83,0.89-1.66,1.81-2.41,2.75l2.72,2.21c0.71-0.86,1.46-1.72,2.25-2.54L66.85,70.29z"/>
	<path class="st0" d="M78.46,61.45c-1.07,0.57-2.13,1.19-3.16,1.85l1.9,2.96c0.95-0.61,1.93-1.19,2.92-1.71L78.46,61.45z"/>
	<path class="st0" d="M62.27,75.96c-0.71,1-1.34,2.04-1.97,3.1l3.08,1.75c0.55-0.97,1.15-1.93,1.78-2.86L62.27,75.96z"/>
	<path class="st0" d="M91.69,143.12l-0.71,3.45c1.18,0.24,2.41,0.43,3.63,0.57l0.39-3.49C93.9,143.52,92.75,143.34,91.69,143.12z"/>
	<path class="st0" d="M108.43,143.1c-1.07,0.22-2.21,0.4-3.32,0.54l0.43,3.49c1.18-0.15,2.41-0.34,3.59-0.58L108.43,143.1z"/>
	<path class="st0" d="M101.76,143.91c-1.15,0.04-2.29,0.05-3.4,0.01l-0.12,3.51c0.55,0.02,1.14,0.04,1.78,0.04
		c0.59,0,1.22-0.02,1.86-0.04L101.76,143.91z"/>
	<path class="st0" d="M130.5,67.75l-2.33,2.62c0.83,0.75,1.66,1.54,2.41,2.35l2.57-2.42C132.32,69.42,131.41,68.56,130.5,67.75z"/>
	<path class="st0" d="M135.56,73.04l-2.72,2.21c0.71,0.87,1.38,1.78,2.01,2.71l2.88-1.99C137.06,74.97,136.31,73.98,135.56,73.04z"
		/>
	<path class="st0" d="M145.67,99.95l-3.51,0.14c0.04,0.55,0.04,1.11,0.04,1.67c0,0.57,0,1.14-0.04,1.71l3.51,0.14
		c0.04-0.61,0.04-1.23,0.04-1.85C145.71,101.15,145.71,100.55,145.67,99.95z"/>
	<path class="st0" d="M139.7,79.07l-3.08,1.75c0.55,0.97,1.11,1.98,1.58,2.99l3.16-1.5C140.85,81.21,140.3,80.12,139.7,79.07z"/>
	<path class="st0" d="M142.78,85.68l-3.28,1.24c0.39,1.05,0.75,2.13,1.07,3.2l3.36-0.97C143.61,87.98,143.22,86.81,142.78,85.68z"/>
	<path class="st0" d="M144.8,92.7l-3.44,0.69c0.24,1.1,0.4,2.22,0.55,3.33l3.47-0.42C145.23,95.11,145.07,93.89,144.8,92.7z"/>
	<path class="st0" d="M124.74,63.31l-1.9,2.96c0.91,0.6,1.86,1.26,2.76,1.94l2.13-2.8C126.75,64.67,125.77,63.97,124.74,63.31z"/>
	<path class="st0" d="M118.3,59.86l-1.42,3.22c1.03,0.45,2.05,0.94,3.04,1.47l1.66-3.1C120.51,60.88,119.41,60.34,118.3,59.86z"/>
</g>
</svg>
