<?xml version="1.0" encoding="utf-8"?>
<!-- Generator: Adobe Illustrator 23.0.0, SVG Export Plug-In . SVG Version: 6.00 Build 0)  -->
<svg version="1.1" id="Layer_1" xmlns="http://www.w3.org/2000/svg" xmlns:xlink="http://www.w3.org/1999/xlink" x="0px" y="0px"
	 viewBox="0 0 200 200" style="enable-background:new 0 0 200 200;" xml:space="preserve">
<style type="text/css">
	.st0{fill:#115C07;}
</style>
<g>
	<path class="st0" d="M125.17,58.6l-7.03-10.55c-0.16-0.24-0.36-0.44-0.63-0.58c-0.24-0.14-0.51-0.21-0.83-0.21H81.54
		c-0.28,0-0.59,0.07-0.83,0.21c-0.24,0.14-0.47,0.34-0.63,0.58L73.05,58.6c-0.2,0.28-0.32,0.62-0.32,0.97v35.16
		c0,1.4,0.59,2.74,1.58,3.72c0.99,0.99,2.33,1.54,3.71,1.55h42.17c1.42,0,2.76-0.56,3.75-1.55c0.99-0.99,1.54-2.33,1.54-3.72V59.57
		C125.49,59.23,125.37,58.89,125.17,58.6z M82.49,50.78h33.25l4.7,7.03H77.79L82.49,50.78z M102.63,61.33v12.53l-2.53-1.69
		c-0.32-0.2-0.63-0.3-0.99-0.3c-0.36,0-0.67,0.11-0.95,0.3l-2.57,1.69V61.33H102.63z M76.25,61.33h15.83v7.03H76.25V61.33z
		 M121.97,94.73c0,0.47-0.2,0.91-0.51,1.24c-0.36,0.33-0.79,0.51-1.26,0.51H78.03c-0.47,0-0.91-0.19-1.26-0.51
		c-0.32-0.33-0.51-0.78-0.51-1.24V71.87h15.83v5.27c0,0.32,0.08,0.63,0.24,0.9c0.2,0.27,0.39,0.5,0.71,0.64
		c0.28,0.15,0.59,0.23,0.91,0.21c0.32-0.02,0.59-0.12,0.87-0.3l4.3-2.87l4.3,2.87c0.28,0.17,0.59,0.27,0.91,0.29
		c0.32,0.01,0.63-0.06,0.91-0.21c0.28-0.15,0.51-0.37,0.67-0.64c0.16-0.27,0.24-0.58,0.24-0.9v-5.27h15.83V94.73z M121.97,68.36
		h-15.83v-7.03h15.83V68.36z"/>
	<path class="st0" d="M100.34,107.55c-0.32-0.33-0.75-0.51-1.22-0.51c-0.47,0-0.91,0.19-1.26,0.51l-10.54,10.55
		c-0.24,0.25-0.39,0.56-0.47,0.9c-0.08,0.34-0.04,0.69,0.12,1.02c0.12,0.32,0.36,0.6,0.63,0.79c0.28,0.19,0.63,0.3,0.99,0.3h3.51
		v12.3h3.51v-14.06c0-0.47-0.2-0.91-0.51-1.24c-0.36-0.33-0.79-0.51-1.26-0.51h-1.03l6.32-6.3l6.28,6.3h-1.03
		c-0.43,0-0.91,0.19-1.22,0.51c-0.32,0.33-0.51,0.78-0.51,1.24v21.09h3.51v-19.34h3.51c0.36,0,0.67-0.1,0.99-0.3
		c0.28-0.19,0.51-0.47,0.63-0.79c0.12-0.32,0.16-0.67,0.12-1.02c-0.08-0.34-0.24-0.65-0.51-0.9L100.34,107.55z"/>
	<path class="st0" d="M132.52,50.78h3.51v10.55h-3.51V50.78z"/>
	<path class="st0" d="M132.52,64.84h3.51v3.52h-3.51V64.84z"/>
	<path class="st0" d="M143.06,56.05h3.51v7.03h-3.51V56.05z"/>
	<path class="st0" d="M143.06,66.6h3.51v3.52h-3.51V66.6z"/>
	<path class="st0" d="M62.19,50.78h3.51v10.55h-3.51V50.78z"/>
	<path class="st0" d="M62.19,64.84h3.51v3.52h-3.51V64.84z"/>
	<path class="st0" d="M51.65,56.05h3.51v7.03h-3.51V56.05z"/>
	<path class="st0" d="M51.65,66.6h3.51v3.52h-3.51V66.6z"/>
	<path class="st0" d="M120.2,142.19h3.51v3.52h-3.51V142.19z"/>
	<path class="st0" d="M141.28,75.39c-1.86,0-3.63,0.74-4.94,2.06c-1.34,1.32-2.09,3.11-2.09,4.97v14.84
		c-0.24,0.02-0.51,0.07-0.75,0.12c-0.91,0.24-1.74,0.65-2.49,1.22c-0.71,0.56-1.34,1.27-1.78,2.07l-12.32,21.3
		c-0.16,0.27-0.24,0.57-0.24,0.88v12.3h-1.74c-0.47,0-0.91,0.19-1.26,0.51c-0.32,0.33-0.51,0.78-0.51,1.24v14.06
		c0,0.47,0.2,0.91,0.51,1.24c0.36,0.33,0.79,0.51,1.26,0.51h28.11c0.47,0,0.91-0.19,1.22-0.51c0.36-0.33,0.55-0.78,0.55-1.24v-14.06
		c0-0.47-0.2-0.91-0.55-1.24c-0.32-0.33-0.75-0.51-1.22-0.51h-1.78v-1.14l6.67-8.31c0.24-0.31,0.39-0.69,0.39-1.09V82.42
		c0-1.86-0.75-3.65-2.09-4.97C144.96,76.13,143.18,75.39,141.28,75.39z M141.28,149.22h-24.6v-10.55h24.6V149.22z M144.84,123.99
		l-6.67,8.31c-0.24,0.31-0.39,0.69-0.39,1.09v1.76H120.2v-11.83l12.08-20.9c0.24-0.42,0.51-0.79,0.91-1.09
		c0.36-0.3,0.79-0.52,1.22-0.66c0.47-0.13,0.95-0.17,1.42-0.11c0.47,0.06,0.91,0.21,1.34,0.45c0.39,0.24,0.75,0.56,1.03,0.93
		c0.28,0.38,0.51,0.81,0.59,1.27c0.12,0.46,0.16,0.94,0.08,1.41c-0.08,0.47-0.24,0.92-0.51,1.32l-8.77,15.22l3.04,1.76l8.77-15.22
		c0.95-1.62,1.18-3.54,0.71-5.34c-0.47-1.8-1.66-3.34-3.28-4.28c-0.32-0.18-0.67-0.34-1.07-0.47V82.42c0-0.93,0.39-1.83,1.07-2.49
		c0.63-0.66,1.54-1.03,2.45-1.03c0.95,0,1.86,0.37,2.49,1.03c0.67,0.66,1.07,1.55,1.07,2.49V123.99z"/>
	<path class="st0" d="M85.05,135.16h-1.78v-12.3c0-0.31-0.08-0.61-0.2-0.88l-12.32-21.3c-0.55-0.91-1.26-1.69-2.13-2.28
		c-0.87-0.59-1.86-0.98-2.92-1.13V82.42c0-1.86-0.75-3.65-2.05-4.97c-1.3-1.32-3.12-2.06-4.98-2.06s-3.63,0.74-4.98,2.06
		c-1.3,1.32-2.05,3.11-2.05,4.97v42.19c0,0.4,0.12,0.78,0.39,1.09l6.63,8.31v1.14h-1.74c-0.47,0-0.95,0.19-1.26,0.51
		c-0.32,0.33-0.51,0.78-0.51,1.24v14.06c0,0.47,0.2,0.91,0.51,1.24c0.32,0.33,0.79,0.51,1.26,0.51h28.11c0.47,0,0.91-0.19,1.22-0.51
		c0.36-0.33,0.51-0.78,0.51-1.24v-14.06c0-0.47-0.16-0.91-0.51-1.24C85.96,135.34,85.53,135.16,85.05,135.16z M55.16,123.99V82.42
		c0-0.93,0.36-1.83,1.03-2.49c0.67-0.66,1.54-1.03,2.49-1.03s1.82,0.37,2.49,1.03c0.67,0.66,1.03,1.55,1.03,2.49v15.19
		c-0.36,0.14-0.71,0.29-1.07,0.47c-0.79,0.46-1.5,1.08-2.05,1.81c-0.55,0.73-0.99,1.57-1.22,2.46c-0.24,0.89-0.28,1.82-0.16,2.74
		c0.12,0.92,0.43,1.8,0.87,2.6l8.81,15.22l3.04-1.76l-8.81-15.22c-0.24-0.4-0.39-0.85-0.47-1.32c-0.08-0.47-0.08-0.95,0.04-1.41
		c0.12-0.46,0.32-0.89,0.59-1.27c0.32-0.38,0.67-0.7,1.07-0.93c0.4-0.24,0.87-0.39,1.34-0.45c0.47-0.06,0.95-0.02,1.38,0.11
		c0.47,0.13,0.91,0.35,1.26,0.66c0.36,0.3,0.67,0.67,0.87,1.09l12.08,20.9v11.83H62.19v-1.76c0-0.4-0.12-0.78-0.4-1.09L55.16,123.99
		z M83.28,149.22h-24.6v-10.55h24.6V149.22z"/>
	<path class="st0" d="M76.25,142.19h3.51v3.52h-3.51V142.19z"/>
	<path class="st0" d="M102.63,143.95h3.51v3.52h-3.51V143.95z"/>
	<path class="st0" d="M92.08,136.92h3.51v3.52h-3.51V136.92z"/>
</g>
</svg>
