<?xml version="1.0" encoding="utf-8"?>
<!-- Generator: Adobe Illustrator 23.0.0, SVG Export Plug-In . SVG Version: 6.00 Build 0)  -->
<svg version="1.1" id="Layer_1" xmlns="http://www.w3.org/2000/svg" xmlns:xlink="http://www.w3.org/1999/xlink" x="0px" y="0px"
	 viewBox="0 0 200 200" style="enable-background:new 0 0 200 200;" xml:space="preserve">
<style type="text/css">
	.st0{fill:#115C07;}
</style>
<g>
	<path class="st0" d="M128.28,46.55h-67.8c-1.66,0-3,1.44-3,3.2v100.51c0,1.76,1.35,3.2,3,3.2h67.8c7.85,0,14.25-6.81,14.25-15.18
		V61.73C142.52,53.36,136.13,46.55,128.28,46.55z M67.33,147.18h-3.97V52.81h3.97V147.18z M136.64,138.27
		c0,4.91-3.75,8.92-8.36,8.92H73.21V52.81h55.06c4.61,0,8.36,4,8.36,8.92V138.27z"/>
	<path class="st0" d="M118.26,87.58c-0.42,0-0.83,0.03-1.23,0.09c-1.11-5.59-5.77-9.75-11.3-9.75c-4.83,0-8.97,3.18-10.69,7.67
		c-0.85-0.25-1.73-0.38-2.63-0.38c-5.41,0-9.82,4.69-9.82,10.47c0,4.68,2.89,8.65,6.87,9.99v10.62c0,1.73,1.32,3.14,2.94,3.14h25.85
		c1.63,0,2.95-1.41,2.95-3.14V105.6c3.36-1.29,5.76-4.72,5.76-8.74C126.97,91.74,123.06,87.58,118.26,87.58z M115.31,113.15H95.35
		v-7h19.96V113.15z M118.26,99.87H92.41c-2.17,0-3.93-1.88-3.93-4.19c0-2.31,1.77-4.19,3.93-4.19c1,0,1.92,0.44,2.68,1.12
		c1.91,1.71,4.92,0.94,4.98-2.38c0-3.33,2.54-6.03,5.66-6.03c2.99,0,5.47,2.48,5.65,5.66c0.01,0.3,0.01,2.2,0.02,2.79
		c0,1.58,1.19,3.01,2.67,3.01c0.82,0,1.67-0.39,2.27-1.01l0,0c0.53-0.52,1.21-0.81,1.92-0.81c1.56,0,2.83,1.35,2.83,3.01
		S119.82,99.87,118.26,99.87z"/>
</g>
</svg>
