<?xml version="1.0" encoding="utf-8"?>
<!-- Generator: Adobe Illustrator 23.0.0, SVG Export Plug-In . SVG Version: 6.00 Build 0)  -->
<svg version="1.1" id="Layer_1" xmlns="http://www.w3.org/2000/svg" xmlns:xlink="http://www.w3.org/1999/xlink" x="0px" y="0px"
	 viewBox="0 0 200 200" style="enable-background:new 0 0 200 200;" xml:space="preserve">
<style type="text/css">
	.st0{fill:#115C07;}
</style>
<g>
	<path class="st0" d="M53.46,94.88l14.93-0.07c1.12-0.02,1.86-0.66,1.85-1.6c-0.01-0.96-0.76-1.59-1.88-1.59l-14.93,0.09
		c-1.12,0-1.86,0.64-1.85,1.61C51.59,94.26,52.34,94.9,53.46,94.88z"/>
	<path class="st0" d="M75.85,94.76l14.93-0.07c1.12,0,1.86-0.64,1.85-1.61c-0.01-0.95-0.76-1.59-1.88-1.57l-14.93,0.07
		c-1.12,0-1.86,0.64-1.86,1.6C73.98,94.13,74.73,94.78,75.85,94.76z"/>
	<path class="st0" d="M53.5,101.25l24.26-0.12c1.12-0.02,1.86-0.64,1.85-1.6c-0.01-0.96-0.76-1.59-1.88-1.59l-24.26,0.14
		c-1.12,0-1.86,0.64-1.85,1.59C51.63,100.62,52.38,101.25,53.5,101.25z"/>
	<path class="st0" d="M90.81,97.86l-5.6,0.04c-1.12,0-1.86,0.64-1.85,1.61c0.01,0.95,0.76,1.59,1.88,1.59l5.6-0.04
		c1.12,0,1.86-0.64,1.85-1.6C92.67,98.5,91.93,97.86,90.81,97.86z"/>
	<path class="st0" d="M154.3,77.82c-1.32-1.43-3-2.21-5.06-2.37l-4.48-0.43l-0.03-4.48l-0.02-3.17c-0.02-3.51-3.4-6.35-7.51-6.33
		l-85.83,0.45c-4.1,0.02-7.44,2.91-7.42,6.4l0.02,3.19l0.09,12.73l0.24,34.98c0.02,2.89,2.3,5.31,5.39,6.08
		c-0.07,3.21,2.8,5.99,6.64,6.28l86.26,7.81c0.19,0,0.56,0,0.75,0c3.73-0.02,7.08-2.42,7.43-5.44l5.25-51.1
		C156.19,80.83,155.62,79.09,154.3,77.82z M47.72,72.65l93.3-0.5l0.03,4.14l0.04,5.42l-93.3,0.48L47.72,72.65z M51.4,64.68
		l85.83-0.46c2.05,0,3.74,1.43,3.75,3.17l0.01,1.59L47.7,69.46l-0.01-1.59C47.68,66.12,49.35,64.68,51.4,64.68z M48.03,118.78
		l-0.23-33.4l93.3-0.5l0.23,33.41c0.01,1.75-1.66,3.19-3.71,3.19l-85.65,0.46h-0.19C49.73,121.95,48.04,120.52,48.03,118.78z
		 M152.28,81.79l-5.25,51.1c-0.17,1.75-2.03,3.03-4.09,2.89l-86.08-7.83c-1.87-0.14-3.18-1.41-3.38-2.84l84.15-0.45
		c4.1-0.02,7.44-2.91,7.42-6.4l-0.24-35l-0.04-5.26l4.29,0.3c0.93,0,1.87,0.46,2.43,1.11C152.08,80.05,152.46,81.01,152.28,81.79z"
		/>
	<path class="st0" d="M131.42,91.85c-0.08-0.29-0.4-0.45-0.72-0.37c-10.01,2.37-14.02-3.57-14.53-4.4
		c-0.02-0.05-0.04-0.09-0.07-0.12c-0.12-0.16-0.3-0.25-0.5-0.25c-0.2,0-0.39,0.09-0.5,0.25c-0.03,0.04-0.06,0.09-0.07,0.14
		c-0.58,0.94-4.62,6.74-14.51,4.39c-0.31-0.07-0.63,0.09-0.72,0.37c-0.05,0.2-5.16,18.54,15.55,26.59c0.08,0.04,0.18,0.05,0.27,0.05
		c0.12,0,0.23-0.02,0.32-0.07C136.57,110.34,131.48,92.03,131.42,91.85z M115.61,117.39c-17.89-7.06-15.5-21.77-14.81-24.75
		c8.86,1.87,13.36-2.55,14.81-4.4c1.45,1.85,5.94,6.28,14.81,4.4l0,0C131.11,95.61,133.5,110.32,115.61,117.39z"/>
	<path class="st0" d="M129.32,94.08c-0.13-0.09-0.29-0.12-0.44-0.11c-0.87,0.12-1.74,0.18-2.62,0.18c-0.32,0-0.59,0.23-0.59,0.54
		c0,0.29,0.26,0.53,0.59,0.53V95.2c0.73,0,1.46-0.04,2.19-0.11c0.48,4.56-0.13,14.48-12.84,19.95c-1.21-0.5-2.37-1.11-3.48-1.77
		c-0.27-0.16-0.63-0.09-0.81,0.16c-0.18,0.23-0.11,0.55,0.16,0.73c1.24,0.73,2.54,1.39,3.89,1.94c0.08,0.04,0.16,0.05,0.25,0.05
		c0.09,0,0.17-0.02,0.25-0.05c14.17-5.96,14.3-17.15,13.69-21.68C129.53,94.29,129.45,94.17,129.32,94.08z"/>
	<path class="st0" d="M103.16,101.46c-0.46-2.09-0.59-4.24-0.38-6.37c0.72,0.07,1.45,0.12,2.17,0.12c3.96,0.07,7.79-1.28,10.65-3.74
		c1.61,1.41,3.56,2.46,5.7,3.07c0.31,0.09,0.64-0.07,0.74-0.34c0.1-0.29-0.07-0.59-0.38-0.68c-2.14-0.61-4.08-1.69-5.63-3.16
		c-0.24-0.21-0.61-0.21-0.85,0c-2.68,2.48-6.39,3.85-10.23,3.78c-0.87,0-1.75-0.05-2.61-0.18c-0.16-0.02-0.32,0.02-0.44,0.11
		c-0.12,0.09-0.21,0.21-0.22,0.36c-0.31,2.43-0.19,4.87,0.33,7.24c0.75,3.46,2.54,6.65,5.18,9.24c0.14,0.14,0.36,0.2,0.56,0.16
		c0.21-0.05,0.37-0.2,0.43-0.37c0.06-0.18,0.01-0.37-0.13-0.52C105.56,107.74,103.86,104.73,103.16,101.46z"/>
	<path class="st0" d="M103.3,113.19h-1.17v-1.05c0-0.3-0.26-0.53-0.59-0.53c-0.32,0-0.59,0.23-0.59,0.53v1.05h-1.18
		c-0.32,0-0.59,0.25-0.59,0.54c0,0.29,0.26,0.54,0.59,0.54h1.17v1.05c0,0.3,0.26,0.54,0.59,0.54c0.32,0,0.59-0.23,0.59-0.54v-1.05
		h1.18c0.32,0,0.58-0.25,0.58-0.54C103.88,113.44,103.62,113.19,103.3,113.19z"/>
	<path class="st0" d="M132.05,115.85h-1.18v-1.05c0-0.3-0.26-0.53-0.59-0.53c-0.32,0-0.59,0.23-0.59,0.53v1.05h-1.17
		c-0.32,0-0.59,0.23-0.59,0.54c0,0.29,0.26,0.52,0.59,0.52h1.17v1.07c0,0.29,0.26,0.54,0.59,0.54c0.32,0,0.59-0.25,0.59-0.54v-1.07
		h1.18c0.32,0,0.58-0.23,0.58-0.52C132.63,116.08,132.37,115.85,132.05,115.85z"/>
	<path class="st0" d="M127.36,88.8h0.59v0.54c0,0.3,0.26,0.53,0.59,0.53c0.32,0,0.59-0.23,0.59-0.53V88.8h0.59
		c0.32,0,0.59-0.23,0.59-0.52c0-0.3-0.26-0.54-0.59-0.54h-0.59v-0.54c0-0.29-0.26-0.53-0.59-0.53c-0.32,0-0.59,0.25-0.59,0.53v0.54
		h-0.59c-0.32,0-0.59,0.23-0.59,0.54C126.77,88.57,127.03,88.8,127.36,88.8z"/>
	<path class="st0" d="M118.24,111.07c2.27,0,4.1-1.66,4.11-3.71v-5.83c0-0.59-0.52-1.05-1.17-1.05h-0.59v-1.61
		c0-2.34-2.1-4.24-4.69-4.24s-4.69,1.91-4.69,4.24v1.61h-0.59c-0.65,0-1.17,0.46-1.17,1.05v5.83c0,2.05,1.84,3.71,4.11,3.71H118.24z
		 M112.38,98.88c0-1.75,1.58-3.17,3.52-3.17c1.94,0,3.52,1.43,3.52,3.17v1.61h-7.04V98.88z M110.67,107.9h1.12
		c0.32,0,0.59-0.23,0.59-0.54c0-0.29-0.26-0.54-0.59-0.54h-1.18v-1.05h1.18c0.32,0,0.59-0.23,0.59-0.54c0-0.29-0.26-0.54-0.59-0.54
		h-1.18v-1.05h1.18c0.32,0,0.59-0.23,0.59-0.53c0-0.29-0.26-0.52-0.59-0.52h-1.18v-1.07h10.56v1.07H120c-0.32,0-0.59,0.23-0.59,0.52
		c0,0.3,0.26,0.53,0.59,0.53h1.17v1.05H120c-0.32,0-0.59,0.25-0.59,0.54c0,0.3,0.26,0.54,0.59,0.54h1.17v1.05H120
		c-0.32,0-0.59,0.25-0.59,0.54c0,0.3,0.26,0.54,0.59,0.54h1.11c-0.28,1.23-1.48,2.12-2.88,2.12h-4.69
		C112.16,110.02,110.95,109.13,110.67,107.9z"/>
	<path class="st0" d="M115.31,106.21v1.16c0,0.3,0.26,0.54,0.59,0.54c0.32,0,0.59-0.23,0.59-0.54v-1.16c0.81-0.25,1.29-1,1.15-1.77
		c-0.14-0.77-0.88-1.32-1.73-1.32s-1.59,0.55-1.73,1.32C114.02,105.21,114.5,105.96,115.31,106.21z M115.89,104.19
		c0.32,0,0.59,0.23,0.59,0.52c0,0.3-0.26,0.54-0.59,0.54c-0.32,0-0.59-0.23-0.59-0.54C115.31,104.42,115.57,104.19,115.89,104.19z"
		/>
</g>
</svg>
