<?xml version="1.0" encoding="utf-8"?>
<!-- Generator: Adobe Illustrator 23.0.0, SVG Export Plug-In . SVG Version: 6.00 Build 0)  -->
<svg version="1.1" id="Layer_1" xmlns="http://www.w3.org/2000/svg" xmlns:xlink="http://www.w3.org/1999/xlink" x="0px" y="0px"
	 viewBox="0 0 200 200" style="enable-background:new 0 0 200 200;" xml:space="preserve">
<style type="text/css">
	.st0{fill:#115C07;}
</style>
<path class="st0" d="M155.34,150.28l-29.15-28.67c7.65-8.29,12.35-19.25,12.35-31.31c0-25.8-21.25-46.72-47.51-46.72
	c-26.2,0-47.45,20.92-47.45,46.72c0,25.8,21.25,46.72,47.45,46.72c11.35,0,21.75-3.92,29.9-10.43l29.21,28.78
	c1.44,1.4,3.76,1.4,5.2,0C156.78,153.96,156.78,151.69,155.34,150.28z M91.03,129.83c-22.19,0-40.11-17.7-40.11-39.53
	s17.93-39.53,40.11-39.53c22.19,0,40.18,17.7,40.18,39.53S113.22,129.83,91.03,129.83z"/>
</svg>
