<?xml version="1.0" encoding="utf-8"?>
<!-- Generator: Adobe Illustrator 23.0.0, SVG Export Plug-In . SVG Version: 6.00 Build 0)  -->
<svg version="1.1" id="Layer_1" xmlns="http://www.w3.org/2000/svg" xmlns:xlink="http://www.w3.org/1999/xlink" x="0px" y="0px"
	 viewBox="0 0 200 200" style="enable-background:new 0 0 200 200;" xml:space="preserve">
<style type="text/css">
	.st0{fill:#166634;}
</style>
<g>
	<g>
		<g>
			<g>
				<path class="st0" d="M100,152.29c-28.83,0-52.29-23.46-52.29-52.29S71.17,47.71,100,47.71s52.29,23.46,52.29,52.29
					S128.83,152.29,100,152.29z M100,50.23c-27.44,0-49.77,22.33-49.77,49.77s22.33,49.77,49.77,49.77s49.77-22.33,49.77-49.77
					S127.44,50.23,100,50.23z"/>
			</g>
		</g>
		<g>
			<path class="st0" d="M149.29,86.79c-1.56-5.82-4.13-11.24-7.5-16.05c-3.42-4.87-7.66-9.11-12.53-12.53
				c-4.81-3.37-10.23-5.94-16.05-7.5c-4.22-1.13-8.64-1.74-13.21-1.74v4.75c4.14,0,8.15,0.55,11.98,1.58
				c5.28,1.42,10.19,3.74,14.55,6.81c4.41,3.1,8.26,6.94,11.36,11.36c3.06,4.36,5.4,9.26,6.81,14.55c1.03,3.82,1.58,7.84,1.58,11.98
				c0,1.36-0.07,2.7-0.19,4.04c-0.48,5.5-1.92,10.73-4.16,15.52c-2.3,4.91-5.43,9.36-9.22,13.15c-3.79,3.79-8.24,6.92-13.15,9.22
				c-4.79,2.24-10.02,3.68-15.52,4.16c-1.33,0.12-2.67,0.19-4.03,0.19c-4.14,0-8.15-0.55-11.98-1.58
				c-5.28-1.42-10.19-3.74-14.55-6.81l-2.74,3.91c4.81,3.37,10.23,5.94,16.05,7.5c4.22,1.13,8.64,1.74,13.21,1.74
				c1.5,0,2.98-0.08,4.45-0.2c6.08-0.53,11.84-2.11,17.12-4.57c5.42-2.53,10.33-5.98,14.52-10.16c4.18-4.18,7.63-9.09,10.16-14.51
				c2.46-5.28,4.05-11.04,4.57-17.12c0.13-1.47,0.2-2.95,0.2-4.45C151.03,95.43,150.42,91.01,149.29,86.79z"/>
		</g>
	</g>
</g>
</svg>
