<?xml version="1.0" encoding="utf-8"?>
<!-- Generator: Adobe Illustrator 23.0.0, SVG Export Plug-In . SVG Version: 6.00 Build 0)  -->
<svg version="1.1" id="Layer_1" xmlns="http://www.w3.org/2000/svg" xmlns:xlink="http://www.w3.org/1999/xlink" x="0px" y="0px"
	 viewBox="0 0 200 200" style="enable-background:new 0 0 200 200;" xml:space="preserve">
<style type="text/css">
	.st0{fill:#EB621D;}
	.st1{fill:#E41522;}
	.st2{fill:#F59E1F;}
	.st3{fill:#FFFFFF;}
	.st4{fill:#115C07;}
	.st5{fill:#A4D232;}
	.st6{fill:#02641B;}
</style>
<g>
	<rect x="275.34" y="938.77" class="st0" width="29.66" height="45.56"/>
	<path class="st1" d="M278.41,961.51c0-4.38,1.06-8.71,3.1-12.65c2.04-3.94,5.01-7.39,8.69-10.09c-4.52-3.35-9.96-5.43-15.68-6.01
		c-5.72-0.58-11.5,0.36-16.68,2.73c-5.18,2.36-9.54,6.05-12.6,10.64c-3.05,4.59-4.67,9.89-4.67,15.3c0,5.41,1.62,10.72,4.67,15.3
		c3.05,4.59,7.42,8.27,12.6,10.64c5.18,2.36,10.96,3.31,16.68,2.73c5.72-0.58,11.16-2.66,15.68-6.01
		c-3.65-2.68-6.61-6.11-8.65-10.02C279.51,970.16,278.43,965.86,278.41,961.51z"/>
	<path class="st2" d="M340.05,961.51c0.06,5.46-1.53,10.82-4.59,15.46c-3.06,4.64-7.45,8.37-12.67,10.76s-11.06,3.33-16.83,2.72
		s-11.24-2.75-15.77-6.16c3.19-2.34,5.86-5.25,7.85-8.57s3.26-6.97,3.74-10.75c0.48-3.78,0.16-7.61-0.94-11.28
		c-1.1-3.66-2.97-7.08-5.48-10.07c-1.52-1.81-3.25-3.46-5.17-4.9c4.53-3.42,10-5.55,15.77-6.16s11.61,0.33,16.83,2.72
		c5.22,2.39,9.62,6.12,12.67,10.76C338.51,950.68,340.1,956.05,340.05,961.51z"/>
</g>
<g>
	<path class="st3" d="M100,140.78c22.52,0,40.78-18.26,40.78-40.78S122.52,59.22,100,59.22c-22.52,0-40.78,18.26-40.78,40.78
		S77.48,140.78,100,140.78z"/>
	<path class="st4" d="M76.54,105.85c-0.59-2.33-0.86-4.77-0.72-7.3c0.7-13.36,12.1-23.62,25.46-22.92
		c13.09,0.69,23.21,11.65,22.94,24.66l5.7,6.9l7.01-2.39c0.13-1,0.24-2.01,0.29-3.04c1.08-20.56-14.71-38.1-35.27-39.18
		c-20.56-1.08-38.1,14.71-39.18,35.27c-0.23,4.46,0.33,8.76,1.55,12.8l5.08-6.59L76.54,105.85z"/>
	<path class="st5" d="M129.32,109.35l-5.29-6.41c-1.6,12.44-12.55,21.74-25.28,21.07c-10.08-0.53-18.4-7.15-21.57-16.11l-7.03-1.75
		l-5.09,6.61c5.01,13.53,17.69,23.48,33.01,24.29c18.82,0.99,35.11-12.17,38.55-30.18L129.32,109.35z"/>
	<path class="st3" d="M67.68,94.86l-0.13,1.72l4.56,0.36l-0.13,1.65l-4.56-0.36l-0.13,1.73l-1.43-0.12l0.4-5.1L67.68,94.86z"/>
	<path class="st3" d="M72.32,94.87l-5.8-1.59l0.73-2.66c0.08-0.28,0.21-0.53,0.39-0.73c0.18-0.21,0.39-0.37,0.62-0.49
		c0.23-0.12,0.49-0.2,0.76-0.23c0.27-0.03,0.53-0.01,0.77,0.05c0.34,0.09,0.63,0.25,0.88,0.48c0.25,0.23,0.43,0.5,0.54,0.81
		l2.47-0.64l-0.49,1.8l-2.06,0.53l-0.17,0.59l1.78,0.49L72.32,94.87z M69.58,92.41l0.28-1c0.02-0.1,0-0.2-0.09-0.32
		c-0.09-0.12-0.23-0.2-0.42-0.25c-0.2-0.06-0.37-0.05-0.5,0.02c-0.13,0.07-0.21,0.15-0.24,0.25l-0.26,0.96L69.58,92.41z"/>
	<path class="st3" d="M73.7,86.71c0.09-0.17,0.12-0.34,0.11-0.5c-0.01-0.16-0.07-0.31-0.15-0.45c-0.09-0.13-0.2-0.26-0.34-0.38
		c-0.14-0.12-0.3-0.22-0.48-0.31l-2.76-1.4l0.74-1.48l2.76,1.39c0.37,0.19,0.7,0.41,0.97,0.67c0.28,0.26,0.48,0.55,0.62,0.87
		c0.13,0.32,0.2,0.67,0.18,1.04c-0.02,0.37-0.13,0.76-0.34,1.18c-0.21,0.43-0.47,0.76-0.77,0.99c-0.3,0.23-0.62,0.39-0.95,0.46
		c-0.34,0.07-0.69,0.08-1.06,0.01c-0.37-0.07-0.73-0.2-1.08-0.38l-2.76-1.39l0.75-1.47l2.76,1.4c0.18,0.09,0.35,0.16,0.54,0.2
		c0.18,0.05,0.35,0.06,0.51,0.05c0.16-0.01,0.31-0.06,0.44-0.14C73.51,87.01,73.62,86.88,73.7,86.71z"/>
	<path class="st3" d="M75.65,79.02c-0.18,0.07-0.36,0.15-0.54,0.24c-0.15,0.08-0.31,0.17-0.47,0.29c-0.17,0.11-0.3,0.24-0.41,0.39
		c-0.09,0.12-0.15,0.22-0.17,0.32c-0.02,0.1,0.02,0.18,0.1,0.24c0.06,0.05,0.13,0.07,0.2,0.06c0.07-0.01,0.15-0.04,0.24-0.09
		c0.09-0.05,0.2-0.12,0.31-0.2c0.12-0.09,0.25-0.18,0.4-0.28c0.24-0.17,0.47-0.31,0.68-0.42c0.21-0.12,0.43-0.19,0.64-0.23
		s0.41-0.03,0.62,0.02s0.42,0.17,0.64,0.34c0.28,0.22,0.48,0.46,0.59,0.72c0.11,0.26,0.16,0.51,0.14,0.78
		c-0.02,0.26-0.09,0.52-0.2,0.78c-0.12,0.26-0.26,0.5-0.43,0.71c-0.13,0.17-0.29,0.34-0.46,0.5s-0.35,0.31-0.54,0.45
		c-0.19,0.14-0.39,0.27-0.58,0.39c-0.2,0.12-0.39,0.21-0.59,0.29l-0.7-1.45c0.22-0.08,0.43-0.17,0.64-0.28
		c0.18-0.09,0.36-0.2,0.56-0.34c0.2-0.14,0.36-0.3,0.51-0.49c0.11-0.14,0.17-0.26,0.18-0.34c0.01-0.09-0.02-0.15-0.09-0.2
		c-0.07-0.05-0.15-0.07-0.23-0.05c-0.09,0.02-0.19,0.06-0.31,0.13c-0.11,0.07-0.23,0.15-0.37,0.25c-0.13,0.1-0.28,0.2-0.44,0.31
		c-0.23,0.15-0.45,0.28-0.65,0.36c-0.2,0.09-0.39,0.14-0.57,0.15c-0.18,0.02-0.35-0.01-0.53-0.06c-0.17-0.05-0.34-0.15-0.51-0.29
		c-0.26-0.21-0.46-0.43-0.58-0.69c-0.13-0.25-0.19-0.51-0.2-0.78c-0.01-0.27,0.04-0.54,0.13-0.8c0.1-0.26,0.24-0.51,0.42-0.75
		c0.13-0.17,0.28-0.33,0.45-0.47c0.16-0.14,0.33-0.26,0.5-0.38c0.17-0.12,0.34-0.21,0.5-0.3c0.17-0.09,0.31-0.17,0.45-0.23
		L75.65,79.02z"/>
	<path class="st3" d="M80.16,73.98l-1.29,1.15l3.04,3.42l-1.23,1.1l-3.04-3.42l-1.3,1.16l-0.96-1.07l3.82-3.4L80.16,73.98z"/>
	<path class="st3" d="M86.4,73.75l0.76,1.22l-3.64,2.25l-3.16-5.12l3.58-2.22l0.76,1.22l-2.17,1.35l0.45,0.72l1.86-1.15l0.7,1.14
		l-1.86,1.15l0.49,0.81L86.4,73.75z"/>
	<path class="st3" d="M87.61,74.72l-2.15-5.61l2.16-0.83c0.47-0.18,0.9-0.26,1.31-0.25c0.41,0.01,0.78,0.1,1.11,0.26
		c0.34,0.16,0.62,0.39,0.88,0.69c0.25,0.29,0.45,0.63,0.6,1.02c0.17,0.43,0.24,0.84,0.24,1.24s-0.08,0.77-0.23,1.11
		c-0.15,0.34-0.38,0.64-0.67,0.91c-0.29,0.27-0.65,0.48-1.08,0.65L87.61,74.72z M89.95,70.6c-0.09-0.21-0.19-0.4-0.32-0.56
		c-0.13-0.16-0.27-0.28-0.42-0.36c-0.16-0.09-0.33-0.13-0.51-0.14c-0.18-0.01-0.37,0.02-0.57,0.1l-0.62,0.24l1.13,2.93l0.62-0.24
		c0.2-0.08,0.37-0.18,0.5-0.32c0.13-0.13,0.23-0.29,0.28-0.46c0.06-0.17,0.08-0.36,0.07-0.56C90.08,71.01,90.03,70.8,89.95,70.6z"/>
	<path class="st3" d="M99.52,65.83l0.56,5.99l-1.65,0.15l-0.22-2.34l-2.01,0.19l0.22,2.34l-1.65,0.15l-0.56-5.99l1.65-0.15
		l0.21,2.21l2.01-0.19l-0.21-2.21L99.52,65.83z"/>
	<path class="st3" d="M103.07,66.06l1.5,0.17l1.4,6.21l-1.66-0.19l-0.23-1.21l-1.59-0.18L102,71.98l-1.68-0.19L103.07,66.06z
		 M103.93,69.92l-0.32-1.91l-0.76,1.79L103.93,69.92z"/>
	<path class="st3" d="M106.19,72.56l1.73-5.76l1.58,0.48l-1.32,4.38l2.61,0.78l-0.42,1.38L106.19,72.56z"/>
	<path class="st3" d="M114.78,69.3l1.35,0.68l-0.86,6.3l-1.49-0.76l0.21-1.21l-1.43-0.72l-0.85,0.89l-1.51-0.77L114.78,69.3z
		 M114.24,73.21l0.37-1.9l-1.34,1.41L114.24,73.21z"/>
	<path class="st3" d="M115.43,76.48l3.64-4.79l1.32,1l-2.77,3.64l2.17,1.65l-0.87,1.14L115.43,76.48z"/>
	<path class="st3" d="M125.7,80.71c-0.03-0.2-0.07-0.39-0.13-0.58c-0.04-0.16-0.1-0.33-0.18-0.51c-0.07-0.18-0.17-0.34-0.28-0.48
		c-0.09-0.12-0.18-0.19-0.28-0.23c-0.09-0.04-0.18-0.02-0.26,0.04c-0.06,0.05-0.09,0.11-0.1,0.18c-0.01,0.07,0.01,0.16,0.03,0.26
		c0.03,0.1,0.07,0.21,0.13,0.35c0.06,0.13,0.12,0.28,0.19,0.45c0.11,0.27,0.2,0.52,0.26,0.75c0.07,0.23,0.09,0.46,0.09,0.67
		c-0.01,0.21-0.06,0.41-0.15,0.6s-0.26,0.38-0.47,0.56c-0.28,0.23-0.56,0.37-0.83,0.43c-0.28,0.05-0.54,0.04-0.79-0.03
		s-0.49-0.2-0.72-0.37c-0.23-0.17-0.42-0.36-0.6-0.58c-0.14-0.17-0.27-0.35-0.39-0.56c-0.12-0.2-0.23-0.41-0.33-0.62
		s-0.18-0.43-0.25-0.65c-0.07-0.21-0.12-0.43-0.15-0.64l1.57-0.37c0.03,0.23,0.08,0.46,0.14,0.69c0.05,0.2,0.12,0.4,0.21,0.62
		c0.09,0.22,0.21,0.42,0.37,0.61c0.12,0.14,0.21,0.22,0.29,0.24c0.08,0.02,0.15,0.01,0.21-0.04c0.07-0.06,0.1-0.13,0.1-0.22
		c0-0.09-0.02-0.2-0.07-0.32c-0.04-0.12-0.1-0.26-0.17-0.42c-0.07-0.15-0.13-0.32-0.2-0.5c-0.1-0.26-0.17-0.5-0.21-0.72
		c-0.04-0.21-0.05-0.41-0.02-0.59c0.02-0.18,0.08-0.35,0.17-0.5c0.09-0.15,0.23-0.3,0.39-0.44c0.26-0.21,0.52-0.35,0.8-0.42
		c0.28-0.07,0.54-0.07,0.8-0.02c0.26,0.06,0.51,0.15,0.75,0.31c0.24,0.15,0.45,0.34,0.64,0.57c0.14,0.17,0.26,0.35,0.36,0.54
		c0.1,0.19,0.19,0.38,0.26,0.57c0.07,0.19,0.13,0.38,0.18,0.56c0.05,0.18,0.09,0.34,0.12,0.49L125.7,80.71z"/>
	<path class="st3" d="M131.23,86.15L125.93,89l-0.78-1.46l2.07-1.12l-0.95-1.77l-2.07,1.12l-0.78-1.46l5.29-2.85l0.78,1.45
		l-1.95,1.05l0.95,1.77l1.95-1.05L131.23,86.15z"/>
	<path class="st3" d="M126.92,92.29c-0.13-0.44-0.16-0.86-0.09-1.27c0.07-0.4,0.2-0.78,0.4-1.11c0.2-0.34,0.46-0.62,0.77-0.86
		c0.31-0.24,0.65-0.42,1.03-0.53c0.38-0.11,0.77-0.14,1.16-0.1c0.39,0.04,0.77,0.16,1.11,0.35c0.34,0.18,0.65,0.43,0.91,0.75
		c0.26,0.31,0.46,0.69,0.58,1.11c0.13,0.44,0.16,0.86,0.09,1.27c-0.07,0.4-0.2,0.78-0.4,1.11c-0.2,0.34-0.46,0.62-0.78,0.86
		c-0.31,0.24-0.65,0.41-1.02,0.52c-0.38,0.11-0.76,0.14-1.16,0.09c-0.39-0.05-0.76-0.16-1.1-0.34c-0.34-0.18-0.65-0.43-0.92-0.75
		C127.23,93.09,127.04,92.72,126.92,92.29z M129.47,90.14c-0.2,0.06-0.37,0.13-0.54,0.24c-0.17,0.1-0.31,0.23-0.42,0.39
		c-0.11,0.15-0.18,0.32-0.23,0.51c-0.04,0.19-0.02,0.4,0.04,0.63c0.07,0.23,0.17,0.41,0.31,0.56c0.14,0.14,0.29,0.24,0.47,0.31
		c0.18,0.07,0.36,0.1,0.56,0.09c0.2,0,0.39-0.03,0.59-0.09c0.2-0.06,0.37-0.13,0.54-0.24c0.17-0.1,0.3-0.23,0.41-0.39
		c0.1-0.15,0.18-0.32,0.21-0.51c0.04-0.19,0.02-0.4-0.04-0.62c-0.07-0.23-0.17-0.41-0.3-0.55c-0.13-0.14-0.29-0.24-0.47-0.31
		c-0.18-0.07-0.36-0.1-0.56-0.1C129.85,90.06,129.66,90.08,129.47,90.14z"/>
	<path class="st3" d="M127.8,95.66l5.99-0.49l0.21,2.58c0.02,0.29-0.02,0.57-0.12,0.83c-0.1,0.26-0.24,0.48-0.42,0.67
		c-0.18,0.2-0.39,0.35-0.63,0.47c-0.24,0.12-0.49,0.2-0.74,0.21c-0.26,0.02-0.53-0.01-0.78-0.08c-0.26-0.07-0.49-0.19-0.7-0.35
		c-0.21-0.15-0.38-0.35-0.51-0.59c-0.13-0.23-0.21-0.5-0.24-0.79l-0.08-0.98l-1.84,0.15L127.8,95.66z M131.21,97.03l0.07,0.87
		c0.01,0.1,0.06,0.19,0.16,0.27c0.1,0.08,0.27,0.11,0.51,0.09c0.24-0.02,0.41-0.09,0.5-0.2c0.08-0.11,0.12-0.21,0.11-0.31
		l-0.07-0.83L131.21,97.03z"/>
	<path class="st3" d="M74.63,122.83l4.76-4.95l2.14,2.05c0.24,0.23,0.42,0.5,0.53,0.8c0.11,0.29,0.16,0.59,0.15,0.89
		c-0.01,0.3-0.07,0.59-0.18,0.88c-0.12,0.29-0.28,0.54-0.47,0.75c-0.21,0.22-0.45,0.39-0.73,0.53c-0.28,0.13-0.56,0.21-0.86,0.23
		c-0.29,0.02-0.59-0.01-0.88-0.11c-0.29-0.1-0.56-0.26-0.8-0.5l-0.81-0.78l-1.46,1.52L74.63,122.83z M78.59,121.44l0.72,0.69
		c0.09,0.08,0.2,0.12,0.34,0.11c0.15-0.01,0.31-0.11,0.51-0.31c0.2-0.2,0.29-0.39,0.28-0.54s-0.06-0.28-0.14-0.36l-0.69-0.65
		L78.59,121.44z"/>
	<path class="st3" d="M79.79,127.51l3.61-5.84l2.68,1.66c0.29,0.18,0.51,0.4,0.68,0.67c0.17,0.27,0.28,0.55,0.34,0.84
		c0.06,0.29,0.06,0.6,0.01,0.9c-0.05,0.31-0.15,0.58-0.31,0.83c-0.21,0.34-0.48,0.61-0.81,0.81c-0.33,0.2-0.69,0.31-1.06,0.34
		l-0.09,2.91l-1.81-1.12l0.08-2.43l-0.6-0.37l-1.11,1.79L79.79,127.51z M83.37,125.32l1.01,0.62c0.1,0.06,0.23,0.06,0.38,0.01
		c0.15-0.06,0.29-0.18,0.41-0.39c0.12-0.2,0.17-0.39,0.14-0.56c-0.03-0.17-0.1-0.28-0.2-0.34l-0.97-0.6L83.37,125.32z"/>
	<path class="st3" d="M89.15,132.31c-0.5-0.17-0.91-0.41-1.25-0.73c-0.34-0.32-0.6-0.69-0.78-1.1c-0.18-0.4-0.29-0.83-0.31-1.29
		c-0.02-0.45,0.03-0.89,0.17-1.31c0.14-0.43,0.37-0.81,0.66-1.16c0.3-0.34,0.65-0.61,1.05-0.81c0.4-0.2,0.83-0.33,1.3-0.37
		c0.47-0.04,0.94,0.01,1.43,0.18c0.5,0.17,0.91,0.41,1.25,0.73c0.34,0.32,0.6,0.69,0.78,1.1c0.18,0.41,0.29,0.84,0.31,1.29
		c0.02,0.45-0.04,0.88-0.18,1.3c-0.15,0.43-0.37,0.81-0.66,1.15c-0.3,0.34-0.64,0.61-1.04,0.81c-0.4,0.2-0.83,0.33-1.29,0.38
		S89.64,132.48,89.15,132.31z M88.78,128.52c-0.07,0.22-0.12,0.44-0.12,0.67c-0.01,0.23,0.02,0.43,0.09,0.64
		c0.07,0.2,0.18,0.38,0.33,0.54c0.15,0.16,0.36,0.28,0.62,0.37c0.26,0.09,0.5,0.11,0.72,0.07c0.23-0.04,0.42-0.12,0.59-0.24
		c0.17-0.12,0.32-0.28,0.45-0.47c0.13-0.19,0.23-0.39,0.3-0.61c0.07-0.22,0.12-0.44,0.12-0.67c0.01-0.23-0.02-0.43-0.1-0.64
		c-0.07-0.2-0.19-0.37-0.34-0.53c-0.15-0.16-0.36-0.28-0.61-0.36c-0.26-0.09-0.5-0.11-0.72-0.07c-0.22,0.04-0.42,0.11-0.59,0.23
		s-0.33,0.28-0.45,0.46C88.96,128.11,88.86,128.3,88.78,128.52z"/>
	<path class="st3" d="M102.96,127.19l-0.03,6.87l-1.89-0.01l0.01-2.69l-2.3-0.01l-0.01,2.69l-1.89-0.01l0.03-6.87l1.88,0.01
		l-0.01,2.53l2.3,0.01l0.01-2.53L102.96,127.19z"/>
	<path class="st3" d="M105.3,126.68l1.68-0.39l3.87,6.15l-1.87,0.43l-0.71-1.22l-1.78,0.42l-0.09,1.4l-1.87,0.43L105.3,126.68z
		 M107.7,130.49l-1.08-1.93l-0.14,2.22L107.7,130.49z"/>
	<path class="st3" d="M112.23,131.85l-2.88-6.24l1.71-0.79l2.18,4.74l2.83-1.3l0.69,1.49L112.23,131.85z"/>
	<path class="st3" d="M115.45,122.38l1.38-1.02l5.99,4.11l-1.54,1.14l-1.13-0.83l-1.47,1.08l0.47,1.32l-1.55,1.14L115.45,122.38z
		 M119.16,124.94l-1.75-1.35l0.75,2.09L119.16,124.94z"/>
	<path class="st3" d="M123.86,124.38l-5.12-4.57l1.25-1.41l3.89,3.48l2.07-2.32l1.22,1.1L123.86,124.38z"/>
	<path class="st3" d="M124.32,114.65l-0.4,0.71l1.71,0.97l-0.31,0.54l-1.71-0.98l-0.4,0.71l-0.56-0.32l1.12-1.96L124.32,114.65z
		 M125,112.2l0.45-0.8l2.25,1.29l-0.31,0.54l-1.52-0.87l0.89,1.22l-0.25,0.44l-1.5-0.15l1.52,0.87l-0.31,0.54l-2.25-1.29l0.45-0.79
		l1.58,0.23L125,112.2z"/>
	<path class="st4" d="M100,140.78c-22.49,0-40.78-18.29-40.78-40.79c0-22.49,18.29-40.78,40.78-40.78
		c22.49,0,40.78,18.29,40.78,40.78C140.78,122.48,122.49,140.78,100,140.78z M100,61.05c-21.47,0-38.94,17.47-38.94,38.94
		c0,21.47,17.47,38.94,38.94,38.94c21.47,0,38.94-17.47,38.94-38.94C138.94,78.53,121.48,61.05,100,61.05z"/>
	<path class="st4" d="M90.67,117.95c0,0.83-0.62,1.41-1.51,1.41h-1.18v-2.82h1.19C90.06,116.55,90.67,117.12,90.67,117.95z
		 M90.02,117.95c0-0.52-0.36-0.88-0.84-0.88h-0.54v1.74h0.58C89.67,118.82,90.02,118.47,90.02,117.95z"/>
	<path class="st4" d="M93.22,116.55v0.53h-1.51v0.61h1.36v0.53h-1.36v0.62h1.55v0.53h-2.19v-2.82H93.22z"/>
	<path class="st4" d="M94.72,117.92v0.41h-1.04v-0.41H94.72z"/>
	<path class="st4" d="M96.54,116.54v2.82h-0.64v-2.28h-0.56v-0.54H96.54z"/>
	<path class="st4" d="M99.77,117.95c0,0.92-0.39,1.43-1.09,1.43c-0.7,0-1.09-0.51-1.09-1.43c0-0.92,0.39-1.43,1.09-1.43
		C99.38,116.52,99.77,117.03,99.77,117.95z M98.21,117.95c0,0.67,0.15,0.96,0.48,0.96c0.32,0,0.47-0.29,0.47-0.96
		c0-0.67-0.15-0.96-0.47-0.96C98.36,116.99,98.21,117.27,98.21,117.95z"/>
	<path class="st4" d="M102.25,117.95c0,0.92-0.39,1.43-1.09,1.43c-0.7,0-1.09-0.51-1.09-1.43c0-0.92,0.39-1.43,1.09-1.43
		C101.86,116.52,102.25,117.03,102.25,117.95z M100.69,117.95c0,0.67,0.15,0.96,0.48,0.96c0.32,0,0.47-0.29,0.47-0.96
		c0-0.67-0.15-0.96-0.47-0.96C100.84,116.99,100.69,117.27,100.69,117.95z"/>
	<path class="st4" d="M104.73,117.95c0,0.92-0.39,1.43-1.09,1.43c-0.7,0-1.09-0.51-1.09-1.43c0-0.92,0.39-1.43,1.09-1.43
		C104.35,116.52,104.73,117.03,104.73,117.95z M103.17,117.95c0,0.67,0.15,0.96,0.48,0.96c0.32,0,0.47-0.29,0.47-0.96
		c0-0.67-0.15-0.96-0.47-0.96C103.32,116.99,103.17,117.27,103.17,117.95z"/>
	<path class="st4" d="M107.21,117.95c0,0.92-0.39,1.43-1.09,1.43c-0.7,0-1.09-0.51-1.09-1.43c0-0.92,0.39-1.43,1.09-1.43
		C106.83,116.52,107.21,117.03,107.21,117.95z M105.65,117.95c0,0.67,0.15,0.96,0.48,0.96c0.32,0,0.47-0.29,0.47-0.96
		c0-0.67-0.15-0.96-0.47-0.96C105.8,116.99,105.65,117.27,105.65,117.95z"/>
	<path class="st4" d="M109.69,117.95c0,0.92-0.39,1.43-1.09,1.43c-0.7,0-1.09-0.51-1.09-1.43c0-0.92,0.39-1.43,1.09-1.43
		C109.31,116.52,109.69,117.03,109.69,117.95z M108.13,117.95c0,0.67,0.15,0.96,0.48,0.96c0.32,0,0.47-0.29,0.47-0.96
		c0-0.67-0.15-0.96-0.47-0.96C108.28,116.99,108.13,117.27,108.13,117.95z"/>
	<path class="st4" d="M111.44,116.54v2.82h-0.64v-2.28h-0.56v-0.54H111.44z"/>
	<path class="st5" d="M86.56,107.63l0.09,0.04c4.65,2,9.04,4.54,13.09,7.58c0.16,0.12,0.38,0.12,0.53,0
		c4.05-3.04,8.44-5.58,13.09-7.58l0.09-0.04c0.17-0.07,0.27-0.23,0.27-0.41V95.2c0-2.7-0.71-5.21-2.11-7.45
		c-1.11-1.79-2.66-3.42-4.6-4.84c-3.29-2.41-6.52-3.37-6.66-3.41c-0.08-0.02-0.17-0.02-0.24,0c-0.14,0.04-3.49,1-6.89,3.4
		c-2.01,1.42-3.6,3.05-4.76,4.84c-1.44,2.22-2.2,4.82-2.18,7.46v12.01C86.29,107.4,86.39,107.56,86.56,107.63z M87.18,95.2
		c-0.01-2.47,0.69-4.89,2.03-6.97c1.08-1.69,2.6-3.24,4.51-4.58c2-1.4,4.19-2.49,6.51-3.25c2.25,0.76,4.36,1.85,6.28,3.25
		c1.84,1.35,3.3,2.89,4.35,4.58c1.3,2.11,1.96,4.45,1.96,6.97v11.72c-4.54,1.97-8.84,4.46-12.82,7.41
		c-3.98-2.95-8.28-5.43-12.82-7.41L87.18,95.2L87.18,95.2z"/>
	<path class="st4" d="M88.78,100.6c0.24,0,0.45-0.2,0.45-0.45V95.2c-0.01-2.07,0.58-4.11,1.7-5.85c0.91-1.42,2.18-2.72,3.79-3.86
		c1.68-1.18,3.52-2.09,5.47-2.74c1.87,0.64,3.64,1.55,5.25,2.72c1.55,1.14,2.79,2.44,3.67,3.86c1.1,1.76,1.67,3.79,1.65,5.87v10.53
		c-3.81,1.66-7.42,3.75-10.77,6.22c-3.34-2.47-6.95-4.56-10.77-6.22v-2.61c0-0.24-0.2-0.45-0.45-0.45c-0.24,0-0.45,0.2-0.45,0.45
		v2.9c0,0.18,0.1,0.34,0.27,0.41l0.07,0.03c3.92,1.69,7.63,3.84,11.05,6.4c0.16,0.12,0.38,0.12,0.53,0
		c3.42-2.56,7.12-4.71,11.05-6.4l0.07-0.03c0.17-0.07,0.27-0.23,0.27-0.41V95.21c0.02-2.24-0.61-4.44-1.79-6.34
		c-0.94-1.52-2.26-2.9-3.9-4.11c-2.78-2.04-5.53-2.86-5.65-2.89c-0.08-0.02-0.17-0.02-0.24,0c-0.12,0.04-2.96,0.85-5.84,2.89
		c-1.7,1.21-3.06,2.58-4.04,4.11c-1.22,1.89-1.87,4.09-1.85,6.35v4.95C88.33,100.41,88.54,100.6,88.78,100.6z"/>
	<path class="st6" d="M97.9,103.19v-6.43h2.1v1.98V86.21c-0.74,3.27-2.58,5.65-4.15,8.01c-0.91,1.37-1.74,2.74-2.21,4.26l0.02-0.05
		c-0.26,0.72-0.42,1.49-0.42,2.31c0,3.73,3.02,6.74,6.74,6.74v-6.03L97.9,103.19z"/>
	<path class="st5" d="M104.62,94.94c-0.15-0.24-0.31-0.48-0.47-0.72c-1.57-2.36-3.41-4.74-4.15-8.01v12.53L104.62,94.94z"/>
	<path class="st5" d="M106.32,98.43l0.02,0.05c-0.18-0.59-0.41-1.14-0.68-1.7l-5.67,4.67v6.03c3.72-0.01,6.74-3.02,6.74-6.74
		C106.74,99.93,106.59,99.15,106.32,98.43z"/>
	<path class="st3" d="M98.73,94.32c0.07-0.18-0.19-1.31,0.01-1.54c0.01-0.01,0.01-0.02,0-0.03c-0.1-0.09-0.19-0.28-0.23-0.35
		c-0.01-0.02-0.03-0.02-0.04-0.01c-0.07,0.07-0.16,0.18-0.19,0.21c-0.01,0.01-0.01,0.02-0.01,0.03c0.04,0.19,0.3,1.11,0.21,1.67
		c-0.1,0.48-1.39,0.43-1.26-0.11c0.02-0.08,0.1-0.28,0.14-0.37c0.01-0.01-0.01-0.02-0.01-0.01c-0.16,0.12-0.55,0.59-0.22,0.92
		C97.61,95.21,98.61,94.92,98.73,94.32z"/>
	<path class="st3" d="M99.6,94.22c0,0.01,0.02,0.01,0.02,0c0.21-0.81-0.51-1.17-0.76-1.27c-0.04-0.01-0.07,0.01-0.08,0.05
		c-0.01,0.04-0.01,0.11-0.02,0.22c0,0.03,0,0.06,0.01,0.09C98.85,93.67,99.43,93.41,99.6,94.22z"/>
	<path class="st3" d="M102.99,94.21c-0.87,0.18-1.63-1.06-2.13,0.15c-0.01,0.01,0.01,0.02,0.01,0.01c0.23-0.17,0.44-0.32,1.02-0.04
		c0.01,0.01,0.01,0.01,0,0.02c-0.27,0.16-0.71,0.12-0.99,0.11c-0.42-0.04-0.31-0.97-0.35-1.38c-0.01-0.06-0.02-0.16-0.04-0.21
		c-0.12-0.29-0.23,0.07-0.28,0.35c-0.23,1.37-1.51,1.59-1.88,1.69c-0.01,0-0.01,0.02,0,0.02c1.68,0.2,1.82-0.86,1.98-1.33
		c0.01-0.01,0.02-0.01,0.02,0.01c0,0.12,0,0.4,0.01,0.55c0.04,0.86,0.94,0.7,1.52,0.53c0.45-0.15,0.56-0.12,0.83-0.12h0.01
		c0.02-0.02,0.21-0.23,0.29-0.33C103.01,94.23,103,94.21,102.99,94.21z"/>
	<path class="st3" d="M98.04,105.01H97.3v-0.82H97v1.63h0.3v-0.51h0.74v0.51h0.3v-1.63h-0.3V105.01z"/>
	<path class="st3" d="M99.33,104.17c-0.23,0-0.42,0.08-0.58,0.24c-0.16,0.16-0.24,0.36-0.24,0.59c0,0.23,0.08,0.43,0.24,0.59
		c0.16,0.16,0.35,0.24,0.58,0.24c0.2,0,0.38-0.07,0.53-0.2v0.18h0.3V105c0-0.23-0.08-0.43-0.24-0.59
		C99.76,104.25,99.56,104.17,99.33,104.17z M99.71,105.38c-0.1,0.1-0.23,0.15-0.37,0.15c-0.15,0-0.27-0.05-0.37-0.15
		c-0.1-0.1-0.15-0.23-0.15-0.38c0-0.15,0.05-0.27,0.15-0.38c0.1-0.1,0.23-0.16,0.37-0.16c0.15,0,0.27,0.05,0.37,0.15
		c0.1,0.1,0.15,0.23,0.15,0.38C99.87,105.15,99.81,105.27,99.71,105.38z"/>
	<path class="st3" d="M100.67,103.88h-0.3v1.93h0.3V103.88z"/>
	<path class="st3" d="M101.67,104.17c-0.23,0-0.42,0.08-0.58,0.24c-0.16,0.16-0.24,0.36-0.24,0.59c0,0.23,0.08,0.43,0.24,0.59
		c0.16,0.16,0.35,0.24,0.58,0.24c0.2,0,0.38-0.07,0.53-0.2v0.18h0.3V105c0-0.23-0.08-0.43-0.24-0.59
		C102.09,104.25,101.9,104.17,101.67,104.17z M102.04,105.38c-0.1,0.1-0.23,0.15-0.37,0.15c-0.15,0-0.27-0.05-0.37-0.15
		c-0.1-0.1-0.15-0.23-0.15-0.38c0-0.15,0.05-0.27,0.15-0.38c0.1-0.1,0.23-0.16,0.37-0.16c0.15,0,0.27,0.05,0.37,0.15
		c0.1,0.1,0.15,0.23,0.15,0.38C102.2,105.15,102.15,105.27,102.04,105.38z"/>
	<path class="st3" d="M103,103.88h-0.3v1.93h0.3V103.88z"/>
</g>
</svg>
