<?xml version="1.0" encoding="utf-8"?>
<!-- Generator: Adobe Illustrator 23.0.0, SVG Export Plug-In . SVG Version: 6.00 Build 0)  -->
<svg version="1.1" id="Layer_1" xmlns="http://www.w3.org/2000/svg" xmlns:xlink="http://www.w3.org/1999/xlink" x="0px" y="0px"
	 viewBox="0 0 200 200" style="enable-background:new 0 0 200 200;" xml:space="preserve">
<style type="text/css">
	.st0{fill:#026419;}
</style>
<path class="st0" d="M152.25,67.62c-0.64,0.28-1.13,0.5-1.28,0.5c-0.5,0.28-0.99,0.43-1.35,0.49c-0.71,0.28-1.28,0.5-1.77,0.64
	c-0.64,0.14-1.13,0.28-1.28,0.35c-1.7,0.43-2.69,0.64-3.12,0.71c-1.13,0.28-2.27,0.42-3.26,0.49l-0.14,0.14
	c1.13-0.57,2.2-1.35,3.19-2.2c0.5-0.49,1.42-1.49,2.62-2.9c1.13-1.7,1.77-2.69,1.91-3.05c0.57-0.92,1.06-2.05,1.56-3.47l0.14-0.28
	c-1.2,0.64-2.27,1.2-3.19,1.77c-0.5,0.28-1.63,0.71-3.4,1.35c-0.5,0.21-1.7,0.64-3.4,1.2c-0.07,0-0.28,0.07-0.57,0.14
	c-0.35,0.07-0.78,0.21-1.35,0.35c-0.57,0.14-1.2,0.28-1.77,0.43c-0.99-0.99-2.05-1.98-3.26-2.9c-0.21-0.14-0.64-0.35-1.13-0.64
	c-0.5-0.28-0.92-0.57-1.35-0.78c-0.35-0.21-0.78-0.42-1.13-0.64c-1.7-0.71-3.12-1.21-4.11-1.42c-1.13-0.21-2.69-0.35-4.53-0.35
	c-2.98,0-5.67,0.49-8.22,1.49c-2.55,1.13-4.89,2.69-6.94,4.75c-2.2,2.27-3.76,4.54-4.75,6.94c-1.06,2.48-1.63,5.24-1.63,8.22
	c0,0.49,0.07,0.92,0.14,1.27v0.57c0,0.35,0,0.57,0.07,0.64c0,0.21,0.07,0.64,0.14,1.28c0.14,0.28,0.21,0.64,0.28,1.06
	c-2.48,0-4.6-0.21-6.52-0.57c-2.27-0.35-4.39-0.78-6.38-1.42c-1.91-0.5-3.97-1.2-6.09-1.98c-1.77-0.64-3.68-1.56-5.74-2.55
	c-2.27-1.13-4.11-2.2-5.53-3.12c-1.77-1.27-3.47-2.55-5.03-3.82c-1.49-1.13-3.05-2.48-4.61-4.04c-1.13-0.99-2.55-2.62-4.18-4.75
	l-0.07-0.14c-0.21,0.42-0.42,0.85-0.57,1.2c-0.21,0.35-0.35,0.64-0.5,0.85c-0.14,0.21-0.21,0.35-0.21,0.43
	c-0.14,0.35-0.28,0.92-0.5,1.49c-0.21,0.64-0.28,0.99-0.35,1.13c-0.07,0.35-0.21,0.85-0.35,1.49c-0.21,0.71-0.28,1.13-0.35,1.35
	c-0.07,0.78-0.14,1.77-0.14,2.98c0,1.91,0.21,3.76,0.64,5.46c0.5,1.77,1.13,3.4,2.05,4.82c0.78,1.42,1.77,2.83,2.9,4.18
	c1.28,1.28,2.55,2.41,3.9,3.26c-0.5,0-1.35-0.07-2.48-0.28c-0.57-0.07-1.13-0.21-1.7-0.28c-0.57-0.14-0.85-0.21-0.92-0.21
	c-0.21-0.07-0.57-0.21-1.13-0.43c-0.5-0.14-0.92-0.28-1.13-0.43L52,87.25l0.14,0.14v0.28c0,2.83,0.42,5.31,1.27,7.51
	c0.64,1.98,1.84,4.04,3.61,6.16c1.49,1.77,3.33,3.4,5.67,4.82c1.91,1.21,4.18,2.05,6.73,2.48c-0.5,0.28-0.99,0.43-1.35,0.43
	l-1.42,0.21h-1.42c-0.5,0.14-0.99,0.14-1.56,0.14H62.7c-0.07,0-0.43,0-0.99-0.14c-0.35,0-0.71,0-1.06-0.14c-0.28,0-0.42,0-0.5-0.07
	h-0.5c0.57,1.98,1.63,3.97,3.05,5.95c1.35,1.84,2.91,3.4,4.61,4.75c1.98,1.42,3.9,2.48,5.74,3.12c2.48,0.78,4.68,1.13,6.66,1.13
	c-1.35,0.92-3.26,2.2-5.81,3.68c-2.13,1.13-4.25,2.13-6.31,2.98c-2.41,0.78-4.75,1.35-6.94,1.77c-2.2,0.43-4.75,0.57-7.51,0.57
	h-2.69c-0.43,0-0.92-0.07-1.35-0.07c-0.07,0-0.5,0-1.35-0.14h0.28c2.76,1.7,5.24,3.05,7.3,4.04c2.13,0.99,4.82,2.05,7.94,3.12
	c2.62,0.71,5.46,1.35,8.57,1.84c2.83,0.43,5.74,0.64,8.86,0.64h0.07c5.24,0,9.92-0.5,14.1-1.35c4.53-0.99,8.5-2.34,12.04-4.11
	c3.83-1.84,7.3-3.97,10.56-6.45c3.33-2.48,6.16-5.1,8.57-7.87c2.55-2.98,4.89-6.09,6.8-9.42c1.91-3.12,3.54-6.59,4.89-10.27
	c1.35-3.54,2.34-7.16,2.98-10.77c0.64-3.76,0.99-7.37,0.99-10.77v-2.69c0.14-0.07,0.57-0.43,1.27-0.99
	c0.78-0.57,1.35-1.06,1.77-1.49c0.99-0.85,1.91-1.77,2.76-2.62c0.71-0.71,1.56-1.7,2.48-2.84c0.99-1.42,1.77-2.41,2.13-3.05
	L152.25,67.62z"/>
</svg>
