<?xml version="1.0" encoding="utf-8"?>
<!-- Generator: Adobe Illustrator 23.0.0, SVG Export Plug-In . SVG Version: 6.00 Build 0)  -->
<svg version="1.1" id="Layer_1" xmlns="http://www.w3.org/2000/svg" xmlns:xlink="http://www.w3.org/1999/xlink" x="0px" y="0px"
	 viewBox="0 0 200 200" style="enable-background:new 0 0 200 200;" xml:space="preserve">
<style type="text/css">
	.st0{fill:#115C07;}
</style>
<g>
	<g>
		<path class="st0" d="M118.38,96.93c2.38,1.35,2.38,4.78,0,6.14l-25,14.18c-2.35,1.34-5.27-0.36-5.27-3.06V85.81
			c0-2.7,2.92-4.4,5.27-3.06L118.38,96.93z"/>
	</g>
	<g>
		<path class="st0" d="M100,144.31c-24.82,0-45.01-19.88-45.01-44.31S75.18,55.69,100,55.69s45.01,19.88,45.01,44.31
			S124.82,144.31,100,144.31z M100,65.31c-19.52,0-35.39,15.56-35.39,34.69s15.88,34.69,35.39,34.69s35.39-15.56,35.39-34.69
			S119.52,65.31,100,65.31z"/>
	</g>
</g>
</svg>
