<?xml version="1.0" encoding="utf-8"?>
<!-- Generator: Adobe Illustrator 23.0.0, SVG Export Plug-In . SVG Version: 6.00 Build 0)  -->
<svg version="1.1" id="Layer_1" xmlns="http://www.w3.org/2000/svg" xmlns:xlink="http://www.w3.org/1999/xlink" x="0px" y="0px"
	 viewBox="0 0 200 200" style="enable-background:new 0 0 200 200;" xml:space="preserve">
<style type="text/css">
	.st0{fill:#0958A0;}
	.st1{fill:#F7A521;}
</style>
<g>
	<polygon class="st0" points="93.71,113.13 83.6,113.13 89.92,86.93 100.03,86.93 	"/>
	<path class="st0" d="M130.3,87.56c-2.89-0.74-5.96-1.11-9.05-1.11c-9.96,0-16.99,3.57-17.02,8.66c0,3.77,5.03,5.92,8.82,7.12
		c3.79,1.2,5.23,2.11,5.23,3.26c0,1.76-3.17,2.57-6.08,2.57c-3.27,0.06-6.52-0.41-9.46-1.38l-1.32-0.43l-1.41,5.92
		c3.59,0.93,7.41,1.4,11.26,1.38c10.58,0,17.63-3.51,17.63-8.94c0-3-2.67-5.29-8.49-7.14c-3.53-1.2-5.67-1.97-5.67-3.24
		c0-1.26,1.79-2.31,5.88-2.31c2.58-0.05,5.14,0.29,7.49,1.01l0.94,0.28l1.35-5.66L130.3,87.56z"/>
	<path class="st0" d="M156.19,86.93h-7.82c-1.11-0.09-2.24,0.08-3.19,0.47c-0.96,0.39-1.68,0.99-2.07,1.7l-15.02,24.04h10.61
		l2.12-3.95h12.96c0.29,0.93,1.2,3.95,1.2,3.95h9.35L156.19,86.93z M143.73,103.86l4.03-7.34c0,0,0.82-1.54,1.32-2.51l0.71,2.25
		c0,0,1.91,6.28,2.32,7.6H143.73z"/>
	<path class="st0" d="M75.19,86.93l-9.9,17.88l-1.09-3.63c-2.46-4.7-7.42-8.61-13.93-10.99l9.05,22.93h10.67l15.87-26.19H75.19z"/>
	<path class="st1" d="M52.1,86.93H35.84l-0.18,0.53c12.7,2.17,21.07,7.42,24.51,13.82l-3.53-12.04c-0.17-0.7-0.74-1.34-1.59-1.77
		C54.21,87.04,53.15,86.85,52.1,86.93z"/>
</g>
</svg>
