<?xml version="1.0" encoding="utf-8"?>
<!-- Generator: Adobe Illustrator 23.0.0, SVG Export Plug-In . SVG Version: 6.00 Build 0)  -->
<svg version="1.1" id="Layer_1" xmlns="http://www.w3.org/2000/svg" xmlns:xlink="http://www.w3.org/1999/xlink" x="0px" y="0px"
	 viewBox="0 0 200 200" style="enable-background:new 0 0 200 200;" xml:space="preserve">
<style type="text/css">
	.st0{fill:#026419;}
</style>
<path class="st0" d="M88.52,115.66V81.72l30.04,17L88.52,115.66z M154.48,75.84l-0.92-4.6c-0.42-1.56-0.85-2.98-1.35-4.25
	c-0.64-1.27-1.35-2.27-2.13-3.12c-0.99-1.2-2.05-2.2-3.12-2.98c-0.85-0.5-1.91-0.99-3.19-1.35c-0.21,0-1.13-0.14-2.83-0.5
	c-0.71-0.14-1.35-0.21-1.91-0.21c-3.83-0.28-5.81-0.43-6.09-0.43c-2.27-0.21-4.46-0.35-6.66-0.35c-2.13-0.07-4.32-0.14-6.59-0.21
	c-3.68-0.14-5.74-0.14-6.02-0.14c-3.4-0.14-5.17-0.14-5.31-0.14H91.71c-0.14,0-1.91,0-5.24,0.14c-0.35,0-2.41,0-6.16,0.14
	c-2.2,0.07-4.39,0.14-6.59,0.21c-2.2,0-4.39,0.14-6.59,0.35c-0.28,0-2.34,0.14-6.09,0.43c-0.5,0-1.13,0.07-1.98,0.21h-0.14
	c-0.14,0.07-0.28,0.07-0.5,0.14c-0.21,0.07-0.43,0.07-0.64,0.14l-1.56,0.21c-1.2,0.35-2.27,0.78-3.19,1.35
	c-1.2,0.92-2.27,1.91-3.19,2.98c-0.78,0.78-1.42,1.84-2.05,3.12c-0.57,1.49-1.06,2.91-1.35,4.32l-0.99,4.53l-0.5,6.09
	c-0.21,1.63-0.43,3.76-0.5,6.31c-0.07,0.99-0.07,3.4-0.07,7.16v9.21c0,3.68,0,5.95,0.07,6.94c0.07,2.69,0.28,4.82,0.5,6.52l0.5,6.02
	l0.99,4.61c0.28,1.13,0.71,2.48,1.35,4.11c0.57,1.28,1.27,2.34,2.05,3.26c0.92,0.92,2.05,1.91,3.33,2.91
	c1.06,0.57,2.2,1.06,3.54,1.35c0.42,0.07,0.78,0.14,0.92,0.14l1.27,0.21c0.35,0,0.64,0,0.85,0.14l2.48,0.49l4.18,0.21
	c0.07,0,0.21,0,0.42,0c0.21,0.07,0.5,0.07,0.85,0.07c0.43,0.07,0.78,0.07,1.13,0.07c0.92,0,1.91,0.07,3.05,0.14
	c0.14,0,1.2,0.07,3.19,0.14c1.13,0,2.2,0.07,3.12,0.14h3.12c1.7,0,2.76,0,3.19,0.07h5.88c2.41,0.21,4.11,0.28,4.96,0.28h12.97
	c1.42-0.07,3.19-0.14,5.38-0.14c0.28,0,1.13-0.07,2.55-0.14c1.42-0.07,2.62-0.07,3.47-0.14c1.2,0,2.34,0,3.33-0.07h3.26
	c1.77,0,3.97-0.14,6.66-0.43c1.49-0.07,3.47-0.14,6.02-0.35c0.57-0.14,1.2-0.28,1.98-0.35c1.7-0.35,2.62-0.5,2.76-0.5
	c1.35-0.35,2.41-0.85,3.26-1.35c0.85-0.57,1.84-1.56,3.12-2.91c0.92-0.99,1.56-2.05,2.13-3.19c0.35-0.92,0.78-2.34,1.27-4.18
	l0.99-4.61l0.57-6.02c0.21-1.06,0.35-3.19,0.42-6.52c0.07-3.97,0.14-6.23,0.14-6.94v-9.21c0-0.71-0.07-2.98-0.14-7.01
	c-0.07-0.57-0.07-1.7-0.14-3.26c-0.07-1.63-0.14-2.62-0.21-3.19L154.48,75.84z"/>
</svg>
