<?xml version="1.0" encoding="utf-8"?>
<!-- Generator: Adobe Illustrator 23.0.0, SVG Export Plug-In . SVG Version: 6.00 Build 0)  -->
<svg version="1.1" id="Layer_1" xmlns="http://www.w3.org/2000/svg" xmlns:xlink="http://www.w3.org/1999/xlink" x="0px" y="0px"
	 viewBox="0 0 200 200" style="enable-background:new 0 0 200 200;" xml:space="preserve">
<style type="text/css">
	.st0{fill:#115C07;}
</style>
<g>
	<path class="st0" d="M150.02,116.47c-3.1-1.66-6.85-1.48-9.81,0.47l-15.36,10.23c-0.45-4.88-4.6-8.7-9.61-8.7H99.14l-2.1-1.58
		c-4.2-3.14-9.41-4.87-14.61-4.87c-4.45,0-8.76,1.2-12.56,3.47l-0.85,0.51v-2.91c0-1.78-1.45-3.22-3.2-3.22H48.16
		c-1.75,0-3.2,1.45-3.2,3.22v38.68c0,1.78,1.45,3.22,3.2,3.22h17.66c1.75,0,3.2-1.45,3.2-3.22v-1.08h50.78c3.3,0,6.5-0.99,9.21-2.87
		l21.91-15.17c2.55-1.78,4.1-4.7,4.1-7.82C155.03,121.34,153.13,118.13,150.02,116.47z M62.57,148.55H51.42v-32.22h11.16V148.55z
		 M147.27,127.37l-21.96,15.17c-1.6,1.13-3.5,1.72-5.5,1.72H69.03v-20.73l4.15-2.5c2.8-1.67,6-2.55,9.26-2.55
		c3.85,0,7.65,1.27,10.71,3.58l3,2.22c0.55,0.42,1.2,0.64,1.9,0.64h17.21c1.8,0,3.25,1.45,3.25,3.23c0,1.78-1.45,3.22-3.25,3.22
		H91.59c-1.75,0-3.2,1.44-3.2,3.22s1.45,3.22,3.2,3.22h25.37c2.35,0,4.6-0.69,6.55-1.99l20.31-13.52c1.35-0.92,2.65-0.42,3.15-0.16
		c0.45,0.26,1.6,1.05,1.6,2.7C148.57,125.86,148.07,126.8,147.27,127.37z"/>
	<path class="st0" d="M93.74,98.71c13.36,0,24.41-9.73,26.52-22.45c2.7,3.03,4.9,6.49,6.45,10.24h-2.85c-1.25,0-2.4,0.72-2.9,1.86
		c-0.55,1.13-0.4,2.47,0.4,3.43l14.01,16.76c0.6,0.74,1.5,1.16,2.45,1.16c0.95,0,1.9-0.43,2.5-1.16l13.96-16.76
		c0.8-0.96,1-2.3,0.45-3.43c-0.55-1.14-1.65-1.86-2.9-1.86h-4.7c-2.85-11.25-9.31-21.43-18.31-28.89
		C119.01,49.48,106.55,45,93.74,45c-14.81,0-26.87,12.05-26.87,26.86C66.88,86.66,78.93,98.71,93.74,98.71z M116.05,56.87
		c3.1,1.58,5.95,3.49,8.65,5.71c8.56,7.08,14.46,16.95,16.66,27.78c0.3,1.51,1.65,2.59,3.15,2.59h0.4l-7.1,8.5l-7.05-8.5h0.45
		c1,0,1.95-0.47,2.55-1.27c0.6-0.8,0.8-1.84,0.55-2.81c-2.3-8.41-7.3-16-14.06-21.52l0,0c-0.65-3.82-2.1-7.36-4.2-10.46
		C116.05,56.88,116.05,56.88,116.05,56.87z M93.74,51.44c11.26,0,20.46,9.16,20.46,20.41c0,11.26-9.21,20.41-20.46,20.41
		s-20.41-9.16-20.41-20.41C73.33,60.6,82.48,51.44,93.74,51.44z"/>
	<path class="st0" d="M93.74,75.08c1.2,0,2.15,0.97,2.15,2.15c0,1.19-0.95,2.15-2.15,2.15c-1,0-1.9-0.72-2.1-1.72
		c-0.35-1.74-2.05-2.87-3.8-2.52c-1.75,0.36-2.85,2.06-2.5,3.8c0.6,2.88,2.6,5.18,5.2,6.24v0.64c0,1.78,1.45,3.22,3.2,3.22
		c1.8,0,3.25-1.45,3.25-3.22v-0.63c3.15-1.28,5.35-4.37,5.35-7.96c0-4.74-3.85-8.6-8.6-8.6c-1.15,0-2.15-0.97-2.15-2.15
		c0-1.19,1-2.15,2.15-2.15c1.05,0,1.9,0.72,2.1,1.72c0.4,1.75,2.1,2.87,3.8,2.52c1.75-0.36,2.9-2.06,2.55-3.8
		c-0.6-2.88-2.6-5.19-5.2-6.25v-0.63c0-1.78-1.45-3.22-3.25-3.22c-1.75,0-3.2,1.44-3.2,3.22v0.63c-3.15,1.28-5.35,4.36-5.35,7.96
		C85.19,71.22,89.04,75.08,93.74,75.08z"/>
</g>
</svg>
