<?xml version="1.0" encoding="utf-8"?>
<!-- Generator: Adobe Illustrator 23.0.0, SVG Export Plug-In . SVG Version: 6.00 Build 0)  -->
<svg version="1.1" id="Layer_1" xmlns="http://www.w3.org/2000/svg" xmlns:xlink="http://www.w3.org/1999/xlink" x="0px" y="0px"
	 viewBox="0 0 200 200" style="enable-background:new 0 0 200 200;" xml:space="preserve">
<style type="text/css">
	.st0{fill:#FFFFFF;}
</style>
<g>
	<path class="st0" d="M157.2,40.82c-1.13-1.08-2.93-1.05-4.01,0.09l-10.34,10.8c-0.86-0.51-1.8-0.91-2.8-1.15l-31.82-7.77
		c-3.54-0.86-7.29,0.24-9.79,2.9l-52.48,55.65c-5.59,5.93-5.31,15.29,0.61,20.88l35.77,33.73v0c2.85,2.69,6.49,4.02,10.13,4.02
		c3.93,0,7.85-1.55,10.75-4.63l50.12-53.15c2.36-2.5,3.28-5.98,2.49-9.32l-8.31-34.81c-0.18-0.77-0.45-1.5-0.8-2.18l10.57-11.04
		C158.37,43.7,158.33,41.91,157.2,40.82z M150.3,94.18c0.35,1.47-0.06,3.01-1.1,4.11l-50.12,53.15c-3.44,3.65-9.21,3.82-12.86,0.38
		v0l-35.77-33.73c-3.65-3.44-3.82-9.21-0.38-12.86l52.48-55.65c1.1-1.17,2.76-1.66,4.32-1.28l31.8,7.77l-10.56,11.03
		c-1.46-0.78-3.14-1.23-4.91-1.23c-5.77,0-10.46,4.69-10.46,10.46s4.69,10.46,10.46,10.46s10.46-4.69,10.46-10.46
		c0-1.94-0.53-3.75-1.45-5.3l10.05-10.49L150.3,94.18z M127.99,76.32c0,2.64-2.15,4.78-4.78,4.78s-4.78-2.15-4.78-4.78
		c0-2.64,2.15-4.78,4.78-4.78S127.99,73.68,127.99,76.32z"/>
	<path class="st0" d="M116,102.56l-45.16,5.14c-1.56,0.18-2.68,1.58-2.5,3.14c0.16,1.45,1.39,2.52,2.82,2.52
		c0.11,0,0.22-0.01,0.32-0.02l45.16-5.14c1.56-0.18,2.68-1.58,2.5-3.14C118.96,103.5,117.56,102.39,116,102.56z"/>
	<path class="st0" d="M90.88,101.31c5.77,0,10.46-4.69,10.46-10.46c0-5.77-4.69-10.46-10.46-10.46c-5.77,0-10.46,4.69-10.46,10.46
		C80.42,96.62,85.11,101.31,90.88,101.31z M90.88,86.08c2.64,0,4.78,2.15,4.78,4.78c0,2.64-2.15,4.78-4.78,4.78
		c-2.64,0-4.78-2.15-4.78-4.78C86.09,88.22,88.24,86.08,90.88,86.08z"/>
	<path class="st0" d="M90.88,114.58c-5.77,0-10.46,4.69-10.46,10.46c0,5.77,4.69,10.46,10.46,10.46c5.77,0,10.46-4.69,10.46-10.46
		C101.33,119.27,96.64,114.58,90.88,114.58z M90.88,129.82c-2.64,0-4.78-2.15-4.78-4.78c0-2.64,2.15-4.78,4.78-4.78
		c2.64,0,4.78,2.15,4.78,4.78C95.66,127.67,93.51,129.82,90.88,129.82z"/>
</g>
</svg>
