<svg width="30" height="27" viewBox="0 0 30 27" fill="none" xmlns="http://www.w3.org/2000/svg">
<path d="M29.1656 12.0889C28.891 11.0365 28.3012 10.1092 27.4866 9.44896C26.6719 8.7887 25.6772 8.43182 24.6547 8.43295H18.413V4.14864C18.413 3.04835 18.0039 1.99313 17.2757 1.21511C16.5476 0.437087 15.56 0 14.5302 0H12.8729C12.5922 0.00188603 12.3237 0.122334 12.1259 0.335048C11.928 0.547762 11.817 0.835463 11.817 1.13534V5.16259C11.7809 7.11776 11.1046 8.99757 9.90573 10.4751L7.64026 12.9243L9.15057 14.5167L11.4428 12.0246C11.464 12.0068 11.4821 11.985 11.4962 11.9604C13.0337 10.0724 13.8975 7.66485 13.9355 5.16259V2.2921H14.5302C14.9981 2.2921 15.4469 2.49071 15.7778 2.84424C16.1086 3.19776 16.2945 3.67724 16.2945 4.1772V9.56829C16.2963 9.86816 16.409 10.1551 16.6081 10.3665C16.8071 10.5779 17.0764 10.6965 17.3571 10.6965H24.6547C25.2186 10.6985 25.7664 10.8979 26.2141 11.2641C26.6619 11.6304 26.985 12.1433 27.134 12.7244C27.2116 13.0379 27.2116 13.3677 27.134 13.6812L25.6103 21.8143C25.5636 22.0999 25.4232 22.9853 23.7258 22.9853H8.23503V25.2417H23.7392C25.9512 25.2417 27.4013 24.1349 27.7021 22.2213L29.2124 14.1525C29.3651 13.472 29.349 12.7607 29.1656 12.0889Z" fill="white"/>
<path d="M8.28668 9.15332H1.05588C0.775844 9.15332 0.507277 9.27218 0.30926 9.48376C0.111244 9.69534 0 9.98231 0 10.2815V25.5836C0 25.8829 0.111244 26.1698 0.30926 26.3814C0.507277 26.593 0.775844 26.7118 1.05588 26.7118H8.28668C8.56734 26.7118 8.83659 26.5932 9.03567 26.3818C9.23475 26.1705 9.34748 25.8835 9.34924 25.5836V10.2815C9.34748 9.98165 9.23475 9.6947 9.03567 9.48333C8.83659 9.27195 8.56734 9.15331 8.28668 9.15332ZM7.2308 24.4483H2.11845V11.4097H7.2308V24.4483Z" fill="white"/>
</svg>
